<svg width="96" height="24" fill="none" xmlns="http://www.w3.org/2000/svg"><path d="M55.028 5.81h-3.212l-5.784 13.046L40.247 5.81h-3.21l7.87 17.748h2.25l7.87-17.748ZM14.978 0v7.802a8.77 8.77 0 0 0-4.573-2.354 8.554 8.554 0 0 0-5.058.652 9.04 9.04 0 0 0-3.892 3.445A9.66 9.66 0 0 0 0 14.66a9.66 9.66 0 0 0 1.455 5.113 9.04 9.04 0 0 0 3.892 3.445 8.555 8.555 0 0 0 5.058.652 8.77 8.77 0 0 0 4.573-2.353v2.042h2.911V0h-2.911ZM8.97 20.95a5.817 5.817 0 0 1-3.339-1.06 6.238 6.238 0 0 1-2.213-2.823 6.567 6.567 0 0 1-.342-3.635A6.389 6.389 0 0 1 4.72 10.21a5.93 5.93 0 0 1 3.076-1.722 5.758 5.758 0 0 1 3.472.358 6.077 6.077 0 0 1 2.697 2.317 6.503 6.503 0 0 1 1.013 3.496 6.452 6.452 0 0 1-1.762 4.446c-1.126 1.18-2.653 1.844-4.246 1.846ZM69.173 5.81v1.992a8.77 8.77 0 0 0-4.574-2.354 8.554 8.554 0 0 0-5.058.652 9.04 9.04 0 0 0-3.891 3.445 9.66 9.66 0 0 0-1.456 5.114 9.66 9.66 0 0 0 1.456 5.114 9.04 9.04 0 0 0 3.891 3.444 8.555 8.555 0 0 0 5.058.652 8.77 8.77 0 0 0 4.574-2.354v2.043h2.911V5.809h-2.911Zm-6.01 15.14c-1.189 0-2.35-.369-3.338-1.06a6.238 6.238 0 0 1-2.213-2.824 6.568 6.568 0 0 1-.342-3.635 6.39 6.39 0 0 1 1.645-3.221 5.93 5.93 0 0 1 3.077-1.722 5.758 5.758 0 0 1 3.471.358 6.078 6.078 0 0 1 2.697 2.317 6.505 6.505 0 0 1 1.013 3.496 6.453 6.453 0 0 1-1.763 4.447c-1.126 1.18-2.654 1.843-4.248 1.845ZM83.653 5.793c-2.23.006-4.375.893-6.008 2.483V5.809h-2.911v17.749h2.911v-8.425a6.451 6.451 0 0 1 1.762-4.447c1.126-1.179 2.653-1.842 4.246-1.844h1.054V5.793h-1.054ZM89.992 14.253V8.842h6.006V5.793h-6.007V0h-2.91v14.253c.002 2.476.942 4.85 2.615 6.6 1.672 1.752 3.94 2.737 6.304 2.74v-3.049c-1.593-.002-3.12-.665-4.247-1.845a6.452 6.452 0 0 1-1.761-4.446ZM37.74 14.659c.026-2.324-.765-4.577-2.224-6.328-1.459-1.751-3.482-2.879-5.684-3.167a8.718 8.718 0 0 0-6.255 1.603c-1.825 1.321-3.122 3.3-3.643 5.559a9.851 9.851 0 0 0 .819 6.687c1.049 2.048 2.78 3.62 4.866 4.415a8.65 8.65 0 0 0 6.438-.101c2.061-.862 3.747-2.488 4.737-4.568h-3.455a5.97 5.97 0 0 1-2.692 1.884 5.721 5.721 0 0 1-3.235.138 5.911 5.911 0 0 1-2.83-1.648 6.341 6.341 0 0 1-1.594-2.95L22.98 16h14.76v-1.341Zm-14.752-1.525A6.326 6.326 0 0 1 25.12 9.7a5.84 5.84 0 0 1 3.699-1.333c1.34 0 2.642.47 3.699 1.333a6.327 6.327 0 0 1 2.132 3.434H22.988Z" fill="#fff"/></svg>