<svg xmlns="http://www.w3.org/2000/svg" width="303" height="16" fill="none" viewBox="0 0 303 16"><path fill="#3D4046" d="M1 7H0v2h1V7Zm292 2h1V7h-1v2ZM1 9h.993V7H1v2Zm4.966 0h1.986V7H5.966v2Zm5.96 0h1.986V7h-1.987v2Zm5.958 0h1.987V7h-1.987v2Zm5.96 0h1.986V7h-1.986v2Zm5.959 0h1.986V7h-1.986v2Zm5.959 0h1.986V7h-1.986v2Zm5.96 0h1.986V7H41.72v2Zm5.958 0h1.987V7H47.68v2Zm5.96 0h1.986V7H53.64v2Zm5.959 0h1.986V7h-1.986v2Zm5.959 0h1.986V7h-1.986v2Zm5.959 0h1.986V7h-1.986v2Zm5.96 0h1.986V7h-1.987v2Zm5.958 0h1.987V7h-1.987v2Zm5.96 0h1.986V7h-1.987v2Zm5.959 0h1.986V7h-1.986v2Zm5.959 0h1.986V7h-1.986v2Zm5.959 0h1.986V7h-1.986v2Zm5.959 0h1.987V7h-1.987v2Zm5.959 0h1.987V7h-1.987v2Zm5.96 0h1.986V7h-1.986v2Zm5.959 0h1.986V7h-1.986v2Zm5.959 0h1.986V7h-1.986v2Zm5.959 0h1.987V7h-1.987v2Zm5.959 0h1.987V7h-1.987v2Zm5.96 0h1.986V7h-1.986v2Zm5.959 0h1.986V7h-1.986v2Zm5.959 0h1.986V7h-1.986v2Zm5.959 0h1.986V7h-1.986v2Zm5.959 0h1.987V7h-1.987v2Zm5.959 0h1.987V7h-1.987v2Zm5.96 0h1.986V7h-1.986v2Zm5.959 0h1.986V7h-1.986v2Zm5.959 0h1.986V7h-1.986v2Zm5.959 0h1.987V7h-1.987v2Zm5.959 0h1.987V7h-1.987v2Zm5.96 0h1.986V7h-1.986v2Zm5.959 0h1.986V7h-1.986v2Zm5.959 0h1.986V7h-1.986v2Zm5.959 0h1.987V7h-1.987v2Zm5.959 0h1.987V7h-1.987v2Zm5.959 0h1.987V7h-1.987v2Zm5.96 0h1.986V7h-1.986v2Zm5.959 0h1.986V7h-1.986v2Zm5.959 0h1.986V7h-1.986v2Zm5.959 0h1.987V7h-1.987v2Zm5.959 0h1.987V7h-1.987v2Zm5.96 0h1.986V7h-1.986v2Zm5.959 0H293V7h-.993v2Z"/><path stroke="#3D4046" stroke-width="2" d="M293.987 15 301 8l-7.013-7"/></svg>