<svg width="470" height="255" viewBox="0 0 470 255" fill="none" xmlns="http://www.w3.org/2000/svg">
<g clip-path="url(#clip0_2_12)">
<g filter="url(#filter0_d_2_12)">
<rect width="470" height="275" fill="#0071CE"/>
</g>
<g opacity="0.15">
<path d="M77.9412 64.8819C81.8397 64.8819 85 68.0422 85 71.9407C85 75.8392 81.8397 78.9995 77.9412 78.9995C74.0427 78.9995 70.8824 75.8392 70.8824 71.9407C70.8824 68.0422 74.0427 64.8819 77.9412 64.8819Z" fill="white"/>
<path d="M52.0588 90.7642C55.9573 90.7642 59.1176 93.9246 59.1176 97.8231C59.1176 101.722 55.9573 104.882 52.0588 104.882C48.1603 104.882 45 101.722 45 97.8231C45 93.9246 48.1603 90.7642 52.0588 90.7642Z" fill="white"/>
<path d="M77.9412 117.647C81.2874 117.647 84 120.36 84 123.706C84 127.052 81.2874 129.765 77.9412 129.765C74.595 129.765 71.8824 127.052 71.8824 123.706C71.8824 120.36 74.595 117.647 77.9412 117.647ZM77.9412 91.7647C81.2874 91.7647 84 94.4773 84 97.8235C84 101.17 81.2874 103.882 77.9412 103.882C74.595 103.882 71.8823 101.17 71.8823 97.8235C71.8823 94.4773 74.595 91.7647 77.9412 91.7647ZM52.0588 65.8824C55.405 65.8824 58.1176 68.595 58.1176 71.9412C58.1176 75.2874 55.405 78 52.0588 78C48.7126 78 46 75.2874 46 71.9412C46 68.595 48.7126 65.8824 52.0588 65.8824ZM52.0588 40C55.405 40 58.1176 42.7126 58.1176 46.0588C58.1176 49.405 55.405 52.1176 52.0588 52.1176C48.7126 52.1176 46 49.405 46 46.0588C46 42.7126 48.7126 40 52.0588 40Z" stroke="white" stroke-width="2"/>
</g>
<path d="M247.884 97.9666H241.997L231.392 120.146L220.787 97.9666H214.9L229.329 128.139H233.454L247.884 97.9666Z" fill="white"/>
<path d="M174.459 88.0909V101.354C172.125 99.2568 169.211 97.8665 166.075 97.3528C162.939 96.8391 159.717 97.2244 156.803 98.4615C153.889 99.6985 151.409 101.734 149.668 104.318C147.927 106.902 147 109.923 147 113.011C147 116.099 147.927 119.12 149.668 121.704C151.409 124.288 153.889 126.323 156.803 127.56C159.717 128.797 162.939 129.182 166.075 128.669C169.211 128.155 172.125 126.765 174.459 124.668V128.139H179.797V88.0909H174.459ZM163.444 123.707C161.265 123.708 159.136 123.08 157.324 121.905C155.512 120.73 154.1 119.06 153.266 117.105C152.432 115.151 152.214 113 152.639 110.925C153.063 108.851 154.112 106.945 155.653 105.449C157.194 103.953 159.156 102.934 161.293 102.521C163.43 102.108 165.645 102.32 167.658 103.129C169.671 103.939 171.392 105.309 172.602 107.068C173.813 108.827 174.459 110.895 174.459 113.011C174.456 115.846 173.295 118.565 171.23 120.57C169.165 122.575 166.365 123.704 163.444 123.707Z" fill="white"/>
<path d="M273.816 97.9663V101.355C271.482 99.2579 268.568 97.8672 265.432 97.3532C262.296 96.8392 259.073 97.2242 256.159 98.4612C253.245 99.6981 250.765 101.733 249.024 104.317C247.283 106.902 246.355 109.923 246.355 113.011C246.355 116.099 247.283 119.12 249.024 121.704C250.765 124.288 253.245 126.324 256.159 127.561C259.073 128.797 262.296 129.183 265.432 128.669C268.568 128.155 271.482 126.764 273.816 124.667V128.139H279.154V97.9663H273.816ZM262.798 123.707C260.619 123.707 258.489 123.079 256.678 121.904C254.867 120.728 253.455 119.057 252.622 117.103C251.789 115.149 251.571 112.998 251.996 110.923C252.421 108.849 253.471 106.943 255.011 105.447C256.552 103.952 258.515 102.933 260.652 102.521C262.788 102.108 265.003 102.32 267.016 103.129C269.029 103.939 270.749 105.31 271.96 107.069C273.17 108.827 273.816 110.895 273.816 113.011C273.813 115.847 272.651 118.566 270.585 120.572C268.52 122.577 265.719 123.705 262.798 123.707Z" fill="white"/>
<path d="M300.364 97.9393C296.276 97.9498 292.343 99.4571 289.349 102.16V97.9663H284.012V128.139H289.349V113.817C289.352 110.981 290.514 108.263 292.579 106.258C294.644 104.253 297.444 103.125 300.364 103.122H302.296V97.9393H300.364Z" fill="white"/>
<path d="M311.984 112.32V103.122H322.996V97.9393H311.984V88.0909H306.647V112.32C306.652 116.53 308.376 120.566 311.442 123.543C314.508 126.519 318.664 128.194 323 128.198V123.016C320.08 123.013 317.28 121.885 315.214 119.88C313.149 117.875 311.988 115.156 311.984 112.32Z" fill="white"/>
<path d="M216.189 113.011C216.238 109.06 214.787 105.231 212.113 102.254C209.438 99.2766 205.729 97.3597 201.692 96.8692C197.654 96.3788 193.573 97.349 190.225 99.5948C186.878 101.841 184.5 105.205 183.545 109.045C182.59 112.885 183.124 116.932 185.047 120.413C186.97 123.895 190.145 126.567 193.968 127.919C197.791 129.272 201.993 129.21 205.772 127.746C209.55 126.282 212.642 123.518 214.455 119.982H208.121C206.81 121.47 205.102 122.578 203.185 123.184C201.268 123.79 199.216 123.872 197.255 123.419C195.293 122.966 193.498 121.997 192.067 120.618C190.636 119.239 189.625 117.503 189.144 115.602L189.131 115.291H216.189V113.011ZM189.144 110.419C189.74 108.104 191.116 106.05 193.053 104.581C194.99 103.113 197.377 102.315 199.835 102.315C202.292 102.315 204.679 103.113 206.616 104.581C208.553 106.05 209.929 108.104 210.525 110.419H189.144Z" fill="white"/>
<path d="M146.503 164.842C148.791 164.842 150.624 165.377 152.003 166.448C153.396 167.504 154.093 169.469 154.093 172.344C154.093 175.145 153.396 177.125 152.003 178.284C150.624 179.428 148.945 180 146.965 180H143.335V164.842H146.503ZM145.425 178.35H147.119C148.527 178.35 149.671 177.917 150.551 177.052C151.431 176.187 151.871 174.617 151.871 172.344C151.871 170.745 151.643 169.521 151.189 168.67C150.734 167.805 150.155 167.233 149.451 166.954C148.747 166.661 147.918 166.514 146.965 166.514H145.425V178.35ZM157.383 180V168.406H159.407V180H157.383ZM158.373 162.84C158.798 162.84 159.143 162.972 159.407 163.236C159.671 163.5 159.803 163.83 159.803 164.226C159.803 164.622 159.671 164.952 159.407 165.216C159.143 165.465 158.798 165.59 158.373 165.59C157.962 165.59 157.625 165.465 157.361 165.216C157.097 164.952 156.965 164.622 156.965 164.226C156.965 163.83 157.097 163.5 157.361 163.236C157.625 162.972 157.962 162.84 158.373 162.84ZM166.738 168.142C167.53 168.142 168.241 168.252 168.872 168.472C169.503 168.692 170.104 169.022 170.676 169.462L169.796 170.804C169.283 170.437 168.784 170.173 168.3 170.012C167.831 169.836 167.332 169.748 166.804 169.748C166.144 169.748 165.623 169.887 165.242 170.166C164.861 170.43 164.67 170.797 164.67 171.266C164.67 171.735 164.846 172.102 165.198 172.366C165.565 172.63 166.217 172.887 167.156 173.136C168.447 173.459 169.407 173.899 170.038 174.456C170.683 175.013 171.006 175.776 171.006 176.744C171.006 177.888 170.559 178.761 169.664 179.362C168.784 179.963 167.706 180.264 166.43 180.264C164.67 180.264 163.211 179.758 162.052 178.746L163.174 177.47C164.083 178.247 165.154 178.636 166.386 178.636C167.134 178.636 167.735 178.482 168.19 178.174C168.645 177.866 168.872 177.455 168.872 176.942C168.872 176.531 168.791 176.201 168.63 175.952C168.469 175.688 168.19 175.468 167.794 175.292C167.413 175.101 166.833 174.903 166.056 174.698C164.824 174.375 163.929 173.943 163.372 173.4C162.829 172.843 162.558 172.146 162.558 171.31C162.558 170.709 162.734 170.166 163.086 169.682C163.453 169.198 163.951 168.824 164.582 168.56C165.227 168.281 165.946 168.142 166.738 168.142ZM178.085 168.142C178.775 168.142 179.405 168.245 179.977 168.45C180.549 168.641 181.099 168.956 181.627 169.396L180.637 170.716C180.241 170.408 179.853 170.181 179.471 170.034C179.09 169.887 178.657 169.814 178.173 169.814C177.235 169.814 176.501 170.188 175.973 170.936C175.46 171.684 175.203 172.791 175.203 174.258C175.203 175.725 175.46 176.81 175.973 177.514C176.487 178.203 177.22 178.548 178.173 178.548C178.643 178.548 179.061 178.475 179.427 178.328C179.809 178.181 180.219 177.939 180.659 177.602L181.627 178.988C180.571 179.839 179.391 180.264 178.085 180.264C176.516 180.264 175.277 179.736 174.367 178.68C173.473 177.624 173.025 176.165 173.025 174.302C173.025 173.07 173.231 171.992 173.641 171.068C174.052 170.144 174.631 169.425 175.379 168.912C176.142 168.399 177.044 168.142 178.085 168.142ZM188.509 168.142C190.137 168.142 191.398 168.685 192.293 169.77C193.202 170.855 193.657 172.329 193.657 174.192C193.657 175.395 193.451 176.458 193.041 177.382C192.63 178.291 192.036 179.003 191.259 179.516C190.481 180.015 189.557 180.264 188.487 180.264C186.859 180.264 185.59 179.721 184.681 178.636C183.771 177.551 183.317 176.077 183.317 174.214C183.317 173.011 183.522 171.955 183.933 171.046C184.343 170.122 184.937 169.411 185.715 168.912C186.492 168.399 187.423 168.142 188.509 168.142ZM188.509 169.77C186.499 169.77 185.495 171.251 185.495 174.214C185.495 177.162 186.492 178.636 188.487 178.636C190.481 178.636 191.479 177.155 191.479 174.192C191.479 171.244 190.489 169.77 188.509 169.77ZM203.886 180L203.732 178.196C203.292 178.915 202.786 179.443 202.214 179.78C201.642 180.103 200.945 180.264 200.124 180.264C199.112 180.264 198.32 179.956 197.748 179.34C197.176 178.724 196.89 177.851 196.89 176.722V168.406H198.914V176.502C198.914 177.294 199.053 177.859 199.332 178.196C199.611 178.519 200.065 178.68 200.696 178.68C201.825 178.68 202.793 178.013 203.6 176.678V168.406H205.624V180H203.886ZM215.261 168.142C216.317 168.142 217.138 168.457 217.725 169.088C218.326 169.719 218.627 170.584 218.627 171.684V180H216.603V171.97C216.603 171.149 216.449 170.569 216.141 170.232C215.833 169.895 215.378 169.726 214.777 169.726C214.161 169.726 213.618 169.902 213.149 170.254C212.68 170.606 212.24 171.112 211.829 171.772V180H209.805V168.406H211.543L211.719 170.122C212.13 169.506 212.636 169.022 213.237 168.67C213.853 168.318 214.528 168.142 215.261 168.142ZM228.547 179.472C227.785 180 226.919 180.264 225.951 180.264C224.969 180.264 224.199 179.985 223.641 179.428C223.099 178.856 222.827 178.035 222.827 176.964V169.968H220.803V168.406H222.827V165.788L224.851 165.546V168.406H227.601L227.381 169.968H224.851V176.876C224.851 177.477 224.954 177.917 225.159 178.196C225.379 178.46 225.739 178.592 226.237 178.592C226.721 178.592 227.235 178.423 227.777 178.086L228.547 179.472ZM240.559 164.842C242.436 164.842 243.888 165.238 244.915 166.03C245.942 166.807 246.455 167.973 246.455 169.528C246.455 171.185 245.92 172.417 244.849 173.224C243.778 174.031 242.356 174.434 240.581 174.434H238.667V180H236.577V164.842H240.559ZM240.493 172.784C241.71 172.784 242.634 172.549 243.265 172.08C243.91 171.611 244.233 170.767 244.233 169.55C244.233 168.465 243.91 167.68 243.265 167.196C242.634 166.712 241.725 166.47 240.537 166.47H238.667V172.784H240.493ZM254.288 168.142C254.699 168.142 255.08 168.186 255.432 168.274L255.058 170.254C254.706 170.166 254.369 170.122 254.046 170.122C253.327 170.122 252.748 170.386 252.308 170.914C251.868 171.442 251.523 172.263 251.274 173.378V180H249.25V168.406H250.988L251.186 170.76C251.494 169.895 251.912 169.242 252.44 168.802C252.968 168.362 253.584 168.142 254.288 168.142ZM261.878 168.142C263.506 168.142 264.767 168.685 265.662 169.77C266.571 170.855 267.026 172.329 267.026 174.192C267.026 175.395 266.82 176.458 266.41 177.382C265.999 178.291 265.405 179.003 264.628 179.516C263.85 180.015 262.926 180.264 261.856 180.264C260.228 180.264 258.959 179.721 258.05 178.636C257.14 177.551 256.686 176.077 256.686 174.214C256.686 173.011 256.891 171.955 257.302 171.046C257.712 170.122 258.306 169.411 259.084 168.912C259.861 168.399 260.792 168.142 261.878 168.142ZM261.878 169.77C259.868 169.77 258.864 171.251 258.864 174.214C258.864 177.162 259.861 178.636 261.856 178.636C263.85 178.636 264.848 177.155 264.848 174.192C264.848 171.244 263.858 169.77 261.878 169.77ZM279.719 168.934C279.279 169.081 278.795 169.176 278.267 169.22C277.739 169.264 277.094 169.286 276.331 169.286C277.695 169.902 278.377 170.877 278.377 172.212C278.377 173.371 277.981 174.317 277.189 175.05C276.397 175.783 275.319 176.15 273.955 176.15C273.427 176.15 272.936 176.077 272.481 175.93C272.305 176.047 272.166 176.209 272.063 176.414C271.961 176.605 271.909 176.803 271.909 177.008C271.909 177.639 272.415 177.954 273.427 177.954H275.275C276.053 177.954 276.742 178.093 277.343 178.372C277.945 178.651 278.407 179.032 278.729 179.516C279.067 180 279.235 180.55 279.235 181.166C279.235 182.295 278.773 183.161 277.849 183.762C276.925 184.378 275.576 184.686 273.801 184.686C272.555 184.686 271.565 184.554 270.831 184.29C270.113 184.041 269.599 183.659 269.291 183.146C268.983 182.633 268.829 181.973 268.829 181.166H270.655C270.655 181.635 270.743 182.002 270.919 182.266C271.095 182.545 271.411 182.75 271.865 182.882C272.32 183.029 272.965 183.102 273.801 183.102C275.019 183.102 275.884 182.948 276.397 182.64C276.925 182.347 277.189 181.899 277.189 181.298C277.189 180.755 276.984 180.345 276.573 180.066C276.163 179.787 275.591 179.648 274.857 179.648H273.031C272.049 179.648 271.301 179.443 270.787 179.032C270.289 178.607 270.039 178.079 270.039 177.448C270.039 177.067 270.149 176.7 270.369 176.348C270.589 175.996 270.905 175.681 271.315 175.402C270.641 175.05 270.142 174.617 269.819 174.104C269.511 173.576 269.357 172.938 269.357 172.19C269.357 171.413 269.548 170.716 269.929 170.1C270.325 169.484 270.861 169.007 271.535 168.67C272.225 168.318 272.987 168.142 273.823 168.142C274.733 168.157 275.495 168.127 276.111 168.054C276.727 167.966 277.233 167.856 277.629 167.724C278.04 167.577 278.539 167.372 279.125 167.108L279.719 168.934ZM273.823 169.594C273.061 169.594 272.467 169.836 272.041 170.32C271.631 170.789 271.425 171.413 271.425 172.19C271.425 172.982 271.638 173.62 272.063 174.104C272.489 174.573 273.09 174.808 273.867 174.808C274.659 174.808 275.261 174.581 275.671 174.126C276.097 173.657 276.309 173.004 276.309 172.168C276.309 170.452 275.481 169.594 273.823 169.594ZM286.837 168.142C287.248 168.142 287.629 168.186 287.981 168.274L287.607 170.254C287.255 170.166 286.918 170.122 286.595 170.122C285.876 170.122 285.297 170.386 284.857 170.914C284.417 171.442 284.072 172.263 283.823 173.378V180H281.799V168.406H283.537L283.735 170.76C284.043 169.895 284.461 169.242 284.989 168.802C285.517 168.362 286.133 168.142 286.837 168.142ZM297.666 177.294C297.666 177.763 297.746 178.115 297.908 178.35C298.069 178.57 298.311 178.739 298.634 178.856L298.172 180.264C297.57 180.191 297.086 180.022 296.72 179.758C296.353 179.494 296.082 179.083 295.906 178.526C295.128 179.685 293.977 180.264 292.452 180.264C291.308 180.264 290.406 179.941 289.746 179.296C289.086 178.651 288.756 177.807 288.756 176.766C288.756 175.534 289.196 174.588 290.076 173.928C290.97 173.268 292.232 172.938 293.86 172.938H295.642V172.08C295.642 171.259 295.444 170.672 295.048 170.32C294.652 169.968 294.043 169.792 293.222 169.792C292.371 169.792 291.33 169.997 290.098 170.408L289.592 168.934C291.029 168.406 292.364 168.142 293.596 168.142C294.96 168.142 295.979 168.479 296.654 169.154C297.328 169.814 297.666 170.76 297.666 171.992V177.294ZM292.914 178.746C294.072 178.746 294.982 178.145 295.642 176.942V174.28H294.124C291.982 174.28 290.912 175.072 290.912 176.656C290.912 177.345 291.08 177.866 291.418 178.218C291.755 178.57 292.254 178.746 292.914 178.746ZM313.46 168.142C314.414 168.142 315.176 168.465 315.748 169.11C316.32 169.741 316.606 170.599 316.606 171.684V180H314.582V171.97C314.582 170.474 314.04 169.726 312.954 169.726C312.382 169.726 311.898 169.895 311.502 170.232C311.106 170.555 310.681 171.068 310.226 171.772V180H308.202V171.97C308.202 170.474 307.66 169.726 306.574 169.726C305.988 169.726 305.496 169.895 305.1 170.232C304.704 170.569 304.286 171.083 303.846 171.772V180H301.822V168.406H303.56L303.736 170.1C304.602 168.795 305.716 168.142 307.08 168.142C307.799 168.142 308.408 168.325 308.906 168.692C309.42 169.059 309.786 169.572 310.006 170.232C310.461 169.557 310.96 169.044 311.502 168.692C312.06 168.325 312.712 168.142 313.46 168.142ZM323.832 168.142C324.624 168.142 325.335 168.252 325.966 168.472C326.596 168.692 327.198 169.022 327.77 169.462L326.89 170.804C326.376 170.437 325.878 170.173 325.394 170.012C324.924 169.836 324.426 169.748 323.898 169.748C323.238 169.748 322.717 169.887 322.336 170.166C321.954 170.43 321.764 170.797 321.764 171.266C321.764 171.735 321.94 172.102 322.292 172.366C322.658 172.63 323.311 172.887 324.25 173.136C325.54 173.459 326.501 173.899 327.132 174.456C327.777 175.013 328.1 175.776 328.1 176.744C328.1 177.888 327.652 178.761 326.758 179.362C325.878 179.963 324.8 180.264 323.524 180.264C321.764 180.264 320.304 179.758 319.146 178.746L320.268 177.47C321.177 178.247 322.248 178.636 323.48 178.636C324.228 178.636 324.829 178.482 325.284 178.174C325.738 177.866 325.966 177.455 325.966 176.942C325.966 176.531 325.885 176.201 325.724 175.952C325.562 175.688 325.284 175.468 324.888 175.292C324.506 175.101 323.927 174.903 323.15 174.698C321.918 174.375 321.023 173.943 320.466 173.4C319.923 172.843 319.652 172.146 319.652 171.31C319.652 170.709 319.828 170.166 320.18 169.682C320.546 169.198 321.045 168.824 321.676 168.56C322.321 168.281 323.04 168.142 323.832 168.142Z" fill="white"/>
<g opacity="0.15">
<path d="M427.883 206.941C427.883 210.84 424.723 214 420.824 214C416.926 214 413.766 210.84 413.766 206.941C413.766 203.043 416.926 199.882 420.824 199.882C424.723 199.882 427.883 203.043 427.883 206.941Z" fill="white"/>
<path d="M402.001 181.059C402.001 184.957 398.841 188.118 394.942 188.118C391.044 188.118 387.883 184.957 387.883 181.059C387.883 177.16 391.044 174 394.942 174C398.841 174 402.001 177.16 402.001 181.059Z" fill="white"/>
<path d="M375.118 181.059C375.118 184.405 372.405 187.118 369.059 187.118C365.713 187.118 363 184.405 363 181.059C363 177.713 365.713 175 369.059 175C372.405 175 375.118 177.713 375.118 181.059ZM401 206.941C401 210.287 398.287 213 394.941 213C391.595 213 388.882 210.287 388.882 206.941C388.882 203.595 391.595 200.882 394.941 200.882C398.287 200.882 401 203.595 401 206.941ZM426.882 181.059C426.882 184.405 424.17 187.118 420.824 187.118C417.477 187.118 414.765 184.405 414.765 181.059C414.765 177.713 417.477 175 420.824 175C424.17 175 426.882 177.713 426.882 181.059Z" stroke="white" stroke-width="2"/>
</g>
<g opacity="0.05">
<path d="M290.821 136.588C290.821 115.829 307.65 99 328.409 99C349.168 99 365.997 115.829 365.997 136.588C365.997 157.348 349.168 174.176 328.409 174.176C307.65 174.176 290.821 157.348 290.821 136.588Z" fill="white"/>
<path d="M428.644 274.412C428.644 253.652 445.473 236.824 466.233 236.824C486.992 236.824 503.821 253.652 503.821 274.412C503.821 295.171 486.992 312 466.233 312C445.473 312 428.644 295.171 428.644 274.412Z" fill="white"/>
<path d="M570.47 136.588C570.47 118.038 585.508 103 604.059 103C622.609 103 637.647 118.038 637.647 136.588C637.647 155.139 622.609 170.176 604.059 170.176C585.508 170.176 570.47 155.139 570.47 136.588ZM432.647 136.588C432.647 118.038 447.685 103 466.235 103C484.785 103 499.823 118.038 499.823 136.588C499.823 155.139 484.785 170.176 466.235 170.176C447.685 170.177 432.647 155.139 432.647 136.588ZM294.823 274.412C294.823 255.862 309.861 240.824 328.412 240.824C346.962 240.824 362 255.862 362 274.412C362 292.962 346.962 308 328.412 308C309.861 308 294.823 292.962 294.823 274.412ZM157 274.412C157 255.862 172.038 240.824 190.588 240.824C209.138 240.824 224.176 255.862 224.176 274.412C224.176 292.962 209.138 308 190.588 308C172.038 308 157 292.962 157 274.412Z" stroke="white" stroke-width="8"/>
</g>
<g opacity="0.05">
<path d="M-38.1793 -110.412C-38.1793 -131.171 -21.3504 -148 -0.59101 -148C20.1684 -148 36.9972 -131.171 36.9972 -110.412C36.9972 -89.6523 20.1684 -72.8235 -0.591003 -72.8235C-21.3504 -72.8235 -38.1793 -89.6523 -38.1793 -110.412Z" fill="white"/>
<path d="M99.6443 27.4118C99.6443 6.65237 116.473 -10.1765 137.233 -10.1765C157.992 -10.1765 174.821 6.65236 174.821 27.4118C174.821 48.1712 157.992 65 137.233 65C116.473 65 99.6443 48.1712 99.6443 27.4118Z" fill="white"/>
<path d="M241.47 -110.412C241.47 -128.962 256.508 -144 275.059 -144C293.609 -144 308.647 -128.962 308.647 -110.412C308.647 -91.8615 293.609 -76.8235 275.059 -76.8235C256.508 -76.8235 241.47 -91.8615 241.47 -110.412ZM103.647 -110.412C103.647 -128.962 118.685 -144 137.235 -144C155.785 -144 170.823 -128.962 170.823 -110.412C170.823 -91.8615 155.785 -76.8235 137.235 -76.8235C118.685 -76.8235 103.647 -91.8615 103.647 -110.412ZM-34.1766 27.4118C-34.1766 8.86153 -19.1386 -6.17644 -0.588385 -6.17644C17.9619 -6.17644 32.9999 8.86152 32.9999 27.4118C32.9999 45.9621 17.9619 61 -0.588379 61C-19.1386 61 -34.1766 45.9621 -34.1766 27.4118ZM-172 27.4118C-172 8.86154 -156.962 -6.17643 -138.412 -6.17643C-119.862 -6.17643 -104.824 8.86153 -104.824 27.4118C-104.824 45.9621 -119.862 61 -138.412 61C-156.962 61 -172 45.9621 -172 27.4118Z" stroke="white" stroke-width="8"/>
</g>
</g>
<defs>
<filter id="filter0_d_2_12" x="-40" y="-20" width="550" height="355" filterUnits="userSpaceOnUse" color-interpolation-filters="sRGB">
<feFlood flood-opacity="0" result="BackgroundImageFix"/>
<feColorMatrix in="SourceAlpha" type="matrix" values="0 0 0 0 0 0 0 0 0 0 0 0 0 0 0 0 0 0 127 0" result="hardAlpha"/>
<feOffset dy="20"/>
<feGaussianBlur stdDeviation="20"/>
<feColorMatrix type="matrix" values="0 0 0 0 0.7 0 0 0 0 0.7 0 0 0 0 0.7 0 0 0 0.25 0"/>
<feBlend mode="normal" in2="BackgroundImageFix" result="effect1_dropShadow_2_12"/>
<feBlend mode="normal" in="SourceGraphic" in2="effect1_dropShadow_2_12" result="shape"/>
</filter>
<clipPath id="clip0_2_12">
<rect width="470" height="255" fill="white"/>
</clipPath>
</defs>
</svg>
