<svg width="38" height="38" viewBox="0 0 38 38" fill="none" xmlns="http://www.w3.org/2000/svg"><path fill-rule="evenodd" clip-rule="evenodd" d="m19.994 33.902 9.451-9.452 2.309 5.874L12.215 38 4.603 18.623l15.391 15.28ZM17.974 0H3.166v14.967l16.823 16.7 14.844-14.844L17.973 0Zm6.373 15.004c-.657-.657-1.37-.977-2.182-.977-.915 0-1.943.381-3.438 1.273-1.08.649-1.77.924-2.305.924-.571 0-1.715-.646-1.521-1.928.082-.546.395-1.104.905-1.615 1.033-1.03 2.445-1.343 3.604-.168l1.178-1.178c-.754-.754-1.735-1.254-2.788-1.254-.896 0-1.782.36-2.633 1.072l-.992-.993-1.105 1.107 1.034 1.032c-.9 1.308-1.333 3.2.12 4.652 1.601 1.6 3.465.857 5.404-.367.95-.6 1.715-.892 2.336-.892.932 0 1.868.789 1.707 1.992-.083.611-.412 1.208-.984 1.777-.714.714-1.43 1.075-2.132 1.075-.662 0-1.183-.304-1.661-.732l-1.17 1.17c.733.726 1.713 1.193 2.747 1.193.861 0 1.72-.319 2.552-.946l.855.852 1.104-1.103-.824-.825c1.177-1.419 1.832-3.498.189-5.141ZM9.023 3.167a2.69 2.69 0 1 1-.001 5.381 2.69 2.69 0 0 1 .001-5.381Z" fill="#0071CE"/></svg>
