<svg xmlns="http://www.w3.org/2000/svg" width="24" height="24" fill="none" viewBox="0 0 24 24"><g fill="#fff" clip-path="url(#a)"><path fill-rule="evenodd" d="M0 4.05C0 .93 5.453 0 9.436 0c3.797 0 9.421.929 9.421 4.05v5.112a5.607 5.607 0 0 0-1.95-.194.833.833 0 0 0 .064-.318V6.447C14.976 7.693 12.104 8.1 9.436 8.1c-2.676 0-5.554-.407-7.55-1.653V8.65c0 1.493 4.32 2.427 7.55 2.427 1.087 0 2.521-.13 3.847-.39a5.602 5.602 0 0 0-1.27 2.11c-.855.097-1.726.138-2.577.138-2.676 0-5.555-.408-7.55-1.653v2.195c0 1.497 4.333 2.427 7.55 2.428.707 0 1.553-.054 2.42-.163.14.652.394 1.26.74 1.806-1.042.15-2.117.213-3.16.213-2.676 0-5.554-.407-7.55-1.653v1.894c0 1.497 4.333 2.428 7.55 2.428.206 0 .424-.005.651-.014a9.99 9.99 0 0 0-.829 1.87C5.664 22.255 0 21.306 0 18.235V4.05Zm16.971 0c0-1.349-4.105-2.193-7.535-2.193-3.013 0-7.55.722-7.55 2.192 0 1.353 4.333 2.194 7.55 2.193 2.723 0 7.535-.724 7.535-2.192Z" clip-rule="evenodd"/><path d="M20.334 18.545a4.965 4.965 0 0 1-6.005 0c-2.262.995-3.663 4.097-3.663 5.455H24c0-1.346-1.445-4.448-3.666-5.455ZM17.333 17.945a3.39 3.39 0 1 0 0-6.778 3.39 3.39 0 0 0 0 6.778Z"/></g><defs><clipPath id="a"><path fill="#fff" d="M0 0h24v24H0z"/></clipPath></defs></svg>