<svg xmlns="http://www.w3.org/2000/svg" width="24" height="24" fill="none" viewBox="0 0 24 24"><g fill="#fff"><path fill-rule="evenodd" d="M9.508 0C5.494 0 0 .96 0 4.18v14.64C0 22.042 5.899 23 9.508 23c.416 0 .863-.013 1.328-.04l-3.823-2.043C4.395 20.58 1.9 19.747 1.9 18.578v-1.955c1.394.892 3.216 1.367 5.1 1.575v-1.953c-2.613-.339-5.1-1.17-5.1-2.337v-2.265c2.01 1.285 4.912 1.706 7.608 1.706 1.871 0 3.836-.204 5.533-.758l1.186-.468c.306-.145.598-.304.873-.48v1.055l1.9.685V4.179C19 .96 13.333 0 9.508 0Zm0 1.917c3.456 0 7.592.87 7.592 2.262 0 1.515-4.849 2.263-7.592 2.263-3.242 0-7.608-.867-7.608-2.263 0-1.518 4.571-2.262 7.608-2.262Zm0 9.514c-3.255 0-7.608-.964-7.608-2.505V6.654C3.911 7.94 6.812 8.36 9.508 8.36c2.687 0 5.582-.42 7.592-1.706v2.273c0 1.68-4.874 2.504-7.592 2.504Z" clip-rule="evenodd"/><path d="M18 17v-1.999L24 18v2l-6 3v-2l4-2-4-2ZM9 20v-2l6-2.999V17l-4 2 4 2v2l-6-3Z"/></g></svg>