<svg width="24" height="24" viewBox="0 0 24 24" fill="none" xmlns="http://www.w3.org/2000/svg"><path d="M5.428 6c6.018 0 8.414 10 13.143 10 2.114 0 3.48-1.578 3.48-4 0-2.422-1.366-4-3.48-4-1.665 0-2.861 1.069-4.017 2.395L13.31 8.833C14.809 7.301 16.359 6 18.57 6 21.768 6 24 8.455 24 12s-2.232 6-5.43 6C12.567 18 10.164 8 5.428 8c-2.113 0-3.479 1.578-3.479 4 0 2.422 1.365 4 3.479 4 1.664 0 2.86-1.068 4.015-2.392l1.244 1.561C9.188 16.7 7.637 18 5.428 18 2.231 18 0 15.545 0 12s2.231-6 5.428-6Z" fill="#fff"/></svg>
