<svg xmlns="http://www.w3.org/2000/svg" width="210" height="70" fill="none" viewBox="0 0 210 70"><path fill="#231F20" fill-rule="evenodd" d="M23.369 37h-2.25L15 52.974h2.272l1.844-4.89h6.075l1.71 4.89h2.272L23.369 37Zm-1.17 2.625h.044l2.295 6.618H19.77l2.43-6.618ZM192.148 44.975v-2.074h.951c.521 0 .794.208.794.584 0 .198-.052.302-.261.458l.061.104.106.136c.021.042.052.177.062.313l.01.145.011.104.011.074c0 .03.009.06.018.09l.002.003c0 .03.006.04.013.05a.048.048 0 0 1 .008.013h-.314c-.041-.084-.052-.114-.061-.355-.022-.447-.094-.51-.565-.51h-.522v.865h-.324Zm.888-1.814h-.564v.678h.522c.397.01.585-.094.585-.333 0-.23-.167-.345-.543-.345Z" clip-rule="evenodd"/><path fill="#231F20" fill-rule="evenodd" d="M191.019 43.954c0-1.084.889-1.97 1.996-1.97a1.98 1.98 0 0 1 1.985 1.97c0 1.084-.888 1.959-1.985 1.959-1.107 0-1.996-.875-1.996-1.959Zm3.668 0c0-.928-.753-1.668-1.672-1.668a1.67 1.67 0 0 0-1.682 1.668 1.677 1.677 0 0 0 3.354 0Z" clip-rule="evenodd"/><path fill="#231F20" d="M30.14 42.25h1.71v1.347h.045c.675-.875 1.755-1.615 3.015-1.615 1.17 0 2.542.47 3.126 1.862.766-1.055 2.115-1.862 3.263-1.862 1.755 0 3.51.763 3.51 3.904v7.089h-1.845v-7.18c0-1.324-.584-2.108-1.89-2.108-1.147 0-2.677.627-2.677 2.243v7.045h-1.845v-7.18c0-1.324-.585-2.108-1.89-2.108-1.148 0-2.677.627-2.677 2.243v7.045H30.14V42.25Z"/><path fill="#231F20" fill-rule="evenodd" d="M51.107 51.806c-2.116 0-3.24-1.66-3.24-3.791h8.166v-.427c0-3.163-1.642-5.609-5.017-5.609-3.487 0-5.13 2.243-5.13 5.721 0 3.052 1.868 5.61 5.153 5.542 2.384 0 4.206-1.212 4.905-3.612l-1.824-.224c-.404 1.592-1.394 2.4-3.013 2.4Zm-.294-8.391c2.025 0 3.015 1.414 3.24 3.163h-6.187c.113-1.637 1.148-3.163 2.947-3.163Z" clip-rule="evenodd"/><path fill="#231F20" d="M57.115 42.25h1.845v1.84h.045c.876-1.459 1.934-1.975 3.801-1.975v2.019c-.36-.022-.922-.045-1.237-.045-1.778 0-2.61 1.637-2.61 2.872v6.013h-1.844V42.249ZM65.918 52.974h-1.845V42.248h1.845v10.724ZM69.314 49.205c0 1.997 1.575 2.603 3.06 2.603.855 0 2.408-.27 2.408-1.84 0-1.185-1.383-1.451-2.92-1.747-1.928-.37-4.1-.788-4.1-3.122 0-2.176 2.138-3.118 4.05-3.118 1.462 0 4.612.74 4.612 3.5l-1.845.246c0-1.57-1.282-2.31-2.678-2.31-.989 0-2.294.291-2.294 1.593 0 1.043 1.326 1.317 2.836 1.629 1.998.412 4.318.891 4.318 3.306 0 2.267-2.317 3.3-4.657 3.3-2.362 0-4.522-1.078-4.77-3.793l1.98-.247Z"/><path fill="#231F20" fill-rule="evenodd" d="M88.101 47.612c0-3.252-1.98-5.63-5.265-5.63-3.284 0-5.263 2.378-5.263 5.63 0 3.253 1.98 5.633 5.263 5.633 3.285 0 5.265-2.38 5.265-5.633Zm-1.98 0c0 1.774-.63 4.196-3.285 4.196-2.653 0-3.284-2.422-3.284-4.196 0-1.771.63-4.195 3.284-4.195 2.655 0 3.285 2.424 3.285 4.195Z" clip-rule="evenodd"/><path fill="#231F20" d="M98.022 52.975h-1.845V51.54h-.044c-.698 1.076-1.755 1.705-3.15 1.705-2.16 0-3.802-.942-3.802-3.927v-7.067h1.845v7.067c0 1.526.944 2.222 2.272 2.222 1.709 0 2.879-1.1 2.879-2.828V42.25h1.845v10.725ZM101.596 42.25h-1.844v10.724h1.844v-6.013c0-1.234.833-2.871 2.61-2.871.316 0 .878.022 1.238.044v-2.019c-1.867 0-2.925.517-3.802 1.975h-.046v-1.84ZM113.679 45.794c-.271-1.458-1.373-2.378-2.858-2.378-2.608 0-3.352 2.266-3.352 4.218 0 2.086.878 4.173 3.308 4.173 1.822 0 3.013-1.077 3.081-2.894l1.98.156c-.314 2.603-2.295 4.175-4.995 4.175-3.463 0-5.353-2.245-5.353-5.52 0-3.32 1.867-5.744 5.331-5.744 2.25 0 4.32 1.167 4.837 3.612l-1.979.202Z"/><path fill="#231F20" fill-rule="evenodd" d="M121.733 51.806c-2.114 0-3.239-1.66-3.239-3.791h8.166v-.427c0-3.163-1.643-5.609-5.018-5.609-3.486 0-5.129 2.243-5.129 5.721 0 3.052 1.867 5.61 5.153 5.542 2.384 0 4.206-1.212 4.904-3.612l-1.822-.224c-.406 1.592-1.395 2.4-3.015 2.4Zm-.292-8.391c2.024 0 3.015 1.414 3.24 3.163h-6.187c.111-1.637 1.147-3.163 2.947-3.163ZM127.919 37h7.492c3.891 0 5.084 2.244 5.084 4.15 0 1.639-1.012 2.963-2.34 3.367v.044c1.958.472 2.813 2.087 2.813 4.061 0 1.212-.586 4.352-4.86 4.352h-8.189V37Zm2.114 14.134h5.693c1.709-.021 2.947-.807 2.947-2.602 0-2.781-1.89-2.916-3.712-2.916h-4.928v5.518Zm0-7.357h4.882c1.732 0 3.286-.427 3.286-2.537 0-2.4-1.71-2.4-3.307-2.4h-4.861v4.937ZM147.064 51.806c-2.115 0-3.24-1.66-3.24-3.791h8.167v-.427c0-3.163-1.643-5.609-5.017-5.609-3.487 0-5.13 2.243-5.13 5.721 0 3.052 1.868 5.61 5.152 5.542 2.386 0 4.208-1.212 4.905-3.612l-1.823-.224c-.404 1.592-1.394 2.4-3.014 2.4Zm-.292-8.391c2.025 0 3.014 1.414 3.239 3.163h-6.187c.114-1.637 1.148-3.163 2.948-3.163Z" clip-rule="evenodd"/><path fill="#231F20" d="M153.072 42.25h1.844v1.84h.045c.878-1.458 1.936-1.975 3.803-1.975v2.02c-.36-.023-.923-.045-1.238-.045-1.777 0-2.61 1.637-2.61 2.871v6.013h-1.844V42.25Z"/><path fill="#231F20" fill-rule="evenodd" d="M169.267 42.25h-1.844v1.48l-.046-.022c-.629-1.033-1.911-1.728-3.644-1.728-3.375 0-4.926 2.514-4.926 5.632 0 4.555 3.036 5.632 4.903 5.632 1.576 0 2.655-.629 3.667-1.93h.046v1.525c0 1.526-.046 3.725-3.172 3.725-1.598 0-2.993-.763-2.948-2.492h-1.979c.157 2.828 2.384 3.928 4.994 3.928 4.634 0 4.949-3.32 4.949-4.936V42.25Zm-5.309 9.422c-2.138 0-3.307-1.817-3.307-4.06 0-2.76 1.418-4.061 3.307-4.061 2.025 0 3.398 1.032 3.465 3.994.045 2.175-1.328 4.127-3.465 4.127ZM172.194 48.015c0 2.131 1.125 3.79 3.239 3.79 1.62 0 2.609-.807 3.015-2.399l1.822.224c-.698 2.4-2.52 3.612-4.905 3.612-3.285.068-5.152-2.49-5.152-5.542 0-3.478 1.643-5.72 5.129-5.72 3.375 0 5.018 2.445 5.018 5.608v.427h-8.166Zm6.186-1.437c-.224-1.75-1.215-3.163-3.239-3.163-1.8 0-2.835 1.526-2.947 3.163h6.186Z" clip-rule="evenodd"/><path fill="#231F20" d="M183.284 42.25h-1.846v10.725h1.846v-6.462c0-1.727 1.169-2.826 2.879-2.826 1.305 0 2.272.56 2.272 2.4v6.888h1.845v-7.068c0-2.983-1.641-3.925-3.803-3.925-1.394 0-2.451.627-3.148 1.705h-.045V42.25Z"/><path fill="#00529B" d="M54.87 11.824C51.72 13.147 50 15.533 50 15.533c.277-.043.55-.208.825-.376.196-.119.394-.24.597-.317 4.99-1.934 8.772-1.26 13.273 2.496 3.692 3.39 5.057 8.497 3.82 13.474-.602 2.135-1.636 4.168-3.13 5.885 4.898-2.798 7.627-7.977 7.097-13.647-.475-4.256-3.525-8.603-7.356-10.43l-.11-.057c-1.463-.764-5.049-2.635-10.146-.737Z"/><path fill="#00529B" d="M65.368 36.951c4.278-1.244 8.36-5.328 9.425-9.674 1.263-4.906-.015-9.97-3.822-13.331H77V36.95H65.368ZM64.388 36.951h-10.36c1.232-1.455 2.171-3.895 2.569-6.774a13.888 13.888 0 0 1 7.79 6.774Z"/><path fill="#00529B" d="M56.864 24.017a10.45 10.45 0 0 0-.263-.113l-.032-.013a19.937 19.937 0 0 1 .24 4.015c3.374 1.536 6.213 4.494 7.395 7.927L64.593 37c.157-5.425-2.788-10.674-7.729-12.983Z"/><path fill="#00529B" d="M52.273 16.264c2.731-.408 5.32.14 7.552 1.217 5 2.524 7.8 7.833 7.182 13.502-.288 2.194-.947 4.256-2.212 6.016.574-2.841.488-5.871-.59-8.439-1.364-3.764-4.733-6.88-8.594-8.088-.885-2.218-2.136-3.733-3.338-4.208Z"/></svg>