<svg width="210" height="70" viewBox="0 0 210 70" fill="none" xmlns="http://www.w3.org/2000/svg"><path fill-rule="evenodd" clip-rule="evenodd" d="M78.37 49.085v-12.28c0-1.9-.62-3.527-1.813-4.697-1.194-1.17-2.914-1.809-4.836-1.809-2.635 0-4.742 1.034-6.292 3.055l-.047-2.356v-.152h-7.888v1.338h3.1v16.901H55.06L43.7 17.106 43.669 17h-1.395L31.131 49.085H28v1.338h9.284v-1.338h-4.278l3.084-9.134h9.935l3.13 9.134h-4.324v1.338h23.697v-1.338h-3.1v-9.377c.016-5.594 3.054-7.63 5.1-7.63 1.984 0 2.991 1.261 2.991 3.739v13.268h-2.898v1.338h10.895v-1.338H78.37ZM40.926 25.542l4.65 13.026h-8.99l4.34-13.026Z" fill="#0067A5"/><path d="M94.364 46.517h1.472l-.031.182c-.186 1.003-1.1 4.286-5.502 4.286-3.828 0-5.781-2.25-5.781-6.703V32.2h-3.224v-1.368h3.209v-5.7h.154c1.21 0 3.519-.167 4.65-.288l.17-.015v6.003h4.82v1.353h-4.85v13.877c0 1.99.759 3.01 2.231 3.01 1.891.014 2.48-1.52 2.65-2.433l.032-.121Z" fill="#0067A5"/><path fill-rule="evenodd" clip-rule="evenodd" d="M130.474 30.299c2.635 0 4.882.73 6.494 2.128 1.798 1.55 2.759 3.845 2.867 6.824v.167h-13.127v4.636c.016 3.496 1.736 5.502 4.727 5.502 3.751.015 6.153-2.933 6.51-5.7l.015-.136h1.565l-.03.182c-.496 3.405-3.348 7.083-8.416 7.098-2.635 0-5.099-.988-6.943-2.812-1.938-1.9-2.992-4.53-2.992-7.402.016-2.918 1.039-5.623 2.899-7.584 1.735-1.854 4.076-2.903 6.431-2.903Zm-3.797 7.66h7.533c0-.501 0-2.082-.016-2.082 0-2.736-1.348-4.24-3.766-4.256-.992 0-1.922.365-2.588 1.018-.76.745-1.163 1.87-1.163 3.238v2.082Z" fill="#0067A5"/><path d="M117.316 36.607v12.479h3.162v1.337h-11.19v-1.337h3.053v-12.92c-.015-1.839-.589-4.028-3.301-4.028-1.224 0-2.418.502-3.348 1.414-.961.942-2.107 2.751-2.107 6.034v9.5h3.053v1.337h-11.19v-1.337h3.193V18.49h-2.96V17.09h7.904v16.05c.867-.972 2.913-2.842 6.85-2.842 5.068 0 6.881 3.39 6.881 6.308ZM176.522 49.085h-3.038V35.847c0-3.435-2.402-5.563-6.246-5.563-3.642 0-5.626 1.778-6.54 2.964-1.008-1.946-2.976-2.98-5.688-2.964-2.604 0-4.929.942-6.479 2.584l-.046-1.885v-.152h-8.044v1.338h3.286V49.07h-3.239v1.338h10.942V49.07h-2.79v-9.332c.093-2.72.217-4.469 1.209-5.806.852-1.11 2.216-1.809 3.549-1.809 1.643 0 2.232 1.216 2.294 1.353.418.775.418 2.113.418 3.404v12.19h-2.914v1.338h10.725V49.07h-2.805v-9.332c.093-2.72.217-4.469 1.209-5.806.852-1.11 2.216-1.809 3.549-1.809 1.643 0 2.232 1.216 2.294 1.353.418.775.418 2.112.418 3.404v12.19h-2.898v1.338h10.989V49.07h-.155v.015Z" fill="#0067A5"/><path fill-rule="evenodd" clip-rule="evenodd" d="M179.482 49.298h.387v-1.276h.62l.822 1.276h.418l-.868-1.276c.496-.046.899-.259.899-.806 0-.517-.263-.79-1.023-.79h-1.255v2.872Zm.997-1.61h-.641v-.928h.806c.357 0 .698.061.698.456 0 .484-.474.477-.863.472Z" fill="#0067A5"/><path fill-rule="evenodd" clip-rule="evenodd" d="M180.443 45.362c-1.426 0-2.573 1.14-2.573 2.508 0 1.398 1.147 2.523 2.573 2.523 1.41 0 2.557-1.14 2.557-2.523 0-1.383-1.147-2.508-2.557-2.508Zm0 .41c1.24 0 2.139.882 2.139 2.098 0 1.23-.899 2.112-2.139 2.112-1.256 0-2.155-.881-2.155-2.112 0-1.216.899-2.098 2.155-2.098Z" fill="#0067A5"/></svg>
