<svg width="210" height="70" viewBox="0 0 210 70" fill="none" xmlns="http://www.w3.org/2000/svg"><path d="M103.082 44.807h-3.363l-.96-2.873h-4.952l-.96 2.873h-3.363l4.73-13.434h4.249l4.619 13.434Zm-6.8-10.785-1.773 5.262h3.474l-1.7-5.262Zm13.747 10.785h-3.4V31.373h5.322c3.547 0 5.395 1.642 5.395 4.254 0 1.791-.924 3.172-2.735 3.881l2.956 5.3h-3.362l-2.661-4.516-1.552.112v4.403h.037Zm1.663-6.94c1.441-.113 2.217-.71 2.217-2.016 0-1.194-.813-1.754-2.513-1.754h-1.404v3.806l1.7-.037Zm19.547-2.949c-.997-.597-2.18-.97-3.362-.97-2.291 0-3.769 1.567-3.769 4.105 0 2.537 1.404 4.18 3.806 4.18 1.293 0 2.512-.449 3.51-1.083l.702 3.023c-1.034.597-2.808.97-4.36.97-4.25 0-7.058-2.463-7.058-6.978 0-4.33 2.772-7.09 7.169-7.09 1.626 0 3.178.41 4.397 1.007l-1.035 2.836Zm10.569 10.225c-3.917 0-6.947-2.463-6.947-7.016 0-4.254 3.03-7.053 6.984-7.053s6.947 2.463 6.947 6.979c0 4.254-3.03 7.09-6.984 7.09Zm0-11.345c-2.254 0-3.548 1.717-3.548 4.217 0 2.575 1.331 4.33 3.585 4.33 2.217 0 3.547-1.755 3.547-4.255 0-2.538-1.33-4.292-3.584-4.292Zm19.732-2.425h3.178v13.434h-3.658l-5.506-8.695v8.695h-3.178V31.373h3.658l5.543 8.732v-8.732h-.037Zm6.873 0h3.4v13.434h-3.4V31.373Zm17.552 3.545c-.997-.597-2.18-.97-3.362-.97-2.291 0-3.769 1.567-3.769 4.105 0 2.537 1.404 4.18 3.806 4.18 1.293 0 2.512-.449 3.51-1.083l.702 3.023c-1.034.597-2.808.97-4.36.97-4.25 0-7.058-2.463-7.058-6.978 0-4.33 2.772-7.09 7.169-7.09 1.626 0 3.178.41 4.397 1.007l-1.035 2.836Z" fill="#000"/><path d="m64.748 54.025-11.935-6.94-11.936 6.94a1.168 1.168 0 0 1-1.108 0L27.057 46.6a1.116 1.116 0 0 1-.554-.97V30.814c0-.411.222-.784.554-.97L52.26 15.14a1.168 1.168 0 0 1 1.108 0l25.201 14.703c.333.187.555.56.555.97v14.853c0 .41-.222.746-.555.97l-12.711 7.426c-.333.15-.776.15-1.109-.037Zm-24.425-2.798 9.792-5.71-9.792-5.71-9.792 5.71 9.792 5.71Zm26.31-.784 9.792-5.71v-11.42l-9.792 5.71v11.42Zm-2.66 0v-11.42l-11.16-6.493-9.793 5.71 20.952 12.203ZM29.2 43.129l8.461-4.926-8.461-4.89v9.816Zm11.122-6.494 11.123-6.493v-11.42L30.53 30.925l9.792 5.71Zm24.98 0 9.792-5.71-20.952-12.203v11.42l11.16 6.493Z" fill="#01B0BA"/></svg>
