<svg xmlns="http://www.w3.org/2000/svg" width="210" height="70" fill="none" viewBox="0 0 210 70"><path fill="#095540" fill-rule="evenodd" d="m40.221 30.075-.044.004c-.322.024-1.636.125-2.753.906-.604.422-4.828 3.602-4.828 3.602s-4.225-3.18-4.829-3.602c-1.121-.778-2.43-.88-2.75-.906l-.047-.004c-.23-.02-.278.077-.163.192.02.02.046.04.076.064.2.165.566.465.566 1.277 0 .483-.013 1.767-.026 2.997v.018c-.011 1.129-.022 2.21-.022 2.58 0 2.433 1.734 4.636 3.995 4.636.517 0 2.433-.029 2.433-.029s.498.642.757.642c.25 0 .786-.642.786-.642s1.916.03 2.433.03c2.251 0 3.995-2.204 3.995-4.637 0-.37-.011-1.448-.023-2.575v-.005c-.012-1.236-.025-2.53-.025-3.015 0-.812.365-1.112.566-1.277.03-.024.055-.045.076-.064.105-.115.067-.22-.173-.192ZM29.578 40.316c-2.146 0-2.49-2.175-2.49-2.759v-4.924c0-.22-.03-.374-.183-.45-.105-.048-.124-.22.058-.22L27 31.96c.134-.012.528-.048 1.007.328.47.364.66.824.66 1.341 0 .259-.006 1.025-.014 1.792-.007.766-.014 1.532-.014 1.791 0 .517.412 1.073 1.064 1.073.69 0 1.044-.757 1.044-1.341 0-.613-.355-1.198-.69-1.226-.21-.01-.48.095-.67.249-.144.115-.221.096-.183-.115l.002-.012c.045-.249.307-1.703 1.57-1.703.977 0 1.686 1.188 1.686 2.539 0 1.494-.738 3.64-2.884 3.64Zm-.25-3.334c0-.23.183-.412.413-.412.23 0 .412.182.412.412 0 .23-.182.412-.412.412a.415.415 0 0 1-.412-.412Zm8.968-4.79c-.163.067-.182.22-.182.45v4.925c0 .594-.345 2.759-2.491 2.759s-2.884-2.146-2.884-3.64c0-1.361.719-2.54 1.686-2.54 1.263 0 1.525 1.455 1.57 1.704l.002.011c.038.211-.039.22-.182.115-.183-.143-.46-.258-.671-.249-.335.02-.69.604-.69 1.227 0 .593.355 1.34 1.044 1.34.652 0 1.064-.555 1.064-1.072 0-.175-.003-.58-.008-1.06l-.007-.732c-.007-.766-.014-1.532-.014-1.791 0-.518.192-.977.661-1.341.536-.412.968-.326 1.044-.326.182-.01.173.172.058.22Zm-2.405 4.79a.43.43 0 0 1-.43.431.43.43 0 0 1-.432-.43.43.43 0 0 1 .431-.432.43.43 0 0 1 .431.431Z" clip-rule="evenodd"/><path fill="#095540" d="m32.597 33.496-4.59-3.392 8.948.058-4.358 3.334Z"/><path fill="#095540" fill-rule="evenodd" d="M22.058 23.801c2.769-2.548 6.486-4.081 10.548-4.081 8.593 0 15.577 7.022 15.577 15.663 0 8.632-6.984 15.3-15.577 15.3C23.984 50.682 17 43.678 17 35.037V9h5.058v14.801Zm.01 11.247c0 5.834 4.713 10.557 10.538 10.557 5.796 0 10.509-4.732 10.509-10.557S38.402 24.5 32.605 24.5c-5.824 0-10.537 4.723-10.537 10.548Z" clip-rule="evenodd"/><path fill="#095540" d="M58.933 16.615h-.536v37.046h.536V16.615Z"/><path fill="#095540" fill-rule="evenodd" d="M86.665 34.282c2.241-1.208 3.611-3.583 3.611-6.342 0-3.804-1.695-8.335-9.771-8.335H70.57v31.164h10.222c8.68 0 10.51-4.82 10.51-8.871 0-2.932-1.236-6.39-4.637-7.617Zm-5.423-1.246h-7.415V22.661h7.09c5.192 0 5.862 2.826 5.862 5.288 0 3.372-1.867 5.087-5.537 5.087Zm6.563 8.861c0 2.5-.69 5.825-6.64 5.825h-7.338v-11.64h7.415c4.723 0 6.563 1.63 6.563 5.816ZM102.933 29.435c-7.913 0-8.832 6.207-8.832 10.873 0 4.665.91 10.873 8.832 10.873 2.731 0 4.963-.412 6.85-1.245l.144-.058v-2.96l-.326.144c-1.945.833-3.688 1.13-6.658 1.13-4.464 0-5.307-3.152-5.48-6.323h13.489v-1.542c-.01-5.528-.623-10.892-8.019-10.892Zm-5.489 9.618c.144-3.468.958-6.61 5.489-6.61 4.244 0 4.666 2.845 4.675 6.61H97.444Z" clip-rule="evenodd"/><path fill="#095540" d="m183.471 46.132 5.556-16.296h3.785L180.846 61h-3.583l4.723-10.998-7.865-20.166h3.784l5.566 16.296ZM151.743 46.774V19.615h-3.248V46.45c0 3.228 1.504 4.732 4.733 4.732h.23v-2.797h-.23c-1.169 0-1.485-.355-1.485-1.61Z"/><path fill="#095540" fill-rule="evenodd" d="M156.438 40.308c0-4.666.91-10.873 8.823-10.873 7.386 0 8.009 5.364 8.018 10.892v1.542h-13.488c.172 3.171 1.015 6.323 5.479 6.323 2.98 0 4.714-.297 6.658-1.13l.326-.144v2.96l-.144.058c-1.887.833-4.119 1.245-6.849 1.245-7.913 0-8.823-6.208-8.823-10.873Zm8.823-7.865c-4.522 0-5.346 3.142-5.49 6.61h10.165c-.01-3.765-.431-6.61-4.675-6.61Z" clip-rule="evenodd"/><path fill="#095540" d="M145.707 29.836h-4.522l-8.919 8.843V19.605h-3.257v31.164h3.257v-8.067l2.318-2.213 7.971 10.28h4.167l-10.078-12.244 9.063-8.689ZM117.12 31.427c1.849-1.293 4.129-1.992 6.476-1.992 1.045 0 1.811.095 2.491.21l.201.03v3.19l-.306-.106c-.633-.21-1.437-.316-2.386-.316-2.471 0-4.138.354-5.7 1.216v17.12h-3.334V29.846h1.993l.565 1.581Z"/></svg>