<svg width="210" height="70" viewBox="0 0 210 70" fill="none" xmlns="http://www.w3.org/2000/svg"><path d="M33 42.247h3.08v-5.904h5.503v5.904h3.08V28h-3.08v5.63H36.08V28H33v14.247Z" fill="#231F20"/><path fill-rule="evenodd" clip-rule="evenodd" d="M46.407 37.234c0 3.258 2.129 5.242 5.254 5.242 1.403 0 2.56-.296 3.374-.89v-2.348h-.114c-.95.594-1.72.82-2.784.82-1.223 0-2.446-.41-2.809-1.98h6.432v-1.141c0-3.032-1.495-5.061-4.506-5.061-2.763 0-4.847 2.188-4.847 5.358ZM52.997 36h-3.669c.272-1.39 1.064-1.778 1.97-1.778 1.201 0 1.63.73 1.7 1.778Z" fill="#231F20"/><path d="m63.798 36.275-1.585 5.972h-2.694l-3.08-10.03v-.114h2.944l1.675 5.995 1.586-5.995h2.4l1.608 5.995 1.699-5.995h2.831v.114l-3.08 10.03h-2.696l-1.608-5.972ZM72.743 39.194c0 2.302.997 3.282 3.442 3.282.453 0 .884-.092 1.133-.182v-2.485h-.046c-.18.069-.476.137-.68.137-.588 0-.86-.25-.86-.958V28.001h-2.989v11.193Z" fill="#231F20"/><path fill-rule="evenodd" clip-rule="evenodd" d="M83.41 42.476c-3.125 0-5.254-1.984-5.254-5.242 0-3.17 2.084-5.358 4.846-5.358 3.012 0 4.507 2.029 4.507 5.061v1.14h-6.432c.362 1.572 1.586 1.982 2.808 1.982 1.065 0 1.834-.227 2.786-.821h.114v2.348c-.816.594-1.97.89-3.375.89ZM81.077 36h3.67c-.07-1.047-.499-1.778-1.7-1.778-.905 0-1.698.388-1.97 1.778Z" fill="#231F20"/><path d="M102.002 32.104h-2.22v-2.78h-2.989v2.78h-3.827v-2.78h-2.989v2.78h-1.54v2.416h1.54v4.263c0 2.576.951 3.692 3.375 3.692.86 0 1.449-.158 1.834-.295v-2.371h-.068c-.34.114-.657.138-.907.138-.905 0-1.245-.411-1.245-1.3V34.52h3.827v4.263c0 2.576.951 3.692 3.375 3.692.86 0 1.449-.158 1.834-.295v-2.371h-.068a2.82 2.82 0 0 1-.906.138c-.906 0-1.245-.411-1.245-1.3V34.52h2.219v-2.416Z" fill="#231F20"/><path fill-rule="evenodd" clip-rule="evenodd" d="M117.51 32.833c0 3.101-2.061 4.787-5.187 4.787h-2.197v4.627h-3.078V28h5.275c3.126 0 5.187 1.687 5.187 4.833Zm-5.436 2.165c1.564 0 2.31-.888 2.31-2.165 0-1.323-.746-2.212-2.31-2.212h-1.948v4.377h1.948ZM121.494 42.43c1.044 0 2.016-.387 2.673-1.185v1.003h2.899v-6.36c0-2.553-1.653-4.012-4.688-4.012-1.335 0-2.695.388-3.464.843v2.417h.112a5.725 5.725 0 0 1 2.832-.774c1.607 0 2.218.478 2.218 1.573v.18a7.912 7.912 0 0 0-2.242-.34c-2.309 0-3.918 1.321-3.918 3.304 0 2.145 1.609 3.352 3.578 3.352Zm2.582-4.24v.866c-.271.753-.906 1.187-1.743 1.187-.883 0-1.472-.365-1.472-1.21 0-.82.589-1.184 1.562-1.184.613 0 1.2.092 1.653.341Z" fill="#231F20"/><path d="M128.583 37.188c0-3.26 2.288-5.312 5.278-5.312 1.064 0 2.059.228 2.807.774v2.577h-.114c-.657-.502-1.426-.798-2.309-.798-1.495 0-2.627 1.027-2.627 2.759s1.132 2.735 2.627 2.735c.883 0 1.652-.297 2.309-.799h.114V41.7c-.748.548-1.743.776-2.807.776-2.99 0-5.278-2.028-5.278-5.288ZM141.536 42.247v-4.604l2.989 4.604h3.42v-.114l-3.623-5.311 3.623-4.605v-.114h-3.396l-3.013 4.012V28h-2.988v14.247h2.988Z" fill="#231F20"/><path fill-rule="evenodd" clip-rule="evenodd" d="M154.739 41.245c-.657.798-1.631 1.186-2.672 1.186-1.971 0-3.578-1.207-3.578-3.352 0-1.983 1.607-3.305 3.919-3.305.724 0 1.47.114 2.24.341v-.18c0-1.095-.611-1.573-2.219-1.573a5.724 5.724 0 0 0-2.831.774h-.113V32.72c.77-.455 2.129-.843 3.464-.843 3.037 0 4.689 1.459 4.689 4.012v6.36h-2.899v-1.003Zm-.091-2.189v-.866c-.452-.25-1.042-.34-1.653-.34-.973 0-1.562.363-1.562 1.184 0 .844.589 1.209 1.471 1.209.839 0 1.473-.434 1.744-1.187Z" fill="#231F20"/><path d="M165.112 31.989c-1.11 0-1.904.638-2.447 1.755v-1.641h-2.898v10.144h2.988v-5.836c.25-1.048.975-1.596 1.903-1.596.566 0 .973.091 1.313.229h.112v-2.872c-.157-.092-.564-.183-.971-.183Z" fill="#231F20"/><path fill-rule="evenodd" clip-rule="evenodd" d="M174.1 41.2c-.633.82-1.63 1.276-2.988 1.276-2.582 0-4.235-2.37-4.235-5.288 0-2.919 1.653-5.312 4.235-5.312 1.313 0 2.264.41 2.899 1.163V28H177v14.247h-2.9V41.2Zm-.089-2.395v-3.26c-.498-.73-1.154-1.048-1.903-1.048-1.312 0-2.196.959-2.196 2.69 0 1.733.884 2.667 2.196 2.667.749 0 1.405-.32 1.903-1.048Z" fill="#231F20"/><path d="M41.742 46.9H33v14.247h8.742v-1.732H34.97v-4.741h6.137v-1.688H34.97v-4.353h6.772V46.9ZM48.965 50.912c2.241 0 3.487 1.482 3.487 3.92v6.315h-1.88v-6.269c0-1.3-.656-2.234-2.083-2.234a2.621 2.621 0 0 0-2.513 1.823v6.68h-1.88v-10.03h1.88v1.459c.588-.935 1.585-1.664 2.989-1.664ZM60.062 51.117h-2.558V48.45h-1.88v2.666h-1.721v1.618h1.721v5.585c0 1.96.928 3.032 3.26 3.032.521 0 .907-.092 1.178-.206v-1.618h-.068c-.227.092-.544.137-.838.137-1.064 0-1.652-.388-1.652-1.527v-5.403h2.558v-1.618Z" fill="#231F20"/><path fill-rule="evenodd" clip-rule="evenodd" d="M66.177 61.352c-2.922 0-4.915-1.961-4.915-5.107s1.857-5.334 4.552-5.334c2.74 0 4.167 1.984 4.167 4.924v.867h-6.84c.204 2.028 1.496 3.008 3.285 3.008 1.11 0 1.901-.25 2.785-.912h.068v1.665c-.815.638-1.88.889-3.102.889ZM63.21 55.15h4.96c-.068-1.48-.794-2.62-2.333-2.62-1.427 0-2.356 1.071-2.627 2.62Z" fill="#231F20"/><path d="M76.548 50.958c-1.086 0-2.038.638-2.468 1.71v-1.55H72.2v10.029h1.88v-6.542c.317-1.14 1.178-1.824 2.196-1.824.453 0 .906.07 1.178.205h.068v-1.869c-.158-.091-.543-.159-.974-.159Z" fill="#231F20"/><path fill-rule="evenodd" clip-rule="evenodd" d="M83.908 50.912c2.966 0 4.551 2.44 4.551 5.22 0 2.782-1.585 5.22-4.551 5.22-1.224 0-2.265-.637-2.786-1.323V65h-1.88V51.117h1.88v1.14c.52-.707 1.562-1.345 2.786-1.345Zm-.318 8.73c1.857 0 2.945-1.481 2.945-3.51 0-2.006-1.088-3.51-2.945-3.51-1.019 0-1.97.615-2.468 1.594v3.854c.498.98 1.45 1.572 2.468 1.572Z" fill="#231F20"/><path d="M95.026 50.958c-1.086 0-2.038.638-2.468 1.71v-1.55H90.68v10.029h1.88v-6.542c.317-1.14 1.177-1.824 2.196-1.824.453 0 .906.07 1.177.205H96v-1.869c-.158-.091-.543-.159-.974-.159ZM98.718 47.059c.657 0 1.2.524 1.2 1.185 0 .662-.543 1.186-1.2 1.186-.634 0-1.201-.524-1.201-1.186 0-.661.567-1.185 1.2-1.185ZM99.67 61.146h-1.88v-10.03h1.88v10.03ZM106.373 55.288c1.426.455 3.01 1.048 3.01 2.963 0 2.052-1.675 3.1-3.826 3.1-1.314 0-2.627-.319-3.375-.911v-1.801h.091c.839.774 2.084 1.116 3.261 1.116 1.064 0 2.016-.41 2.016-1.276 0-.835-.698-1.067-2.077-1.526l-.128-.042-.151-.05c-1.404-.456-2.966-.981-2.966-2.872 0-1.939 1.585-3.078 3.601-3.078 1.177 0 2.219.25 3.057.82v1.825h-.068a4.507 4.507 0 0 0-2.944-1.05c-1.178 0-1.835.525-1.835 1.232 0 .789.708 1.02 2.279 1.532l.055.018Z" fill="#231F20"/><path fill-rule="evenodd" clip-rule="evenodd" d="M111.015 56.245c0 3.146 1.992 5.107 4.913 5.107 1.224 0 2.289-.251 3.103-.889v-1.665h-.068c-.883.662-1.675.912-2.786.912-1.788 0-3.079-.98-3.283-3.008h6.839v-.867c0-2.94-1.425-4.924-4.167-4.924-2.694 0-4.551 2.188-4.551 5.334Zm6.906-1.095h-4.959c.272-1.549 1.2-2.62 2.627-2.62 1.54 0 2.265 1.14 2.332 2.62Z" fill="#231F20"/><path d="M78.937 15.955H36.063V8.047h42.874v7.908ZM82 5H33v14h49V5Z" fill="#00B188"/></svg>
