<svg width="210" height="70" viewBox="0 0 210 70" fill="none" xmlns="http://www.w3.org/2000/svg"><path d="M134.331 23h5.219v23h-5.219V23ZM55.551 44.848c-.768.763-2.24 1.143-4.404 1.143h-9.592c-2.174 0-3.647-.376-4.408-1.136C36.386 44.096 36 42.667 36 40.56V35.79l5.257-1.024v6.91h10.222V23.004h5.23v17.547c0 2.107-.39 3.533-1.158 4.296ZM150.976 23.005V46H173v-4.324h-16.804v-18.67h-5.22Z" fill="#000"/><path fill-rule="evenodd" clip-rule="evenodd" d="M120.257 34.129c1.29.173 2.284.644 2.984 1.415.695.769 1.042 1.771 1.041 3.007v2.935c0 1.522-.534 2.653-1.634 3.394-1.1.74-2.756 1.111-4.981 1.111H99.892V34.116L87.85 37.321l4.835 8.67h-5.845l-3.85-7.364-13.662 3.635v-.017l-.009.017-1.956 3.729h-5.187l12.66-22.983h5.02l5.885 10.554h14.152V23.008h19.176c1.775-.002 3.058.354 3.849 1.066.791.712 1.186 1.846 1.186 3.4v2.796c0 1.094-.33 1.968-.99 2.63-.66.66-1.616 1.072-2.856 1.229Zm-43.095-6.655-3.225 6.07 6.364.004-3.14-6.074Zm39.729-.718h-11.875v5.456h11.865c.905 0 1.523-.131 1.868-.37.344-.239.525-.666.525-1.276V28.4c0-.585-.181-1.011-.514-1.261-.341-.256-.963-.383-1.869-.383Zm2.018 14.652c.347-.306.527-.84.527-1.615l-.007-.007v-1.742c0-.769-.181-1.304-.527-1.602-.346-.298-1.021-.45-2.018-.45h-11.868v5.872h11.875c.999 0 1.672-.15 2.018-.456Z" fill="#000"/></svg>
