<svg width="210" height="70" viewBox="0 0 210 70" fill="none" xmlns="http://www.w3.org/2000/svg"><path d="M33.956 23H23.492v.892h3.334v17.232c0 5.179-1.448 6.653-4.683 6.653a2.188 2.188 0 0 1-1.758-.607 2.151 2.151 0 0 1-.639-1.735c0-1.883-.112-3.035-1.835-3.035-1.724 0-1.911 1.747-1.911 2.28 0 2.378 1.061 4.187 5.819 4.187 5.669 0 8.74-1.895 8.74-8.201V23.88h3.447l-.05-.88ZM35.367 44.865a1.95 1.95 0 0 0-1.46.583 1.97 1.97 0 0 0-.6 1.449 1.844 1.844 0 0 0 .6 1.412 2.012 2.012 0 0 0 1.46.595 2.074 2.074 0 0 0 1.474-.595 1.859 1.859 0 0 0 .599-1.412 1.992 1.992 0 0 0-.601-1.453 2.025 2.025 0 0 0-1.472-.579ZM58.618 44.865a2.026 2.026 0 0 0-1.46.584 1.992 1.992 0 0 0-.588 1.448 1.836 1.836 0 0 0 .637 1.412 2.05 2.05 0 0 0 1.46.595 2.026 2.026 0 0 0 1.474-.595 1.822 1.822 0 0 0 .612-1.412 1.944 1.944 0 0 0-.6-1.45 2.035 2.035 0 0 0-1.485-.582M51.325 23H41.061v.892h3.01v19.66a5.792 5.792 0 0 1-.275 2.391 2.07 2.07 0 0 1-1.249 1.152 6.2 6.2 0 0 1-2.11.322v.818h11.038v-.805a7.37 7.37 0 0 1-2.11-.297 2.163 2.163 0 0 1-1.249-1.153 3.69 3.69 0 0 1-.274-1.61v-6.74h2.734c7.93 0 10.152-3.109 10.152-7.346 0-4.236-1.373-7.284-9.403-7.284Zm-1.41 13.627h-2.086V24.003l1.886-.024c6.118 0 7.492 2.477 7.492 6.54 0 4.064-2.398 6.195-7.255 6.195M93.419 45.882a5.55 5.55 0 0 1-.225-1.722V23.892l2.722-.024v-.806h-6.568c-.087.236-7.78 19.215-7.78 19.215a.174.174 0 0 1-.162.111.19.19 0 0 1-.187-.111s-8.191-18.98-8.279-19.215h-7.217v.805h3.122v21.309a2.712 2.712 0 0 1-.425 1.238c-.292.386-.698.671-1.161.818-.48.134-.976.2-1.474.198v.818h7.155v-.805c-.424 0-.846-.067-1.248-.199a2.249 2.249 0 0 1-1.25-.805 2.773 2.773 0 0 1-.436-1.239l-.075-1.771V26.53h.425s9.327 21.47 9.327 21.705h.774l8.829-21.52h.224v17.345a6.074 6.074 0 0 1-.224 1.771 2.04 2.04 0 0 1-1.087 1.177 5.643 5.643 0 0 1-1.823.31v.817h9.99v-.817a5.46 5.46 0 0 1-1.848-.335 1.998 1.998 0 0 1-1.112-1.239M106.867 29.751c-5.332 0-8.741 3.506-8.741 9.638 0 8.982 7.055 9.577 8.566 9.577 3.022 0 8.741-1.858 8.741-9.738 0-6.194-3.659-9.477-8.604-9.477h.038Zm-.038 18.1c-4.02 0-4.645-1.982-4.645-8.362 0-4.956.312-8.672 4.645-8.672 4.658 0 4.683 3.828 4.683 8.312 0 6.455-1.111 8.672-4.683 8.672M129.431 30.024c-3.197 0-4.183 1.87-5.07 3.779h-.25s-.462-2.763-.624-3.593h-6.243v.941h3.346v12.513c.061.89-.08 1.784-.412 2.614-.337.62-1.111.929-2.373.929h-.549v1.102h10.364v-1.102h-.487c-1.361 0-1.948-.297-2.31-.88a5.245 5.245 0 0 1-.474-2.663v-6.541c0-2.18 1.648-4.67 3.633-4.67 1.986 0 2.023 3.17 4.383 1.895 1.249-.694 1.062-4.324-2.909-4.324M170.675 46.389c-1.099 0-1.461-.62-1.536-1.635v-9.861a4.638 4.638 0 0 0-1.249-3.717c-.961-.954-2.797-1.45-5.469-1.45a9.477 9.477 0 0 0-5.682 1.388c-.502.301-.917.726-1.204 1.235a3.327 3.327 0 0 0-.431 1.664 1.44 1.44 0 0 0 .449 1.239c.315.27.721.411 1.136.396 1.024 0 1.599-.52 1.823-1.858a3.467 3.467 0 0 1 .812-2.118 3.281 3.281 0 0 1 2.498-.83 3.22 3.22 0 0 1 2.734 1.04c.516.782.769 1.706.724 2.639v3.023c-3.321.297-11.15.916-10.801 6.838a4.729 4.729 0 0 0 1.558 3.123 4.802 4.802 0 0 0 3.287 1.225 8.208 8.208 0 0 0 3.362-.838 8.147 8.147 0 0 0 2.707-2.147 3.412 3.412 0 0 0 1.245 2.028 3.464 3.464 0 0 0 2.276.734c2.41 0 3.859-1.176 4.021-4.1h-.624c-.163 1.239-.949 1.957-1.611 1.957l-.025.025Zm-5.395-1.933a.147.147 0 0 1 0 .137l-.075.074c-1.773 1.598-3.134 2.168-4.12 2.168a2.87 2.87 0 0 1-2.188-.91 2.798 2.798 0 0 1-.734-2.237c0-3.357 4.645-5.042 7.18-5.042l-.063 5.81ZM191.915 46.253a4.673 4.673 0 0 1-.65-2.676v-8.176a6.301 6.301 0 0 0-.611-3.023 4.486 4.486 0 0 0-1.874-1.821 6.14 6.14 0 0 0-2.734-.595 6.407 6.407 0 0 0-3.462.891 6.334 6.334 0 0 0-2.432 2.603h-.337l-.649-3.27h-5.582v.94h2.822v12.389a7.867 7.867 0 0 1-.212 2.118 1.644 1.644 0 0 1-1.049 1.153 4.566 4.566 0 0 1-1.561.26v1.14h8.953v-1.153a2.323 2.323 0 0 1-1.836-.768 4.684 4.684 0 0 1-.499-2.552v-4.707c0-1.995 0-3.928.674-5.117a4.028 4.028 0 0 1 1.527-1.495 4.068 4.068 0 0 1 2.082-.512c.493-.063.995.02 1.44.241.444.22.813.568 1.057.998.443 1.36.65 2.784.612 4.212v5.897c0 .991.125 1.71 0 2.18a1.794 1.794 0 0 1-.786 1.24 3.08 3.08 0 0 1-1.436.37v1.153H194v-1.14c-1.086-.074-1.798-.334-2.11-.842M151.383 29.02a1.762 1.762 0 0 0-1.074 1.412c-.138.732-.425 1.166-.799 1.24a2.14 2.14 0 0 1-1.249-.087 8.296 8.296 0 0 0-5.832-1.895 6.801 6.801 0 0 0-5.225 1.838 6.686 6.686 0 0 0-2.079 5.1c0 3.802 1.473 5.648 4.72 6.33.199 0 .199.247 0 .285-2.722.495-5.22 1.3-5.22 3.914a2.95 2.95 0 0 0 .549 1.793c.374.522.909.91 1.524 1.106 1.722.589 3.536.87 5.357.83 1.985 0 3.396.087 4.308.198a5.017 5.017 0 0 1 2.347.806 2.46 2.46 0 0 1 .899 2.081 3.231 3.231 0 0 1-.55 1.73 3.28 3.28 0 0 1-1.398 1.169 10.205 10.205 0 0 1-4.907 1.016 8.117 8.117 0 0 1-4.495-.991 2.394 2.394 0 0 1-.888-1.146 2.375 2.375 0 0 1-.061-1.444 1.443 1.443 0 0 0-.119-1.204 1.462 1.462 0 0 0-.992-.703 1.621 1.621 0 0 0-1.549.693 2.87 2.87 0 0 0-.399 1.648c.025.829.329 1.625.863 2.262a3.75 3.75 0 0 0 2.083 1.256c1.614.513 3.301.76 4.995.731a12.89 12.89 0 0 0 5.682-1.053 6.393 6.393 0 0 0 2.859-2.477 6.155 6.155 0 0 0 .799-2.936 5.26 5.26 0 0 0-.849-3.135c-1.798-2.477-4.358-2.143-10.114-2.416-2.76 0-3.297-.495-3.297-1.337 0-1.24 1.024-1.735 4.995-2.342s7.617-2.044 7.617-6.814a7.883 7.883 0 0 0-.724-3.382c.744.2 1.528.2 2.272 0a2.588 2.588 0 0 0 1.611-1.238 1.94 1.94 0 0 0 .312-1.685c-.337-1.066-.974-1.45-1.96-1.152h-.012Zm-8.891 13.145c-2.348 0-3.746-.843-3.746-5.6 0-3.357 1.174-5.847 3.746-5.847 2.947 0 3.746 2.267 3.746 5.773 0 4.955-1.586 5.674-3.746 5.674Z" fill="#503629"/></svg>
