<svg xmlns="http://www.w3.org/2000/svg" width="210" height="70" fill="none" viewBox="0 0 210 70"><path fill="#005488" fill-rule="evenodd" d="M99.501 55.31c.36.586.698.9 1.328 1.014v.405h-1.958l-2.587-4.368H94.64v2.425c-.004.856-.007 1.474.9 1.538h.248v.405h-3.442v-.405h.157c.337-.023.675-.068.855-.428.119-.298.116-.788.113-1.147v-5.377c.007-.832.012-1.428-.9-1.47l-.225-.022v-.383h4.634c1.35 0 2.79.473 2.79 2.387a2.36 2.36 0 0 1-2.16 2.387l1.89 3.04Zm-3.127-3.512c.517 0 1.057-.023 1.507-.383.45-.383.698-.968.675-1.553 0-1.532-1.17-1.847-2.25-1.847-.337 0-1.057.045-1.372.248-.27.18-.293.428-.293.766v2.791l1.733-.022Z" clip-rule="evenodd"/><path fill="#005488" d="m109.738 49.93-.36.18c-.945-1.374-1.912-2.05-3.442-2.05-.338 0-.878 0-1.148.248-.27.248-.292.653-.292 1.058v2.094h.787c1.17 0 1.395-.338 1.53-1.666h.405v4.053h-.405c0-.406-.112-.81-.292-1.171-.315-.54-.765-.585-1.26-.585h-.765v2.701c0 .27.022.72.18.946.247.383.832.405 1.192.405 1.8 0 2.858-.855 3.915-2.499l.382.18-1.057 2.905h-6.795v-.405h.113l.063-.01c.296-.04.601-.082.769-.418.12-.279.116-.785.114-1.133l-.001-.094V49.461l.001-.082c.007-.8.011-1.414-.879-1.476l-.18-.023v-.383h6.683l.742 2.432ZM118.647 49.952l-.36.157c-.675-1.216-1.619-2.161-2.924-2.161-.743 0-1.71.45-1.71 1.44 0 1.02.94 1.318 1.632 1.538l.123.039 1.192.315c1.282.36 2.61.788 2.61 2.657 0 1.981-1.643 3.062-3.15 3.062a3.616 3.616 0 0 1-2.497-.923l-.225.698h-.428l-.765-3.107.428-.158c.607 1.486 1.845 2.815 3.352 2.815 1.035 0 2.137-.676 2.137-2.004 0-1.13-.805-1.371-1.577-1.604a9.398 9.398 0 0 1-.132-.04l-1.305-.36a5.8 5.8 0 0 1-1.665-.743 2.208 2.208 0 0 1-.878-1.757c0-.72.315-1.418.855-1.913a2.825 2.825 0 0 1 1.868-.608 3.292 3.292 0 0 1 2.159.72l.135-.495h.405l.72 2.432ZM128.637 49.93l-.383.18c-.945-1.374-1.912-2.05-3.442-2.05-.315 0-.877 0-1.147.248-.293.248-.293.653-.293 1.058v2.094h.788c1.169 0 1.394-.338 1.529-1.666h.405v4.053h-.405c0-.406-.112-.81-.292-1.171-.293-.54-.742-.585-1.26-.585h-.765v2.701c0 .27.023.72.18.946.225.383.81.405 1.193.405 1.799 0 2.857-.855 3.914-2.499l.36.18-1.057 2.905h-6.817v-.405h.112l.063-.01c.296-.04.602-.082.77-.418.119-.279.115-.785.113-1.133l-.001-.08V49.59l.001-.21v-.002c.007-.8.012-1.414-.878-1.476l-.18-.023v-.383h6.682l.81 2.432Z"/><path fill="#005488" fill-rule="evenodd" d="M137.389 54.612c.034.097.066.194.098.29.241.726.459 1.382 1.274 1.422v.405h-3.262v-.405c.382-.045.9-.136.9-.676a3.003 3.003 0 0 0-.18-.743l-.54-1.621h-2.992l-.315 1.013c-.135.36-.225.743-.27 1.148 0 .676.45.81 1.034.879v.405h-3.127v-.405l.113-.023c.562-.158.765-.315 1.057-.923.293-.676.54-1.374.765-2.072l1.957-5.831h1.08l2.408 7.137Zm-1.89-1.936-1.328-4.03-1.282 4.03h2.61ZM147.401 55.31c.36.586.697.9 1.305 1.014v.405h-1.913l-2.61-4.368h-1.642v2.251l-.001.17c-.003.859-.006 1.478.923 1.542h.248v.405h-3.442v-.405h.157c.338-.023.698-.068.855-.428.119-.298.116-.788.113-1.147l-.001-.137v-5.02l.001-.175c.004-.856.007-1.472-.9-1.514l-.225-.023v-.383h4.634c1.35 0 2.79.473 2.79 2.387a2.341 2.341 0 0 1-2.137 2.387l1.845 3.04Zm-3.105-3.512c.517 0 1.057-.023 1.507-.383.45-.383.698-.968.675-1.553 0-1.532-1.17-1.847-2.25-1.847-.337 0-1.08.045-1.372.248-.295.19-.294.4-.293.702v2.855l1.733-.022Z" clip-rule="evenodd"/><path fill="#005488" d="M157.502 50.897h-.36l-.045-.112c-.269-.608-.629-1.419-1.012-1.914-.45-.608-1.17-.946-1.935-.946-.9 0-1.597.45-2.07 1.329-.472.878-.585 1.936-.585 2.927 0 .945.18 2.049.653 2.814a2.676 2.676 0 0 0 2.227 1.283c1.193 0 2.295-.855 2.88-2.048l.495.337c-.765 1.554-2.025 2.387-3.555 2.387-2.407 0-4.095-2.049-4.095-4.84 0-2.59 1.62-4.887 3.915-4.887a3.11 3.11 0 0 1 2.318.968l.247-.63h.383l.539 3.332ZM160.427 49.55l.001-.153c.007-.797.012-1.41-.856-1.472l-.18-.022v-.406h3.285v.406h-.135c-.337.022-.652.067-.832.45-.119.297-.116.769-.113 1.138v2.015h4.185v-1.87l.001-.212c.007-.803.012-1.437-.878-1.499l-.18-.022v-.406h3.262v.406h-.113l-.009.001c-.312.045-.645.092-.801.449-.14.302-.137.783-.135 1.14v5.311c-.004.82-.007 1.456.878 1.52h.18v.405h-3.262v-.405h.112c.315-.023.652-.068.81-.45.119-.299.116-.79.113-1.133v-.002l-.001-.127v-2.566h-4.184v2.666l-.001.07c-.004.82-.007 1.456.878 1.519h.18v.405h-3.285v-.405h.113l.059-.008c.297-.041.603-.084.751-.442.119-.298.115-.79.113-1.133l-.001-.074v-.054l.045-4.976v-.064ZM111.2 42.86H91.964v-1.397l.338-.045c.967-.045 2.002-.225 2.542-1.508.4-.963.391-2.694.384-3.92l-.002-.426V18.34c0-.221.002-.44.003-.654.016-2.775.029-4.931-2.77-5.245l-.472-.045V11h10.551v1.418l-.472.046-.019.001c-1.03.09-2.144.187-2.68 1.485-.433.983-.42 2.636-.409 3.879l.003.511v18.192c0 .901 0 2.477.383 3.22.472 1.08 1.957 1.306 2.812 1.306 4.86 0 8.504-3.918 11.024-8.803l1.058.607-3.038 9.997Z"/><path fill="#005488" fill-rule="evenodd" d="M134.351 41.643c-.945 1.126-2.564 1.644-3.779 1.576-1.823-.045-3.488-1.08-4.05-3.377-2.182 2.161-4.185 3.377-6.975 3.377-2.61 0-5.692-1.778-5.692-5.538 0-3.175 1.575-4.684 3.69-5.854 1.98-1.126 4.117-1.644 6.255-1.914l2.744-.36v-3.378c-.067-1.463-.27-2.68-1.305-3.557-.967-.788-2.227-.991-3.329-.991-1.148 0-3.555.698-3.555 2.477v.608c0 1.553-.473 2.814-1.89 2.814-.9 0-1.755-.878-1.755-2.049 0-1.981 1.71-3.692 3.015-4.39a12.16 12.16 0 0 1 5.242-1.351c1.553-.045 3.6.608 4.972 1.53 2.003 1.352 2.183 3.153 2.183 5.765v9.163c0 1.96.225 4.909 2.047 4.909.562 0 1.08-.338 1.53-.698l.652 1.238Zm-7.829-10.447c-2.812.338-8.91 1.306-8.91 5.944 0 2.387 1.598 3.783 3.375 3.783 2.003 0 4.005-1.486 5.535-3.13v-6.597Z" clip-rule="evenodd"/><path fill="#005488" d="M141.078 36.915c0 2.567.338 4.3 2.633 4.548h.405v1.396h-9.472v-1.396c2.542-.293 2.857-1.869 2.857-4.548v-9.727c0-2.634-.382-4.345-2.722-4.548h-.585v-1.396l5.692-1.035h1.192v3.22c1.643-2.185 4.163-3.693 6.975-3.693 2.385 0 4.05.833 5.13 3.692 1.867-2.049 4.454-3.602 6.794-3.692 1.778-.068 3.443.81 4.343 2.341.832 1.351.899 2.95.899 4.548v10.29c0 2.544.293 4.255 2.813 4.548v1.396h-9.427v-1.396h.292c2.385-.225 2.745-1.779 2.745-4.548v-9.254c0-1.036 0-2.161-.292-3.175-.45-1.418-1.44-2.296-2.633-2.296-1.98 0-3.937 1.486-5.579 3.084v11.641c0 2.77.382 4.3 2.767 4.548h.293v1.396h-9.675v-1.396h.293c2.384-.225 2.744-1.779 2.744-4.548v-9.389c0-2.567-.157-5.336-2.789-5.336-2.16 0-4.275 1.486-5.715 3.084l.022 11.641ZM53.986 33.2l29.496 23.528L53.986 37.59 77.34 56.751 53.986 41.958l17.212 14.77-17.212-10.402 11.092 10.402H37l26.3-45.48 26.302 45.48L53.986 33.2Z"/><path fill="#005488" fill-rule="evenodd" d="M168.504 23.338v-2.837h1.17c.832 0 1.237.316 1.237.833 0 .36-.247.653-.742.766.517.157.697.473.697 1.103v.135h-.562c0-.72-.203-1.036-.788-1.036h-.495v1.036h-.517Zm1.057-2.386h-.54l-.022.9h.495c.562 0 .832-.18.832-.518 0-.292-.247-.382-.765-.382Z" clip-rule="evenodd"/><path fill="#005488" fill-rule="evenodd" d="M167.132 21.965c0 .653.247 1.283.72 1.733.967.946 2.497.946 3.442-.022.945-.968.945-2.5-.022-3.445-.968-.946-2.498-.946-3.443.023l-.112.112-.045.068a2.24 2.24 0 0 0-.54 1.53Zm2.43-2.207c1.215 0 2.205.99 2.182 2.207 0 1.216-.99 2.206-2.205 2.184a2.175 2.175 0 0 1-2.182-2.207c0-1.193.99-2.161 2.205-2.184Z" clip-rule="evenodd"/></svg>