<svg width="210" height="70" viewBox="0 0 210 70" fill="none" xmlns="http://www.w3.org/2000/svg"><path d="m79.545 37.583-.971 2.688h-.081a18.782 18.782 0 0 0-.945-2.635l-5.21-12.783h-5.1v20.373h3.373V32.654c0-.79 0-1.686-.027-2.793-.027-.554-.08-.976-.108-1.292h.081c.162.79.351 1.37.486 1.74l6.262 14.865h2.375l6.208-14.997c.135-.343.27-1.028.405-1.608h.081a185.617 185.617 0 0 0-.162 3.664v12.914h3.59V24.8H84.89l-5.345 12.783Zm13.658-7.037h3.509v14.601h-3.51V30.546Zm1.781-6.168c-.593 0-1.08.211-1.484.58a1.85 1.85 0 0 0-.621 1.424c0 .553.216 1.027.62 1.396.406.37.892.554 1.485.554.594 0 1.107-.21 1.485-.553.405-.37.62-.844.62-1.397 0-.554-.215-1.028-.62-1.424-.351-.369-.864-.58-1.485-.58Zm14.171 6.036a10.018 10.018 0 0 0-1.971-.21c-1.592 0-3.05.342-4.264 1.027-1.215.685-2.187 1.634-2.807 2.82-.648 1.213-.972 2.61-.972 4.217 0 1.397.324 2.636.945 3.77.62 1.106 1.484 2.002 2.645 2.609 1.106.606 2.402.922 3.86.922 1.673 0 3.104-.343 4.237-.975l.027-.026v-3.163l-.135.105a6.08 6.08 0 0 1-1.7.87c-.621.21-1.188.316-1.674.316-1.403 0-2.51-.395-3.293-1.265-.809-.843-1.214-2.003-1.214-3.453 0-1.502.405-2.688 1.241-3.558.837-.87 1.944-1.318 3.293-1.318 1.134 0 2.295.37 3.347 1.107l.135.106v-3.347l-.027-.027c-.459-.184-.972-.395-1.673-.527Zm11.579-.105c-.864 0-1.674.263-2.375.817-.594.474-.999 1.16-1.35 1.976h-.027v-2.556h-3.509v14.601h3.509v-7.459c0-1.265.27-2.319.864-3.083.594-.79 1.349-1.186 2.267-1.186.324 0 .648.079 1.053.132.378.105.648.21.837.342l.134.106v-3.427l-.081-.026c-.242-.158-.728-.237-1.322-.237Zm9.555-.08c-2.456 0-4.427.712-5.803 2.11-1.404 1.396-2.079 3.32-2.079 5.745 0 2.266.702 4.111 2.052 5.456 1.349 1.317 3.185 2.003 5.479 2.003 2.402 0 4.319-.712 5.695-2.135 1.404-1.424 2.078-3.321 2.078-5.667 0-2.32-.647-4.164-1.97-5.508-1.269-1.344-3.131-2.003-5.452-2.003Zm2.807 11.228c-.648.818-1.674 1.213-2.942 1.213-1.269 0-2.294-.395-3.023-1.265-.729-.817-1.08-2.003-1.08-3.506 0-1.555.378-2.74 1.08-3.584.729-.844 1.727-1.265 2.996-1.265 1.241 0 2.213.395 2.915 1.212s1.08 2.003 1.08 3.558c-.054 1.582-.351 2.82-1.026 3.637Zm12.443-4.85c-1.107-.447-1.809-.79-2.132-1.08-.27-.263-.405-.632-.405-1.107 0-.395.162-.79.566-1.054.405-.264.864-.395 1.539-.395.594 0 1.215.105 1.808.263.594.158 1.134.396 1.566.712l.135.105v-3.215l-.081-.026a9.92 9.92 0 0 0-1.593-.449 11.061 11.061 0 0 0-1.727-.158c-1.673 0-3.05.396-4.13 1.265-1.079.817-1.592 1.924-1.592 3.216 0 .685.108 1.291.351 1.792.243.5.594.975 1.079 1.37.486.37 1.188.791 2.16 1.187.809.342 1.43.606 1.808.817.378.21.621.448.81.632.135.211.216.475.216.817 0 .976-.756 1.45-2.295 1.45-.593 0-1.214-.106-1.943-.343a7.577 7.577 0 0 1-1.97-.975l-.135-.105v3.347l.081.026c.513.237 1.133.396 1.889.58.756.132 1.431.237 2.024.237 1.809 0 3.293-.395 4.346-1.265 1.08-.843 1.647-1.924 1.647-3.32 0-.976-.27-1.846-.864-2.505a11.015 11.015 0 0 0-3.158-1.818Zm13.28-6.377c-2.457 0-4.427.711-5.804 2.108-1.376 1.397-2.078 3.321-2.078 5.746 0 2.266.702 4.111 2.051 5.456 1.35 1.317 3.185 2.003 5.48 2.003 2.402 0 4.318-.712 5.695-2.135 1.403-1.424 2.078-3.321 2.078-5.667 0-2.32-.648-4.164-1.97-5.508-1.269-1.344-3.131-2.003-5.452-2.003Zm2.78 11.227c-.648.818-1.674 1.213-2.942 1.213-1.296 0-2.295-.395-3.023-1.265-.729-.817-1.08-2.003-1.08-3.506 0-1.555.378-2.74 1.08-3.584.728-.844 1.727-1.265 2.996-1.265 1.214 0 2.213.395 2.915 1.212.701.817 1.079 2.003 1.079 3.558 0 1.582-.351 2.82-1.025 3.637ZM185 33.366v-2.82h-3.536v-4.322l-.108.026-3.347.975-.081.026v3.295h-5.29V28.7c0-.843.216-1.502.594-1.924.378-.422.945-.633 1.646-.633.486 0 .999.106 1.566.343l.135.08v-2.98l-.081-.026c-.486-.158-1.134-.263-1.971-.263-1.052 0-1.97.237-2.807.633a4.632 4.632 0 0 0-1.916 1.87c-.459.792-.702 1.688-.702 2.716v2.029h-2.456v2.794h2.456v11.807h3.536V33.366h5.29v7.512c0 3.083 1.485 4.638 4.454 4.638.486 0 .999-.079 1.484-.158.513-.105.891-.237 1.107-.342l.027-.027v-2.82l-.135.106a2.31 2.31 0 0 1-.729.316c-.27.079-.513.105-.701.105-.702 0-1.188-.158-1.539-.553-.324-.37-.486-.976-.486-1.872v-6.905H185Z" fill="#737373"/><path d="M22 18h16.546v16.156H22V18Z" fill="#F25022"/><path d="M40.273 18H56.82v16.156H40.273V18Z" fill="#7FBA00"/><path d="M22 35.844h16.546V52H22V35.844Z" fill="#00A4EF"/><path d="M40.273 35.844H56.82V52H40.273V35.844Z" fill="#FFB900"/></svg>
