<svg width="210" height="70" viewBox="0 0 210 70" fill="none" xmlns="http://www.w3.org/2000/svg"><path fill-rule="evenodd" clip-rule="evenodd" d="m58.094 24.68 4.143-.087 4.661.03c6.675 0 8.891 1.567 8.891 8.406v.912c0 7.21-.432 9.66-9.063 9.945l-4.402.086c-.605.028-1.238.028-1.841.028-1.324 0-2.647-.057-3.97-.14-4.23-.315-6.762-1.74-6.964-6.327-.057-1.17-.057-2.337-.057-3.506-.001-7.467.89-9.234 8.602-9.348ZM83.755 39.04h11.99v4.76h-17.83V24.792h5.84v14.248Zm73.138 4.76h-5.84V24.792h5.84V43.8Zm6.113-18.988c-3.263 0-4.858 2.62-4.858 5.852 0 3.231 1.596 5.926 4.858 5.926l12.066-.023c.702 0 1.27.564 1.27 1.26 0 .695-.568 1.26-1.27 1.26h-16.375V43.8l18.996.009c3.338 0 4.843-2.679 4.843-5.982 0-3.306-1.505-5.983-4.843-5.983h-11.989a1.186 1.186 0 0 1-1.192-1.18c0-.652.534-1.107 1.192-1.107h15.999V24.8l-18.697.012Zm21.181-.575c.883 0 1.526.683 1.526 1.557 0 .883-.643 1.568-1.526 1.568-.888 0-1.534-.685-1.534-1.568 0-.874.646-1.557 1.534-1.557V24a1.83 1.83 0 0 0-1.287.524 1.797 1.797 0 0 0-.536 1.271c0 .997.815 1.804 1.823 1.804a1.826 1.826 0 0 0 1.284-.53 1.794 1.794 0 0 0 .529-1.274c0-.476-.192-.933-.532-1.269a1.823 1.823 0 0 0-1.281-.526v.238Z" fill="#000"/><path fill-rule="evenodd" clip-rule="evenodd" d="M183.759 24.969h.578c.251 0 .51.038.51.352 0 .408-.421.36-.709.36h-.379v.195h.455l.58.927h.298l-.614-.927c.36-.009.637-.157.637-.551 0-.333-.183-.532-.719-.532h-.887v2.01h.25v-1.834Zm-53.41 4.44h9.724c.548 0 1.152.028 1.669.17 1.093.314 1.124 1.084 1.152 2.081 0 2.11-.232 2.65-2.965 2.65h-9.58v4.617h9.753c2.446 0 2.534.97 2.534 3.05V43.8h5.926v-3.647c0-2.621-1.467-3.335-3.914-3.648 1.209-.399 2.591-.655 3.338-1.796.719-1.14.806-2.593.806-3.903 0-4.588-1.899-6.013-6.417-6.013h-17.866V43.8h5.84V29.41Zm-13.764 9.642v4.75h5.845V30.737c0-4.526-4.122-5.937-6.369-5.937h-12.14c-2.248 0-6.369 1.41-6.369 5.937V43.8h5.845V32.298c0-1.856 2.024-2.747 3.147-2.747h6.893c1.125 0 3.148.891 3.148 2.747V34.3h-13.188v4.75h13.188ZM29.841 29.41h8.402c2.13 0 3.107.342 3.107 2.593 0 2.08-1.007 2.45-3.021 2.45H29.84v4.617h10.617c5.898 0 6.79-2.366 6.79-7.266 0-5.786-2.186-7.01-7.71-7.01H24v19.006h5.841V29.41Z" fill="#000"/><path fill-rule="evenodd" clip-rule="evenodd" d="m73.5 34.3-8.093 1.114 1.124 2.227-2.623-1.262-1.273 5.195-1.274-5.195-2.623 1.262 1.124-2.227-8.093-1.113 8.093-1.113-1.124-2.228 2.623 1.262 1.275-5.195 1.272 5.195 2.623-1.262-1.124 2.228L73.5 34.3Z" fill="#fff"/></svg>
