<svg width="80" height="80" viewBox="0 0 80 80" fill="none" xmlns="http://www.w3.org/2000/svg">
<path fill-rule="evenodd" clip-rule="evenodd" d="M18 7H54V3.75003C54 2.75546 54.4214 1.80163 55.1716 1.09836C55.9217 0.395092 56.9391 0 58 0C59.0609 0 60.0783 0.395092 60.8284 1.09836C61.5786 1.80163 62 2.75546 62 3.75003V7H72V72H0.00146484V7H10V4.00003C10 2.93916 10.4214 1.92173 11.1716 1.17158C11.9217 0.421431 12.9391 0 14 0C15.0609 0 16.0783 0.421431 16.8284 1.17158C17.5786 1.92173 18 2.93916 18 4.00003V7ZM15.8479 12.7657C15.9484 12.5231 16 12.2631 16 12.0004V4.00003C16 3.46959 15.7893 2.96087 15.4142 2.58579C15.0391 2.21071 14.5304 2 14 2C13.4696 2 12.9609 2.21071 12.5858 2.58579C12.2107 2.96087 12 3.46959 12 4.00003V12.0005C11.9999 12.2631 12.0516 12.5232 12.1521 12.7658C12.2526 13.0084 12.3999 13.2288 12.5855 13.4145C12.7712 13.6002 12.9917 13.7475 13.2343 13.8479C13.4769 13.9484 13.7378 14.0001 14.0004 14C14.263 14.0001 14.523 13.9484 14.7657 13.8479C15.0083 13.7474 15.2287 13.6002 15.4144 13.4145C15.6001 13.2288 15.7474 13.0083 15.8479 12.7657ZM14 16C13.4747 16.0001 12.9545 15.8968 12.4691 15.6958C11.9838 15.4948 11.5428 15.2002 11.1713 14.8287C10.7999 14.4573 10.5052 14.0163 10.3043 13.531C10.1033 13.0456 9.99989 12.5254 10 12.0001V9H2.00146V21H70V9H62V11.2501C62.0001 11.7426 61.8967 12.2302 61.6957 12.6853C61.4947 13.1403 61.2001 13.5537 60.8286 13.9019C60.4572 14.2501 60.0162 14.5264 59.5308 14.7148C59.0455 14.9032 58.5253 15.0001 58 15C57.4747 15.0001 56.9545 14.9032 56.4692 14.7148C55.9838 14.5264 55.5428 14.2502 55.1713 13.9019C54.7999 13.5537 54.5052 13.1403 54.3043 12.6853C54.1033 12.2303 53.9999 11.7426 54 11.2501V9H18V12.0001C18.0001 12.5254 17.8967 13.0456 17.6957 13.5309C17.4947 14.0163 17.2001 14.4573 16.8286 14.8287C16.4572 15.2002 16.0162 15.4948 15.5308 15.6957C15.0455 15.8967 14.5253 16.0001 14 16ZM70 23H2.00146V70H70V23ZM57.1929 12.8503C57.4452 12.9483 57.7197 13.0001 57.9995 13C58.2794 13.0001 58.5547 12.9483 58.807 12.8503C59.0592 12.7524 59.2803 12.612 59.4608 12.4428C59.6409 12.2739 59.7764 12.0805 59.8662 11.8771C59.9559 11.6742 60 11.4613 60 11.2501V3.75003C60 3.32907 59.8228 2.89706 59.4605 2.55743C59.0939 2.2137 58.5706 2 58 2C57.4294 2 56.9061 2.2137 56.5395 2.55743C56.1772 2.89706 56 3.32907 56 3.75003V11.2505C56 11.4617 56.0441 11.6742 56.1337 11.8772C56.2236 12.0805 56.3591 12.274 56.5392 12.4429C56.7196 12.612 56.9407 12.7525 57.1929 12.8503Z" fill="white"/>
<path d="M80 19V80H8V78H78V19H80Z" fill="white"/>
<path d="M23 39.5391V36H29.5867V56H25.6511V39.5391H23Z" fill="#FFD200"/>
<path d="M33.2027 52.1043V49.0864L42.1399 36.2469H46.5949V48.7572H49V52.1043H46.5949V56H42.7686V52.1043H33.2027ZM43.0145 40.3621L37.4117 48.7572H43.0145V40.3621Z" fill="#FFD200"/>
</svg>
