<svg xmlns="http://www.w3.org/2000/svg" width="80" height="80" fill="none" viewBox="0 0 80 80"><path stroke="#FFD200" stroke-miterlimit="10" stroke-width="2" d="M70.3907 40.5193C73.7689 35.4744 75.2213 29.3503 74.4758 23.2947C73.7303 17.2391 70.838 11.6677 66.341 7.62475C61.844 3.5818 56.051 1.34482 50.0477 1.33305C44.0444 1.32129 38.243 3.53556 33.7307 7.56085C29.2183 11.5861 26.3049 17.1461 25.5365 23.1988C24.768 29.2514 26.1972 35.3812 29.5563 40.4393C32.9153 45.4974 37.9736 49.1365 43.7831 50.6747C49.5926 52.2129 55.7545 51.5445 61.1139 48.7948L73.8491 53.333L70.3907 40.5193Z"/><path stroke="#fff" stroke-miterlimit="10" stroke-width="2" d="M20 32H7V66H14V76L25 66H64V54"/><path stroke="#fff" stroke-miterlimit="10" stroke-width="2" d="M15 41H23"/><path stroke="#fff" stroke-miterlimit="10" stroke-width="2" d="M15 49H28"/><path stroke="#fff" stroke-miterlimit="10" stroke-width="2" d="M15 57L38.9999 57.04"/><path fill="#FFD200" d="M40.8887 27.1111C40.8887 28.8293 39.4958 30.2222 37.7776 30.2222C36.0594 30.2222 34.6665 28.8293 34.6665 27.1111C34.6665 25.3929 36.0594 24 37.7776 24C39.4958 24 40.8887 25.3929 40.8887 27.1111Z"/><path fill="#FFD200" d="M53.3332 27.1111C53.3332 28.8293 51.9403 30.2222 50.2221 30.2222C48.5038 30.2222 47.111 28.8293 47.111 27.1111C47.111 25.3929 48.5038 24 50.2221 24C51.9403 24 53.3332 25.3929 53.3332 27.1111Z"/><path fill="#FFD200" d="M65.7776 27.1111C65.7776 28.8293 64.3847 30.2222 62.6665 30.2222C60.9483 30.2222 59.5554 28.8293 59.5554 27.1111C59.5554 25.3929 60.9483 24 62.6665 24C64.3847 24 65.7776 25.3929 65.7776 27.1111Z"/></svg>