<svg width="80" height="80" viewBox="0 0 80 80" fill="none" xmlns="http://www.w3.org/2000/svg">
<g clip-path="url(#clip0_1_1187)">
<path d="M6.21147 38.4709L47.0413 79.2812L74.8552 51.4806M47.0218 71.2463L5.00053 29.232V0.507812H33.6033L75.7729 42.5089L47.0218 71.2463ZM23.6833 13.3174C24.3124 13.9469 24.7408 14.7489 24.9142 15.6218C25.0877 16.4948 24.9984 17.3997 24.6578 18.2219C24.3171 19.0442 23.7403 19.747 23.0004 20.2414C22.2604 20.7359 21.3905 20.9998 20.5005 20.9998C19.6106 20.9998 18.7407 20.7359 18.0007 20.2414C17.2607 19.747 16.684 19.0442 16.3433 18.2219C16.0026 17.3997 15.9134 16.4948 16.0868 15.6218C16.2603 14.7489 16.6887 13.9469 17.3178 13.3174C18.1622 12.4737 19.3069 11.9998 20.5005 11.9998C21.6941 11.9998 22.8389 12.4737 23.6833 13.3174Z" stroke="white" stroke-width="2" stroke-miterlimit="10"/>
<path d="M29.3345 38.8898L54.478 38.5842M45.3617 32.221C43.894 33.6887 41.5139 33.6881 40.0455 32.2198C38.5771 30.7514 38.5766 28.3712 40.0442 26.9036C41.5119 25.4359 43.8921 25.4365 45.3604 26.9048C46.8288 28.3732 46.8294 30.7534 45.3617 32.221ZM45.8125 50.8244C44.3448 52.2921 41.9646 52.2915 40.4963 50.8231C39.0279 49.3547 39.0273 46.9746 40.495 45.5069C41.9627 44.0392 44.3428 44.0398 45.8112 45.5082C47.2796 46.9766 47.2801 49.3567 45.8125 50.8244Z" stroke="#FFD200" stroke-width="3" stroke-miterlimit="10"/>
</g>
<defs>
<clipPath id="clip0_1_1187">
<rect width="80" height="80" fill="white"/>
</clipPath>
</defs>
</svg>
