<svg width="45" height="51" viewBox="0 0 45 51" fill="none" xmlns="http://www.w3.org/2000/svg"><g clip-path="url(#a)"><path d="M45 12.726V38.27L22.5 51.044 0 38.269V12.726L22.5-.043 45 12.727Z" fill="#881ADB"/><path d="M22.5-.043 0 12.727 22.5 25.5V-.044Z" fill="#A653E4"/><path d="M22.5 25.5 0 38.269l22.5 12.775V25.5M45 12.727 22.5 25.5 45 38.27V12.726Z" fill="#5E11CE"/><path d="M22.5-.043V25.5L45 12.726 22.5-.043" fill="#8736DB"/><path d="M22.5 25.5v25.543L45 38.269 22.5 25.5" fill="#3D0BBD"/><path d="M36.282 17.31h-3.234v6.601H15.853l4.795-4.714-2.285-2.248-8.699 8.552 8.699 8.551 2.285-2.247-4.795-4.715h20.429v-9.78Z" fill="#fff"/></g><defs><clipPath id="a"><path fill="#fff" d="M0 0h45v51H0z"/></clipPath></defs></svg>
