<svg xmlns="http://www.w3.org/2000/svg" width="45" height="51" fill="none" viewBox="0 0 45 51"><g clip-path="url(#a)"><path fill="#881ADB" d="M45 12.726V38.27L22.5 51.044 0 38.269V12.726L22.5-.043 45 12.727Z"/><path fill="#A653E4" d="M22.5-.043 0 12.727 22.5 25.5V-.044Z"/><path fill="#5E11CE" d="M22.5 25.5 0 38.269l22.5 12.775V25.5M45 12.727 22.5 25.5 45 38.27V12.726Z"/><path fill="#8736DB" d="M22.5-.043V25.5L45 12.726 22.5-.043"/><path fill="#3D0BBD" d="M22.5 25.5v25.543L45 38.269 22.5 25.5"/><path fill="#fff" d="M36.282 17.31h-3.234v6.601H15.853l4.795-4.714-2.285-2.248-8.699 8.552 8.699 8.551 2.285-2.247-4.795-4.715h20.429v-9.78Z"/></g><defs><clipPath id="a"><path fill="#fff" d="M0 0h45v51H0z"/></clipPath></defs></svg>