<svg xmlns="http://www.w3.org/2000/svg" width="106" height="129" fill="none" viewBox="0 0 106 129"><path fill="#fff" d="M15.013 91 53.5 111 91 91V15H15l.013 76Z"/><path fill="url(#a)" d="M91 15 15.5 91l38 20L91 91V15Z" opacity=".1"/><path fill="#DCDEDC" d="m13 92 40.506 21L93 92V13H13v79Zm3-1.5V16h74v74.5L53.506 110 16 90.5Z"/><path fill="#3D3D3D" d="M36.013 95.8a.333.333 0 0 1-.245-.101.333.333 0 0 1-.1-.245v-.734c0-.26.12-.485.36-.677l2.275-2.26c.989-.779 1.675-1.383 2.059-1.815.393-.442.59-.874.59-1.296 0-.451-.124-.807-.374-1.066-.24-.26-.605-.389-1.095-.389-.48 0-.859.144-1.137.432-.278.279-.451.644-.518 1.095a.445.445 0 0 1-.159.259.479.479 0 0 1-.26.072h-1.28a.293.293 0 0 1-.217-.087.276.276 0 0 1-.086-.201c.02-.567.173-1.095.46-1.584.289-.5.706-.898 1.253-1.195.548-.307 1.19-.461 1.93-.461.768 0 1.416.134 1.944.403.538.26.94.62 1.21 1.08.269.46.403.984.403 1.57 0 .643-.183 1.224-.547 1.742-.355.519-.903 1.075-1.642 1.67l-2.045 2.074h4.104c.106 0 .188.034.245.1.067.058.1.14.1.246v1.022a.333.333 0 0 1-.1.245.305.305 0 0 1-.245.1h-6.883ZM48.658 95.944c-1.276 0-2.232-.356-2.865-1.066-.624-.71-.965-1.641-1.023-2.793a41.3 41.3 0 0 1-.014-1.325c0-.634.005-1.085.014-1.354.048-1.133.394-2.054 1.037-2.765.643-.71 1.594-1.065 2.851-1.065 1.267 0 2.223.355 2.866 1.065.643.71.984 1.632 1.022 2.765.02.269.03.72.03 1.354 0 .624-.01 1.065-.03 1.325-.048 1.152-.389 2.083-1.022 2.793-.624.71-1.58 1.066-2.866 1.066Zm0-1.656c.605 0 1.056-.197 1.354-.59.297-.404.456-.965.475-1.685.02-.557.029-.98.029-1.268 0-.317-.01-.734-.029-1.252-.02-.71-.178-1.268-.475-1.67-.298-.404-.749-.606-1.354-.606-.595 0-1.046.202-1.353.605-.298.403-.456.96-.475 1.67a38.1 38.1 0 0 0-.015 1.253c0 .567.005.99.015 1.267.019.72.177 1.282.475 1.685.307.394.758.59 1.353.59ZM54.393 95.8a.333.333 0 0 1-.245-.101.333.333 0 0 1-.1-.245v-.734c0-.26.12-.485.36-.677l2.274-2.26c.99-.779 1.676-1.383 2.06-1.815.393-.442.59-.874.59-1.296 0-.451-.125-.807-.374-1.066-.24-.26-.605-.389-1.095-.389-.48 0-.859.144-1.137.432-.279.279-.452.644-.519 1.095a.445.445 0 0 1-.158.259.479.479 0 0 1-.26.072h-1.281a.293.293 0 0 1-.216-.087.276.276 0 0 1-.086-.201c.019-.567.172-1.095.46-1.584.288-.5.706-.898 1.253-1.195.547-.307 1.19-.461 1.93-.461.768 0 1.416.134 1.944.403.537.26.94.62 1.21 1.08.268.46.403.984.403 1.57 0 .643-.183 1.224-.548 1.742-.355.519-.902 1.075-1.641 1.67l-2.045 2.074h4.104c.106 0 .187.034.245.1.067.058.1.14.1.246v1.022a.333.333 0 0 1-.1.245.305.305 0 0 1-.245.1h-6.883ZM66.304 95.8a.333.333 0 0 1-.245-.101.333.333 0 0 1-.101-.245v-7.46l-2.189 1.686a.305.305 0 0 1-.201.072.345.345 0 0 1-.288-.159l-.605-.777a.412.412 0 0 1-.072-.216c0-.115.053-.212.158-.288l3.226-2.492a.573.573 0 0 1 .36-.1h1.267c.106 0 .187.033.245.1.067.058.1.14.1.245v9.39a.333.333 0 0 1-.1.244.305.305 0 0 1-.245.1h-1.31ZM20.226 50.615a.22.22 0 0 1-.16-.065.214.214 0 0 1-.066-.159v-6.065c0-.068.019-.124.057-.168a.23.23 0 0 1 .17-.065h2.733c.735 0 1.282.162 1.64.485.365.316.547.751.547 1.304 0 .323-.082.6-.245.83a1.41 1.41 0 0 1-.556.484c.264.118.483.31.66.577.182.267.273.572.273.913 0 .578-.198 1.044-.594 1.398-.39.354-.94.53-1.65.53h-2.809Zm2.564-3.848c.327 0 .575-.078.745-.233.17-.155.254-.363.254-.624 0-.267-.084-.472-.254-.615-.17-.149-.418-.224-.745-.224h-1.48v1.696h1.48Zm.095 2.86c.326 0 .58-.087.763-.26a.917.917 0 0 0 .273-.68.897.897 0 0 0-.273-.68c-.182-.18-.437-.271-.764-.271H21.31v1.891h1.575ZM28.46 50.708c-.697 0-1.253-.199-1.668-.596-.408-.404-.625-.97-.65-1.696l-.01-.233.01-.233c.031-.708.251-1.264.66-1.667.414-.404.967-.606 1.659-.606.741 0 1.313.224 1.715.67.409.448.613 1.044.613 1.79v.195a.214.214 0 0 1-.066.159.231.231 0 0 1-.17.065h-3.13v.074c.013.342.108.63.284.867.182.23.43.345.744.345.371 0 .67-.143.896-.429a.624.624 0 0 1 .132-.13.37.37 0 0 1 .16-.028h.81c.057 0 .104.018.142.056a.142.142 0 0 1 .066.12c0 .15-.091.327-.273.532-.176.198-.43.372-.764.521-.333.15-.72.224-1.16.224Zm1.047-2.935v-.028c0-.366-.094-.661-.283-.885-.182-.223-.437-.335-.763-.335-.327 0-.582.112-.764.335-.182.224-.273.519-.273.885v.028h2.083ZM33.647 50.708c-.472 0-.868-.068-1.188-.205-.32-.143-.56-.307-.717-.494-.15-.192-.226-.357-.226-.493 0-.063.022-.112.066-.15a.226.226 0 0 1 .151-.055h.745a.18.18 0 0 1 .141.065c.025.018.091.074.198.168.107.099.233.177.377.232.145.056.305.084.48.084.252 0 .46-.05.623-.149.163-.1.245-.236.245-.41a.445.445 0 0 0-.113-.317c-.07-.08-.198-.152-.387-.214a6.25 6.25 0 0 0-.839-.214c-.534-.112-.93-.283-1.187-.512-.252-.23-.377-.535-.377-.914 0-.248.075-.48.226-.698.15-.224.374-.404.67-.54.3-.144.66-.215 1.074-.215.42 0 .785.068 1.093.205.308.13.54.289.698.475.163.18.245.342.245.485a.204.204 0 0 1-.066.149.193.193 0 0 1-.141.056h-.698a.268.268 0 0 1-.16-.066 2.414 2.414 0 0 1-.208-.177 1.053 1.053 0 0 0-.33-.205 1.202 1.202 0 0 0-.443-.074c-.232 0-.414.05-.546.149a.475.475 0 0 0-.189.391c0 .118.032.215.094.289.063.075.186.146.368.214.182.069.456.137.82.205.603.118 1.034.301 1.292.55.264.248.395.553.395.913 0 .435-.191.789-.575 1.062-.383.273-.92.41-1.611.41ZM39.003 50.615c-.572 0-1.002-.146-1.291-.438-.283-.298-.424-.733-.424-1.304v-2.115h-.745a.22.22 0 0 1-.16-.066.246.246 0 0 1-.066-.167v-.531c0-.062.022-.115.066-.159a.22.22 0 0 1 .16-.065h.745v-1.546c0-.069.022-.121.066-.159a.22.22 0 0 1 .16-.065h.764a.2.2 0 0 1 .16.065c.044.038.066.09.066.159v1.546h1.178a.2.2 0 0 1 .16.065c.044.038.066.09.066.159v.53a.225.225 0 0 1-.226.234h-1.178v2.021c0 .268.047.47.141.606.094.137.252.205.471.205h.65a.22.22 0 0 1 .161.065.214.214 0 0 1 .066.159v.577a.214.214 0 0 1-.066.159.2.2 0 0 1-.16.065h-.764ZM43.323 50.615a.22.22 0 0 1-.16-.065.214.214 0 0 1-.066-.159v-6.065c0-.068.018-.124.056-.168a.231.231 0 0 1 .17-.065h2.3c1.847 0 2.79.845 2.828 2.534.012.36.019.603.019.727 0 .118-.007.357-.02.717-.024.87-.26 1.513-.706 1.929-.446.41-1.138.615-2.074.615h-2.347Zm2.3-1.072c.528 0 .908-.114 1.14-.344.233-.236.355-.621.368-1.155.013-.373.019-.606.019-.7 0-.099-.006-.328-.019-.689-.013-.509-.145-.885-.396-1.127-.245-.242-.631-.363-1.16-.363h-1.168v4.379h1.216ZM51.035 50.708c-.32 0-.616-.062-.886-.186a1.68 1.68 0 0 1-.632-.522 1.231 1.231 0 0 1-.226-.717c0-.423.173-.764.518-1.025.346-.261.82-.438 1.424-.531l1.291-.187v-.195c0-.274-.069-.478-.207-.615-.139-.137-.362-.205-.67-.205a.963.963 0 0 0-.509.121 1.56 1.56 0 0 0-.301.224l-.151.158c-.025.075-.072.112-.141.112h-.726a.227.227 0 0 1-.151-.056.2.2 0 0 1-.057-.15c.007-.154.082-.331.227-.53.15-.199.38-.37.688-.513.308-.143.685-.214 1.13-.214.742 0 1.283.165 1.622.494.34.329.51.76.51 1.295v2.925a.214.214 0 0 1-.067.159.2.2 0 0 1-.16.065h-.764a.22.22 0 0 1-.16-.065.214.214 0 0 1-.066-.159v-.363a1.564 1.564 0 0 1-.594.494c-.251.124-.565.186-.942.186Zm.32-.885c.346 0 .629-.112.849-.335.22-.224.33-.55.33-.979v-.195l-.943.149c-.365.056-.641.146-.83.27-.182.124-.273.276-.273.456 0 .2.085.355.255.466.17.112.373.168.612.168ZM57.166 50.615c-.572 0-1.003-.146-1.292-.438-.282-.298-.424-.733-.424-1.304v-2.115h-.745a.22.22 0 0 1-.16-.066.246.246 0 0 1-.066-.167v-.531c0-.062.022-.115.066-.159a.22.22 0 0 1 .16-.065h.745v-1.546c0-.069.022-.121.066-.159a.22.22 0 0 1 .16-.065h.764a.2.2 0 0 1 .16.065c.044.038.066.09.066.159v1.546h1.178a.2.2 0 0 1 .16.065c.045.038.067.09.067.159v.53a.225.225 0 0 1-.227.234h-1.178v2.021c0 .268.047.47.142.606.094.137.25.205.47.205h.651a.22.22 0 0 1 .16.065.214.214 0 0 1 .067.159v.577a.214.214 0 0 1-.066.159.2.2 0 0 1-.16.065h-.764ZM60.415 50.708c-.32 0-.616-.062-.886-.186a1.68 1.68 0 0 1-.632-.522 1.232 1.232 0 0 1-.226-.717c0-.423.173-.764.519-1.025.345-.261.82-.438 1.423-.531l1.291-.187v-.195c0-.274-.069-.478-.207-.615-.138-.137-.361-.205-.67-.205a.963.963 0 0 0-.508.121 1.56 1.56 0 0 0-.302.224l-.15.158c-.026.075-.073.112-.142.112h-.726a.227.227 0 0 1-.15-.056.2.2 0 0 1-.057-.15c.006-.154.081-.331.226-.53.15-.199.38-.37.688-.513.308-.143.685-.214 1.131-.214.742 0 1.282.165 1.622.494.339.329.509.76.509 1.295v2.925a.214.214 0 0 1-.066.159.2.2 0 0 1-.16.065h-.764a.22.22 0 0 1-.16-.065.214.214 0 0 1-.066-.159v-.363a1.564 1.564 0 0 1-.594.494c-.252.124-.566.186-.943.186Zm.32-.885c.346 0 .629-.112.849-.335.22-.224.33-.55.33-.979v-.195l-.943.149c-.364.056-.64.146-.83.27-.181.124-.273.276-.273.456 0 .2.085.355.255.466.17.112.374.168.613.168ZM67.092 50.708c-.647 0-1.15-.22-1.508-.661v.344a.214.214 0 0 1-.067.159.2.2 0 0 1-.16.065h-.744a.22.22 0 0 1-.16-.065.215.215 0 0 1-.067-.159v-6.167c0-.069.022-.121.066-.159a.22.22 0 0 1 .16-.065h.802a.2.2 0 0 1 .16.065c.044.038.066.09.066.159v2.068c.358-.41.842-.615 1.452-.615.635 0 1.121.205 1.46.615.34.41.522.94.548 1.593.006.075.009.174.009.298 0 .13-.003.233-.01.308-.025.67-.207 1.208-.546 1.611-.34.404-.826.606-1.461.606Zm-.349-.997c.679 0 1.04-.413 1.084-1.239.006-.062.01-.155.01-.28 0-.124-.004-.217-.01-.279-.044-.826-.405-1.24-1.084-1.24-.352 0-.622.113-.81.336-.183.218-.28.482-.293.792l-.01.354.01.364c.019.335.116.618.292.848.176.23.447.344.811.344ZM71.581 50.708c-.32 0-.615-.062-.886-.186a1.68 1.68 0 0 1-.631-.522 1.231 1.231 0 0 1-.226-.717c0-.423.172-.764.518-1.025.346-.261.82-.438 1.423-.531l1.292-.187v-.195c0-.274-.07-.478-.208-.615-.138-.137-.361-.205-.669-.205a.962.962 0 0 0-.509.121 1.56 1.56 0 0 0-.302.224l-.15.158c-.026.075-.073.112-.142.112h-.726a.227.227 0 0 1-.15-.056.2.2 0 0 1-.057-.15c.006-.154.082-.331.226-.53.151-.199.38-.37.688-.513.308-.143.685-.214 1.132-.214.741 0 1.282.165 1.62.494.34.329.51.76.51 1.295v2.925a.214.214 0 0 1-.066.159.2.2 0 0 1-.16.065h-.764a.22.22 0 0 1-.16-.065.215.215 0 0 1-.066-.159v-.363a1.564 1.564 0 0 1-.594.494c-.251.124-.566.186-.943.186Zm.32-.885c.347 0 .63-.112.85-.335.22-.224.33-.55.33-.979v-.195l-.944.149c-.364.056-.64.146-.829.27-.182.124-.273.276-.273.456 0 .2.085.355.254.466.17.112.374.168.613.168ZM77.4 50.708c-.471 0-.867-.068-1.188-.205-.32-.143-.559-.307-.716-.494-.15-.192-.226-.357-.226-.493 0-.063.022-.112.066-.15a.227.227 0 0 1 .15-.055h.745a.18.18 0 0 1 .142.065c.025.018.09.074.198.168.106.099.232.177.377.232.144.056.305.084.48.084.252 0 .46-.05.623-.149.163-.1.245-.236.245-.41a.445.445 0 0 0-.113-.317c-.07-.08-.198-.152-.387-.214a6.247 6.247 0 0 0-.839-.214c-.534-.112-.93-.283-1.188-.512-.251-.23-.377-.535-.377-.914 0-.248.076-.48.227-.698.15-.224.374-.404.669-.54.302-.144.66-.215 1.075-.215.42 0 .785.068 1.093.205.308.13.54.289.697.475.164.18.246.342.246.485a.204.204 0 0 1-.066.149.193.193 0 0 1-.142.056h-.697a.268.268 0 0 1-.16-.066 2.414 2.414 0 0 1-.208-.177 1.053 1.053 0 0 0-.33-.205 1.202 1.202 0 0 0-.443-.074c-.232 0-.415.05-.547.149a.475.475 0 0 0-.188.391c0 .118.031.215.094.289.063.075.185.146.368.214.182.069.455.137.82.205.603.118 1.033.301 1.291.55.264.248.396.553.396.913 0 .435-.192.789-.575 1.062-.383.273-.92.41-1.612.41ZM82.672 50.708c-.698 0-1.254-.199-1.669-.596-.408-.404-.625-.97-.65-1.696l-.01-.233.01-.233c.031-.708.251-1.264.66-1.667.414-.404.967-.606 1.659-.606.741 0 1.313.224 1.715.67.409.448.613 1.044.613 1.79v.195a.214.214 0 0 1-.066.159.231.231 0 0 1-.17.065h-3.13v.074c.013.342.108.63.284.867.182.23.43.345.744.345.371 0 .67-.143.896-.429a.622.622 0 0 1 .132-.13.37.37 0 0 1 .16-.028h.81c.057 0 .104.018.142.056a.142.142 0 0 1 .066.12c0 .15-.091.327-.273.532-.176.198-.43.372-.764.521-.333.15-.72.224-1.16.224Zm1.046-2.935v-.028c0-.366-.094-.661-.283-.885-.182-.223-.436-.335-.763-.335s-.582.112-.764.335c-.182.224-.273.519-.273.885v.028h2.083ZM36.262 62.26a.22.22 0 0 1-.16-.064.214.214 0 0 1-.066-.159v-6.065c0-.068.019-.124.056-.168a.231.231 0 0 1 .17-.065h2.734c.735 0 1.282.162 1.64.485.364.316.547.751.547 1.304 0 .323-.082.6-.245.83a1.409 1.409 0 0 1-.556.484c.263.118.483.31.66.577.182.267.273.572.273.913 0 .578-.198 1.044-.594 1.398-.39.354-.94.53-1.65.53h-2.809Zm2.564-3.847c.327 0 .575-.078.745-.233.17-.155.254-.363.254-.624 0-.267-.085-.472-.254-.615-.17-.15-.418-.224-.745-.224h-1.48v1.696h1.48Zm.094 2.86c.327 0 .582-.087.764-.26a.917.917 0 0 0 .273-.68.897.897 0 0 0-.273-.68c-.182-.18-.437-.271-.764-.271h-1.574v1.891h1.574ZM43.808 62.354c-.32 0-.615-.062-.886-.186a1.68 1.68 0 0 1-.631-.522 1.232 1.232 0 0 1-.226-.717c0-.423.172-.764.518-1.025.346-.261.82-.438 1.423-.531l1.292-.187v-.195c0-.274-.07-.479-.208-.615-.138-.137-.36-.205-.669-.205a.964.964 0 0 0-.509.12c-.126.076-.226.15-.301.225a6.82 6.82 0 0 1-.151.158c-.026.074-.073.112-.142.112h-.726a.227.227 0 0 1-.15-.056.2.2 0 0 1-.057-.15c.006-.154.082-.332.226-.53.151-.2.38-.37.688-.513.308-.143.685-.214 1.132-.214.741 0 1.282.165 1.62.494.34.329.51.76.51 1.295v2.925a.214.214 0 0 1-.066.159.2.2 0 0 1-.16.065h-.764a.22.22 0 0 1-.16-.065.214.214 0 0 1-.066-.159v-.363a1.564 1.564 0 0 1-.594.494c-.251.124-.566.186-.943.186Zm.32-.885c.347 0 .63-.112.85-.336.22-.223.33-.55.33-.978v-.195l-.943.149c-.365.056-.641.146-.83.27-.182.124-.273.276-.273.456 0 .2.085.354.254.466.17.112.374.168.613.168ZM49.891 62.354c-.691 0-1.244-.19-1.659-.568-.408-.38-.625-.904-.65-1.575l-.01-.372.01-.373c.025-.671.242-1.196.65-1.575.415-.379.968-.568 1.66-.568.49 0 .904.087 1.243.26.346.175.6.389.764.644.17.248.26.484.273.708a.176.176 0 0 1-.066.158.22.22 0 0 1-.16.065h-.83a.27.27 0 0 1-.15-.037.516.516 0 0 1-.095-.149c-.094-.242-.22-.416-.377-.522-.15-.105-.345-.158-.584-.158-.32 0-.572.102-.754.307-.182.2-.28.504-.292.913l-.01.345.01.308c.025.813.374 1.22 1.046 1.22.245 0 .443-.053.594-.158.15-.106.273-.28.367-.522a.386.386 0 0 1 .095-.14.23.23 0 0 1 .15-.046h.83a.22.22 0 0 1 .16.065c.05.043.073.096.066.158-.012.218-.1.45-.264.699-.163.248-.414.463-.754.643-.339.18-.76.27-1.263.27ZM53.391 62.26a.22.22 0 0 1-.16-.064.214.214 0 0 1-.066-.159V55.87c0-.069.022-.122.066-.159a.22.22 0 0 1 .16-.065h.764a.2.2 0 0 1 .16.065c.044.037.066.09.066.159v3.186l1.584-1.481c.018-.013.05-.038.094-.075a.353.353 0 0 1 .113-.065.459.459 0 0 1 .141-.019h.877c.063 0 .113.019.15.056a.2.2 0 0 1 .057.15c0 .055-.031.11-.094.167l-1.942 1.798 2.178 2.31c.063.063.094.115.094.159a.186.186 0 0 1-.066.149.193.193 0 0 1-.141.056h-.896a.532.532 0 0 1-.198-.028 1.101 1.101 0 0 1-.15-.13L54.38 60.23v1.807a.214.214 0 0 1-.066.159.2.2 0 0 1-.16.065h-.764ZM60.139 62.354c-.578 0-1.034-.186-1.367-.559-.333-.379-.5-.891-.5-1.537V57.64c0-.062.023-.115.067-.159a.22.22 0 0 1 .16-.065h.83a.2.2 0 0 1 .16.065c.044.038.066.09.066.159v2.562c0 .77.342 1.155 1.027 1.155.327 0 .584-.102.773-.307.195-.205.292-.488.292-.848V57.64c0-.062.022-.115.066-.159a.22.22 0 0 1 .16-.065h.83a.2.2 0 0 1 .16.065c.044.038.066.09.066.159v4.397a.214.214 0 0 1-.066.159.201.201 0 0 1-.16.065h-.764a.22.22 0 0 1-.16-.065.214.214 0 0 1-.066-.159v-.382c-.352.466-.876.699-1.574.699ZM64.41 64.031a.22.22 0 0 1-.16-.065.196.196 0 0 1-.066-.159V57.64c0-.069.022-.121.066-.159a.22.22 0 0 1 .16-.065h.745a.2.2 0 0 1 .16.065c.044.038.066.09.066.159v.372c.352-.46.855-.689 1.508-.689.635 0 1.122.199 1.461.596.34.392.522.923.547 1.593.006.075.01.184.01.327 0 .149-.004.26-.01.335-.025.652-.207 1.18-.547 1.584-.339.397-.826.596-1.46.596-.636 0-1.12-.22-1.452-.661v2.114a.196.196 0 0 1-.066.159.2.2 0 0 1-.16.065h-.802Zm2.13-2.674c.68 0 1.04-.413 1.084-1.239.007-.062.01-.155.01-.28 0-.124-.003-.217-.01-.279-.043-.826-.405-1.24-1.084-1.24-.364 0-.634.116-.81.346-.176.23-.274.512-.292.847l-.01.355.01.363c.012.31.11.578.292.801.188.217.459.326.81.326ZM36.366 74c-.56 0-1.04-.084-1.443-.252-.402-.167-.706-.388-.914-.661a1.54 1.54 0 0 1-.33-.885.193.193 0 0 1 .198-.196h.84c.075 0 .131.016.169.047a.357.357 0 0 1 .122.13c.063.211.208.388.434.531.226.143.534.215.924.215.446 0 .782-.072 1.008-.215a.7.7 0 0 0 .34-.615.561.561 0 0 0-.18-.428c-.112-.112-.285-.208-.518-.289-.226-.08-.565-.18-1.018-.298-.741-.174-1.285-.404-1.63-.69-.34-.291-.51-.705-.51-1.239 0-.36.098-.68.293-.96.2-.279.487-.5.857-.66.377-.162.814-.243 1.31-.243.516 0 .962.09 1.34.27.376.18.662.407.857.68.201.267.308.534.32.801a.193.193 0 0 1-.198.196h-.876c-.132 0-.223-.059-.274-.177-.037-.199-.163-.363-.377-.494-.213-.136-.477-.205-.791-.205-.352 0-.629.066-.83.196a.636.636 0 0 0-.301.568c0 .174.05.317.15.429.1.112.258.211.472.298.22.087.534.183.942.289.553.124.993.264 1.32.42.333.154.578.35.735.586.157.236.236.537.236.904 0 .397-.113.745-.34 1.043-.22.292-.534.516-.942.671-.402.155-.867.233-1.395.233ZM42.178 74c-.735 0-1.304-.186-1.706-.559-.402-.379-.62-.894-.65-1.547l-.01-.41.01-.41c.03-.645.25-1.158.66-1.537.408-.379.973-.568 1.696-.568s1.288.19 1.697.568c.408.38.628.892.66 1.537.006.075.01.212.01.41 0 .2-.004.336-.01.41-.032.653-.248 1.168-.65 1.547-.403.373-.972.559-1.707.559Zm0-.922c.333 0 .59-.103.773-.308.182-.211.283-.518.302-.922.006-.062.01-.183.01-.364 0-.18-.004-.3-.01-.363-.02-.404-.12-.708-.302-.913-.182-.211-.44-.317-.773-.317s-.59.106-.773.317c-.182.205-.283.51-.302.913l-.009.364.01.363c.018.404.119.711.301.922.182.205.44.308.773.308ZM45.824 73.907a.22.22 0 0 1-.16-.065.214.214 0 0 1-.066-.159v-6.168c0-.068.022-.12.066-.158a.22.22 0 0 1 .16-.065h.783c.069 0 .122.022.16.065.044.037.066.09.066.159v6.167a.214.214 0 0 1-.066.159.2.2 0 0 1-.16.065h-.783ZM49.903 74c-.579 0-1.034-.186-1.367-.559-.333-.379-.5-.891-.5-1.537v-2.618c0-.062.022-.115.066-.159a.22.22 0 0 1 .16-.065h.83a.2.2 0 0 1 .16.065c.044.038.066.09.066.159v2.562c0 .77.343 1.155 1.028 1.155.326 0 .584-.102.773-.307.194-.205.292-.488.292-.848v-2.562c0-.062.022-.115.066-.159a.22.22 0 0 1 .16-.065h.83a.2.2 0 0 1 .16.065c.044.038.066.09.066.159v4.397a.214.214 0 0 1-.066.159.2.2 0 0 1-.16.065h-.764a.22.22 0 0 1-.16-.065.215.215 0 0 1-.066-.159v-.382c-.352.466-.877.699-1.574.699ZM56.153 73.907c-.572 0-1.002-.146-1.291-.438-.283-.298-.425-.733-.425-1.304V70.05h-.744a.22.22 0 0 1-.16-.066.246.246 0 0 1-.066-.167v-.531c0-.062.022-.115.066-.159a.22.22 0 0 1 .16-.065h.745v-1.546c0-.069.021-.122.066-.159a.22.22 0 0 1 .16-.065h.763c.07 0 .123.022.16.065.044.037.066.09.066.159v1.546h1.179a.2.2 0 0 1 .16.065c.044.038.066.09.066.159v.53a.226.226 0 0 1-.226.234h-1.178v2.021c0 .267.047.47.14.606.095.137.252.205.472.205h.65a.22.22 0 0 1 .16.065.214.214 0 0 1 .067.159v.577a.214.214 0 0 1-.066.159.2.2 0 0 1-.16.065h-.764ZM58.168 68.26a.22.22 0 0 1-.16-.064.214.214 0 0 1-.067-.159v-.67c0-.063.022-.115.066-.159a.22.22 0 0 1 .16-.065h.858a.22.22 0 0 1 .16.065c.051.044.076.096.076.159v.67a.214.214 0 0 1-.066.159.231.231 0 0 1-.17.065h-.857Zm.037 5.647a.22.22 0 0 1-.16-.065.214.214 0 0 1-.066-.159v-4.397c0-.062.022-.115.066-.159a.22.22 0 0 1 .16-.065h.783a.2.2 0 0 1 .16.065c.044.038.066.09.066.159v4.397a.214.214 0 0 1-.066.159.2.2 0 0 1-.16.065h-.783ZM62.633 74c-.736 0-1.304-.186-1.707-.559-.402-.379-.619-.894-.65-1.547l-.01-.41.01-.41c.031-.645.252-1.158.66-1.537.408-.379.974-.568 1.697-.568.722 0 1.288.19 1.696.568.409.38.629.892.66 1.537.007.075.01.212.01.41 0 .2-.003.336-.01.41-.031.653-.248 1.168-.65 1.547-.402.373-.971.559-1.706.559Zm0-.922c.333 0 .59-.103.773-.308.182-.211.282-.518.301-.922.007-.062.01-.183.01-.364 0-.18-.003-.3-.01-.363-.019-.404-.12-.708-.301-.913-.183-.211-.44-.317-.773-.317s-.591.106-.773.317c-.182.205-.283.51-.302.913l-.01.364.01.363c.019.404.12.711.302.922.182.205.44.308.773.308ZM66.27 73.907a.22.22 0 0 1-.16-.065.214.214 0 0 1-.067-.159v-4.397c0-.062.022-.115.066-.159a.22.22 0 0 1 .16-.065h.773a.22.22 0 0 1 .16.065.214.214 0 0 1 .067.159v.382c.37-.466.895-.7 1.574-.7.578 0 1.037.19 1.376.57.34.372.51.881.51 1.527v2.618a.214.214 0 0 1-.067.159.2.2 0 0 1-.16.065h-.83a.22.22 0 0 1-.16-.065.215.215 0 0 1-.066-.159v-2.562c0-.366-.091-.649-.273-.848-.176-.205-.434-.307-.773-.307-.333 0-.597.102-.792.307-.189.205-.283.488-.283.848v2.562a.214.214 0 0 1-.066.159.2.2 0 0 1-.16.065h-.83Z"/><path stroke="#A653E4" d="M31 80.5h42"/><path fill="#A653E4" d="M53.05 36 75 30.863V13H31v17.768L53.05 36Z"/><path fill="#fff" d="M36.325 28a.322.322 0 0 1-.23-.09.29.29 0 0 1-.095-.219v-8.37c0-.094.027-.171.081-.231a.34.34 0 0 1 .244-.09h3.304c2.653 0 4.007 1.166 4.062 3.497.018.497.027.832.027 1.003 0 .163-.01.493-.027.99-.037 1.2-.375 2.087-1.016 2.661-.64.566-1.634.849-2.979.849h-3.371Zm3.304-1.479c.758 0 1.304-.158 1.638-.475.334-.326.51-.857.528-1.595.018-.514.027-.835.027-.964 0-.137-.009-.454-.027-.951-.018-.703-.208-1.222-.569-1.556-.352-.334-.907-.501-1.665-.501h-1.679v6.042h1.747ZM45.845 28a.322.322 0 0 1-.23-.09.29.29 0 0 1-.095-.219v-8.37c0-.094.027-.171.081-.231a.34.34 0 0 1 .244-.09h3.927c1.056 0 1.841.223 2.355.669.524.437.786 1.037.786 1.8 0 .445-.118.827-.352 1.144a2.003 2.003 0 0 1-.8.668c.38.163.696.429.949.798.261.368.392.788.392 1.26 0 .797-.284 1.44-.853 1.928-.56.489-1.35.733-2.37.733h-4.034Zm3.683-5.31c.47 0 .826-.107 1.07-.321.243-.215.365-.502.365-.862 0-.368-.122-.651-.366-.848-.243-.206-.6-.309-1.07-.309h-2.125v2.34h2.126Zm.135 3.947c.47 0 .835-.12 1.097-.36a1.24 1.24 0 0 0 .393-.938c0-.386-.131-.699-.393-.939-.262-.249-.627-.373-1.097-.373h-2.26v2.61h2.26ZM57.08 28a.322.322 0 0 1-.23-.09.29.29 0 0 1-.095-.219v-7.11H54.25a.322.322 0 0 1-.23-.09.29.29 0 0 1-.095-.218v-.952c0-.094.027-.171.082-.231a.34.34 0 0 1 .243-.09h6.906c.099 0 .18.03.243.09s.095.137.095.231v.952a.29.29 0 0 1-.095.218.34.34 0 0 1-.243.09h-2.492v7.11a.29.29 0 0 1-.095.219.34.34 0 0 1-.243.09H57.08ZM61.294 28a.316.316 0 0 1-.203-.077.255.255 0 0 1-.081-.193l.027-.116 3.263-8.293c.063-.214.22-.321.474-.321h1.475c.235 0 .393.107.474.321l3.264 8.293a.372.372 0 0 1 .013.116.255.255 0 0 1-.081.193.267.267 0 0 1-.19.077h-1.178a.419.419 0 0 1-.27-.077.35.35 0 0 1-.122-.167l-.637-1.569h-4.021l-.636 1.569c-.073.163-.204.244-.393.244h-1.178Zm5.754-3.291-1.543-3.973-1.53 3.973h3.073Z"/><path fill="url(#b)" fill-rule="evenodd" d="m53.493 127.306 51.007-26.997V1.5H1.5v98.801l51.993 27.005ZM0 101.212 53.5 129l52.5-27.788V0H0v101.212Z" clip-rule="evenodd"/><defs><linearGradient id="a" x1="53.25" x2="53.25" y1="15" y2="111" gradientUnits="userSpaceOnUse"><stop stop-color="#FACC6B"/><stop offset="1" stop-color="#FAB528"/></linearGradient><linearGradient id="b" x1="53" x2="53" y1="0" y2="128.03" gradientUnits="userSpaceOnUse"><stop stop-color="#FFDA8C"/><stop offset="1" stop-color="#FFC03F"/></linearGradient></defs></svg>