<svg width="106" height="129" viewBox="0 0 106 129" fill="none" xmlns="http://www.w3.org/2000/svg"><path d="M105.25 100.759 53 128.153.75 100.759V.75h104.5v100.009Z" stroke="#CC8132" stroke-width="1.5"/><path d="m15 91 38 20 38-20V15H15v76Z" fill="#fff"/><path opacity=".13" d="M91 15 15.5 91 53 111l38-20V15Z" fill="#CC8132"/><path d="m13 92 40 21 40-21V13H13v79Zm3-1.5V16h74v74.5L53 110 16 90.5Z" fill="#DCDEDC"/><path d="M53.047 16.823c.377 0 .754 0 1.131.099l-1.13 2.255c-1.697-.099-3.205 1.274-3.3 3.039-.093 1.764 1.226 3.333 2.922 3.431h.377c.754 0 1.508-.294 2.073-.784l1.226 2.157a5.562 5.562 0 0 1-3.299 1.078c-3.016.098-5.56-2.255-5.654-5.392-.095-3.137 2.167-5.784 5.183-5.883h.471Zm3.864 4.805 1.414 2.45-1.414 2.353-1.32-2.353H52.86l1.413-2.45h2.639Zm-2.262-.883c0-.392.094-.784.283-1.078.188-.295.565-.589.848-.785l.189-.098c.377-.196.47-.294.47-.49s-.282-.392-.47-.392c-.377 0-.66.196-.849.588l-.47-.49c.093-.196.282-.392.47-.588.283-.196.566-.196.849-.196.282 0 .66.098.848.294.188.196.377.49.377.784 0 .49-.283.883-.848 1.078l-.283.197c-.283.196-.471.294-.566.588h1.697v.686l-2.545-.098ZM53.047 33 62 27.706V13H44v14.608L53.047 33ZM94.064 66H12.03L9 73l3.031 7h82.032L97 73l-2.936-7Z" fill="#FF492C"/><path d="M25.254 52c.636 0 1.196.125 1.678.376.483.251.856.612 1.12 1.082.263.464.395.997.395 1.6 0 .595-.135 1.119-.405 1.57a2.838 2.838 0 0 1-1.158 1.045c-.495.25-1.067.376-1.717.376h-2.055c-.045 0-.067.025-.067.075v3.594c0 .05-.02.09-.058.122a.172.172 0 0 1-.125.047h-1.688a.172.172 0 0 1-.126-.047.163.163 0 0 1-.048-.122v-9.549c0-.05.016-.09.048-.122a.172.172 0 0 1 .126-.047h4.08Zm-.309 4.46c.45 0 .807-.126 1.07-.377.271-.251.406-.577.406-.979 0-.42-.135-.755-.405-1.006-.264-.257-.62-.386-1.07-.386h-1.834c-.045 0-.067.025-.067.075v2.597c0 .05.022.075.067.075h1.833Zm10.804 1.053c.051.357.067.755.048 1.194-.007.12-.068.18-.183.18h-4.466c-.058 0-.08.021-.068.065.032.188.087.376.164.565.25.526.762.79 1.534.79.617-.007 1.102-.251 1.456-.734.045-.056.09-.085.135-.085.026 0 .058.02.097.057l1.041.997c.052.05.078.094.078.132 0 .018-.02.056-.058.112-.322.39-.73.687-1.225.894a4.244 4.244 0 0 1-1.66.32c-.823 0-1.523-.182-2.102-.546a3.099 3.099 0 0 1-1.235-1.542c-.206-.47-.308-1.085-.308-1.844 0-.52.073-.979.221-1.374a3.138 3.138 0 0 1 1.168-1.59c.553-.395 1.208-.592 1.967-.592.965 0 1.74.273 2.325.818.585.546.942 1.273 1.07 2.183Zm-3.377-1.28c-.61 0-1.012.276-1.205.828a3.08 3.08 0 0 0-.097.452c0 .044.026.066.078.066h2.498c.058 0 .077-.022.058-.066-.052-.27-.078-.402-.078-.395a1.202 1.202 0 0 0-.453-.659c-.212-.15-.479-.226-.8-.226Zm8.392-1.693c.348 0 .624.066.83.197.07.038.096.107.077.207l-.299 1.61c-.006.112-.074.146-.202.103a1.559 1.559 0 0 0-.502-.076c-.077 0-.187.01-.328.029-.34.031-.633.156-.878.376-.238.22-.357.514-.357.884v3.848c0 .05-.019.09-.057.122a.16.16 0 0 1-.116.047h-1.698a.195.195 0 0 1-.125-.047.163.163 0 0 1-.049-.122v-6.915c0-.043.017-.084.049-.122a.195.195 0 0 1 .125-.047h1.698a.16.16 0 0 1 .115.047.169.169 0 0 1 .058.122v.537c0 .025.01.043.03.056.012.013.025.006.038-.019.399-.558.93-.837 1.591-.837Zm6.164.085c.052 0 .094.015.126.047a.163.163 0 0 1 .048.122v1.336a.163.163 0 0 1-.174.17H45.53c-.052 0-.078.021-.078.065v5.353c0 .05-.016.09-.048.122a.172.172 0 0 1-.125.047H43.59a.172.172 0 0 1-.126-.047.163.163 0 0 1-.048-.122v-5.353c0-.044-.026-.066-.077-.066h-.849a.172.172 0 0 1-.125-.047.163.163 0 0 1-.048-.122v-1.336c0-.05.016-.091.048-.122a.172.172 0 0 1 .125-.047h.849c.051 0 .077-.025.077-.076v-.31c0-.583.09-1.038.27-1.364.187-.32.483-.549.888-.687.411-.138.98-.197 1.707-.179h.55a.16.16 0 0 1 .115.047.17.17 0 0 1 .058.123v1.138a.15.15 0 0 1-.058.122.147.147 0 0 1-.115.057h-.483c-.334.006-.569.072-.704.197-.128.132-.193.367-.193.706v.15c0 .05.026.076.078.076h1.398ZM51.124 62c-.81 0-1.505-.207-2.083-.62-.58-.415-.974-.98-1.187-1.694a4.878 4.878 0 0 1-.202-1.44c0-.551.067-1.05.202-1.495a3.06 3.06 0 0 1 1.206-1.637c.579-.395 1.273-.593 2.084-.593.784 0 1.46.195 2.025.583.553.395.945.941 1.177 1.637.16.47.241.963.241 1.477 0 .508-.067.985-.203 1.43-.212.734-.607 1.308-1.186 1.722-.572.42-1.264.63-2.074.63Zm0-1.703c.315 0 .585-.094.81-.282.226-.188.386-.448.483-.78.07-.302.106-.631.106-.989 0-.395-.036-.727-.106-.997-.11-.32-.273-.57-.492-.752a1.292 1.292 0 0 0-.82-.264c-.322 0-.592.088-.81.264a1.519 1.519 0 0 0-.473.752c-.077.22-.116.552-.116.997 0 .427.036.756.106.988.097.333.258.593.483.781.225.188.501.282.83.282Zm8.479-5.757c.347 0 .624.066.83.197.077.038.102.107.077.207l-.3 1.61c-.006.112-.073.146-.202.103a1.559 1.559 0 0 0-.502-.076c-.077 0-.183.01-.318.029a1.491 1.491 0 0 0-.887.376c-.238.22-.357.514-.357.884v3.848c0 .05-.02.09-.058.122a.172.172 0 0 1-.125.047h-1.688a.195.195 0 0 1-.126-.047.163.163 0 0 1-.048-.122v-6.915c0-.043.016-.084.048-.122a.195.195 0 0 1 .126-.047h1.688c.051 0 .093.016.125.047a.169.169 0 0 1 .058.122v.537c0 .025.006.043.02.056.025.013.041.006.047-.019.4-.558.93-.837 1.592-.837Zm10.08-.019c.752 0 1.34.22 1.765.659.425.445.637 1.069.637 1.872v4.666a.163.163 0 0 1-.164.17h-1.698a.195.195 0 0 1-.125-.048.163.163 0 0 1-.049-.122v-4.234c0-.382-.1-.686-.299-.912-.205-.226-.479-.339-.82-.339-.334 0-.607.113-.82.339-.212.226-.318.527-.318.903v4.243c0 .05-.016.09-.048.122a.195.195 0 0 1-.125.047H65.94a.172.172 0 0 1-.125-.047.163.163 0 0 1-.048-.122v-4.234c0-.376-.106-.68-.319-.912-.212-.226-.488-.339-.83-.339-.301 0-.559.088-.77.264-.207.182-.329.432-.367.752v4.469c0 .05-.016.09-.049.122a.195.195 0 0 1-.125.047h-1.688a.172.172 0 0 1-.125-.047.163.163 0 0 1-.049-.122v-6.915c0-.043.016-.084.049-.122a.172.172 0 0 1 .125-.047h1.688c.045 0 .087.016.125.047a.184.184 0 0 1 .049.122v.555c0 .026.01.044.029.057.019.006.038-.006.057-.038.4-.57 1.013-.856 1.843-.856.482 0 .903.1 1.263.301.36.195.637.477.83.847.026.056.061.056.106 0 .206-.389.492-.677.859-.866.36-.188.765-.282 1.215-.282Zm10.379 2.992c.058.357.077.755.058 1.194-.013.12-.077.18-.193.18H75.46c-.058 0-.077.021-.058.065.026.188.077.376.154.565.251.526.762.79 1.534.79.617-.007 1.106-.251 1.466-.734.039-.056.08-.085.126-.085.032 0 .067.02.106.057l1.041.997c.046.05.068.094.068.132 0 .018-.02.056-.058.112a3.032 3.032 0 0 1-1.225.894 4.174 4.174 0 0 1-1.65.32c-.829 0-1.53-.182-2.102-.546a3.083 3.083 0 0 1-1.245-1.542c-.199-.47-.298-1.085-.298-1.844 0-.52.07-.979.212-1.374a3.138 3.138 0 0 1 1.167-1.59c.553-.395 1.212-.592 1.977-.592.965 0 1.74.273 2.325.818.585.546.939 1.273 1.061 2.183Zm-3.376-1.28c-.605 0-1.003.276-1.196.828a4.035 4.035 0 0 0-.106.452c0 .044.025.066.077.066h2.498c.058 0 .077-.022.058-.066a18.33 18.33 0 0 0-.067-.395 1.271 1.271 0 0 0-.454-.659c-.218-.15-.489-.226-.81-.226Zm8.392-1.693c.347 0 .624.066.83.197.077.038.105.107.086.207l-.299 1.61c-.013.112-.083.146-.212.103a1.505 1.505 0 0 0-.502-.076c-.077 0-.183.01-.318.029a1.491 1.491 0 0 0-.887.376c-.238.22-.357.514-.357.884v3.848c0 .05-.016.09-.048.122a.195.195 0 0 1-.126.047h-1.698a.16.16 0 0 1-.115-.047.15.15 0 0 1-.058-.122v-6.915c0-.043.02-.084.058-.122a.16.16 0 0 1 .115-.047h1.698c.045 0 .087.016.126.047a.184.184 0 0 1 .048.122v.537c0 .025.01.043.029.056.019.013.035.006.048-.019.392-.558.92-.837 1.582-.837ZM45.364 37.634c0-.047.016-.09.047-.13a.154.154 0 0 1 .116-.051h1.688c.045 0 .087.017.125.05.032.04.048.084.048.131V47.84a.182.182 0 0 1-.048.13.186.186 0 0 1-.125.05h-1.688a.153.153 0 0 1-.116-.05.182.182 0 0 1-.047-.13v-4.167c0-.047-.026-.07-.077-.07H42.1c-.044 0-.067.023-.067.07v4.167a.182.182 0 0 1-.048.13.185.185 0 0 1-.125.05h-1.688a.153.153 0 0 1-.115-.05.165.165 0 0 1-.058-.13V37.634c0-.047.02-.09.058-.13a.154.154 0 0 1 .115-.051h1.688c.045 0 .087.017.125.05.032.04.048.084.048.131v4.056c0 .054.023.08.067.08h3.186c.051 0 .077-.026.077-.08v-4.056Zm4.644 1.751a1.08 1.08 0 0 1-.816-.342c-.218-.221-.326-.503-.326-.845 0-.356.105-.644.316-.866.211-.221.486-.332.825-.332.34 0 .614.11.826.332.21.222.316.51.316.866 0 .342-.108.624-.326.845a1.08 1.08 0 0 1-.816.342Zm-.864 8.636a.186.186 0 0 1-.125-.05.182.182 0 0 1-.048-.131v-7.408c0-.054.016-.097.048-.13a.186.186 0 0 1 .125-.051h1.689c.044 0 .083.017.115.05a.166.166 0 0 1 .057.131v7.408c0 .053-.019.097-.057.13a.153.153 0 0 1-.115.05h-1.69Zm7.954-7.579c0-.047.02-.09.058-.13a.153.153 0 0 1 .115-.051h1.688c.045 0 .087.017.125.05.032.04.048.084.048.131v6.884c0 1.316-.361 2.255-1.084 2.819-.723.57-1.657.855-2.802.855-.339 0-.713-.027-1.122-.08-.096-.014-.144-.078-.144-.192l.057-1.56c0-.134.068-.191.202-.17.345.06.662.09.95.09.614 0 1.087-.138 1.42-.413.326-.288.49-.741.49-1.359 0-.033-.01-.053-.03-.06-.019-.007-.038.003-.057.03-.365.41-.896.614-1.593.614a3.24 3.24 0 0 1-1.717-.473c-.525-.315-.9-.825-1.123-1.53-.14-.463-.211-1.063-.211-1.801 0-.785.086-1.423.259-1.913.198-.617.537-1.11 1.017-1.48a2.645 2.645 0 0 1 1.679-.563c.736 0 1.298.232 1.689.695.019.02.038.026.057.02.02-.007.03-.024.03-.05v-.363Zm-.115 4.871c.077-.295.115-.707.115-1.238 0-.308-.01-.546-.029-.714a2.907 2.907 0 0 0-.096-.493 1.427 1.427 0 0 0-.431-.654c-.199-.161-.448-.242-.749-.242-.288 0-.53.08-.729.242a1.463 1.463 0 0 0-.451.654c-.134.302-.202.711-.202 1.228 0 .563.058.966.173 1.207.083.276.234.494.451.655.218.167.474.251.768.251.307 0 .563-.084.767-.251.199-.161.336-.376.413-.645Zm7.465-5.173c.767 0 1.385.248 1.852.745.466.49.7 1.157.7 2.003v4.952a.182.182 0 0 1-.048.13.153.153 0 0 1-.115.05h-1.689a.185.185 0 0 1-.124-.05.182.182 0 0 1-.049-.13v-4.52c0-.395-.108-.72-.326-.976-.21-.248-.496-.372-.854-.372a1.08 1.08 0 0 0-.854.372c-.217.255-.326.58-.326.977v4.519a.182.182 0 0 1-.048.13.164.164 0 0 1-.125.05h-1.679a.164.164 0 0 1-.124-.05.182.182 0 0 1-.048-.13V37.634c0-.047.016-.09.048-.13a.165.165 0 0 1 .124-.051h1.68c.05 0 .092.017.124.05.032.04.048.084.048.131v3.342c0 .026.01.047.029.06.02.007.032 0 .038-.02.397-.584.985-.876 1.766-.876Z" fill="#3D3D3D"/><path d="M37.305 76.995c-.496 0-.93-.08-1.298-.24a1.991 1.991 0 0 1-.86-.67 1.751 1.751 0 0 1-.296-1.016v-.24a.12.12 0 0 1 .038-.086.103.103 0 0 1 .077-.029h.85c.031 0 .06.01.085.03a.14.14 0 0 1 .03.085v.183c0 .293.13.536.39.728.262.198.618.297 1.07.297.389 0 .681-.083.879-.25a.8.8 0 0 0 .296-.641.688.688 0 0 0-.163-.46 1.581 1.581 0 0 0-.458-.336c-.204-.102-.506-.23-.907-.383a9.43 9.43 0 0 1-1.098-.47 1.987 1.987 0 0 1-.697-.603c-.191-.25-.287-.563-.287-.94 0-.562.204-1.006.611-1.331.408-.326.952-.49 1.633-.49.478 0 .901.084 1.27.25.363.166.647.4.85.7.204.293.306.635.306 1.025v.163a.12.12 0 0 1-.038.086.103.103 0 0 1-.077.029h-.86a.103.103 0 0 1-.076-.029.12.12 0 0 1-.038-.086v-.106c0-.3-.12-.552-.363-.757-.248-.21-.589-.316-1.021-.316-.35 0-.621.074-.812.22-.198.147-.296.355-.296.623 0 .192.05.349.152.47s.255.23.459.326c.204.102.519.23.945.383.452.173.815.33 1.089.47.267.14.5.335.697.584.191.256.286.572.286.949 0 .575-.213 1.032-.64 1.37-.42.339-.996.508-1.728.508Zm5.825 0c-.47 0-.888-.092-1.25-.278a2.002 2.002 0 0 1-.84-.785 2.293 2.293 0 0 1-.306-1.189v-4.418c0-.032.012-.057.038-.076a.09.09 0 0 1 .076-.038h.879c.032 0 .06.012.086.038.019.019.028.044.028.076v4.437c0 .377.118.684.353.92.236.237.548.355.936.355.389 0 .7-.118.936-.355.236-.236.354-.543.354-.92v-4.437c0-.032.012-.057.038-.076a.09.09 0 0 1 .076-.038h.879c.032 0 .06.012.086.038.019.019.028.044.028.076v4.418c0 .447-.098.844-.296 1.189-.197.338-.477.6-.84.785-.363.186-.783.278-1.26.278Zm8.041-6.708a.15.15 0 0 1 .134-.077h.878c.032 0 .06.013.086.039.02.019.029.044.029.076v6.478c0 .032-.01.058-.029.077a.119.119 0 0 1-.086.038h-.878a.119.119 0 0 1-.086-.038.104.104 0 0 1-.029-.076v-4.572c0-.019-.01-.031-.029-.038-.012-.006-.022 0-.028.02l-1.194 1.84a.15.15 0 0 1-.134.076h-.439a.15.15 0 0 1-.134-.077l-1.203-1.83c-.006-.02-.019-.026-.038-.02-.013.007-.02.02-.02.039v4.561c0 .032-.009.058-.028.077a.119.119 0 0 1-.086.038h-.878a.09.09 0 0 1-.077-.038.091.091 0 0 1-.038-.076v-6.479c0-.032.013-.057.038-.076a.09.09 0 0 1 .077-.038h.878a.15.15 0 0 1 .134.076l1.557 2.367c.012.013.025.02.038.02.013 0 .022-.007.028-.02l1.557-2.367Zm6.828 0a.15.15 0 0 1 .133-.077h.879a.09.09 0 0 1 .076.039c.026.019.039.044.039.076v6.478a.091.091 0 0 1-.039.077.09.09 0 0 1-.076.038h-.879a.09.09 0 0 1-.076-.038.091.091 0 0 1-.038-.076v-4.572c0-.019-.007-.031-.02-.038-.018-.006-.031 0-.037.02l-1.194 1.84a.15.15 0 0 1-.134.076h-.44a.15.15 0 0 1-.133-.077l-1.203-1.83c-.006-.02-.016-.026-.029-.02-.019.007-.028.02-.028.039v4.561c0 .032-.01.058-.029.077a.119.119 0 0 1-.086.038h-.878a.09.09 0 0 1-.077-.038.091.091 0 0 1-.038-.076v-6.479c0-.032.013-.057.038-.076a.09.09 0 0 1 .077-.038h.878a.15.15 0 0 1 .134.076l1.556 2.367c.013.013.026.02.039.02.012 0 .022-.007.028-.02L58 70.287Zm7.047.767c0 .032-.01.057-.028.076a.119.119 0 0 1-.086.039h-3.257c-.032 0-.047.016-.047.048v1.792c0 .032.015.048.047.048h2.187c.032 0 .06.01.086.028a.14.14 0 0 1 .029.087v.728a.14.14 0 0 1-.029.086.139.139 0 0 1-.086.029h-2.187c-.032 0-.047.016-.047.048v1.85c0 .031.015.047.047.047h3.257c.031 0 .06.013.086.039.019.019.028.044.028.076v.728c0 .032-.01.058-.028.077a.119.119 0 0 1-.086.038h-4.298a.09.09 0 0 1-.076-.038.091.091 0 0 1-.038-.076v-6.479c0-.032.012-.057.038-.076a.09.09 0 0 1 .076-.038h4.298c.031 0 .06.012.086.038.019.019.028.044.028.076v.729Zm4.88 5.864a.135.135 0 0 1-.134-.086l-1.26-2.76c-.013-.025-.032-.038-.058-.038H67.33c-.032 0-.048.016-.048.048v2.722a.091.091 0 0 1-.038.076.09.09 0 0 1-.077.038h-.878a.09.09 0 0 1-.077-.038.091.091 0 0 1-.038-.076v-6.479c0-.032.013-.057.038-.076a.09.09 0 0 1 .077-.038h2.626c.388 0 .732.08 1.031.239.3.166.532.396.697.69.166.3.248.642.248 1.025 0 .441-.114.815-.343 1.122a1.72 1.72 0 0 1-.936.651c-.013 0-.023.007-.029.02a.04.04 0 0 0 0 .038l1.347 2.788c.012.026.019.045.019.058 0 .051-.035.076-.105.076h-.917Zm-2.597-5.75c-.032 0-.048.017-.048.049v1.907c0 .032.016.048.047.048h1.433c.306 0 .55-.093.735-.278.191-.18.287-.419.287-.719s-.096-.543-.287-.728c-.184-.186-.43-.278-.735-.278h-1.432Z" fill="#fff"/><path d="M41.664 94.078c-.019.02-.025.039-.019.058.013.02.032.029.057.029h3.753c.045 0 .083.016.115.048.038.032.057.07.057.115v1.35c0 .046-.019.084-.057.116a.156.156 0 0 1-.115.048H39.23a.168.168 0 0 1-.124-.048.157.157 0 0 1-.048-.115v-1.284c0-.083.029-.154.086-.211.452-.441.914-.923 1.385-1.447s.767-.85.888-.978c.255-.306.516-.6.783-.881.84-.933 1.26-1.626 1.26-2.08 0-.326-.114-.594-.343-.805-.23-.204-.529-.306-.898-.306-.37 0-.668.102-.898.306-.235.211-.353.489-.353.834v.345a.157.157 0 0 1-.048.115.156.156 0 0 1-.114.048h-1.633a.156.156 0 0 1-.115-.048.145.145 0 0 1-.057-.115v-.652c.032-.498.191-.942.477-1.332a2.756 2.756 0 0 1 1.137-.881A4.036 4.036 0 0 1 42.218 86c.656 0 1.226.125 1.71.374.483.243.856.572 1.117.987.267.421.4.885.4 1.39 0 .389-.098.788-.295 1.197-.191.409-.48.85-.87 1.323-.286.357-.594.715-.925 1.073-.331.351-.825.86-1.48 1.524l-.21.21Zm8.461 1.917c-1.019 0-1.82-.284-2.406-.853-.593-.569-.889-1.345-.889-2.328v-3.67c0-.966.297-1.729.889-2.291.585-.569 1.387-.853 2.406-.853 1.012 0 1.818.284 2.416.853.592.562.888 1.326.888 2.29v3.67c0 .984-.296 1.76-.888 2.33-.598.568-1.404.852-2.416.852Zm0-1.677c.414 0 .742-.128.984-.383.248-.256.372-.598.372-1.026v-3.823c0-.422-.124-.76-.372-1.016-.242-.256-.57-.383-.984-.383-.407 0-.732.127-.974.383-.248.256-.372.594-.372 1.016v3.823c0 .428.124.77.372 1.026.242.255.567.383.974.383Zm7.181-.24c-.019.02-.022.039-.01.058.007.02.026.029.058.029h3.753c.044 0 .083.016.114.048.032.032.048.07.048.115v1.35a.157.157 0 0 1-.048.116.156.156 0 0 1-.114.048H54.87a.156.156 0 0 1-.114-.048.157.157 0 0 1-.048-.115v-1.284c0-.083.025-.154.076-.211.459-.441.92-.923 1.385-1.447.47-.524.767-.85.888-.978.26-.306.525-.6.792-.881.84-.933 1.261-1.626 1.261-2.08 0-.326-.115-.594-.344-.805-.235-.204-.538-.306-.907-.306-.37 0-.668.102-.898.306-.229.211-.343.489-.343.834v.345a.157.157 0 0 1-.048.115.168.168 0 0 1-.124.048h-1.633a.156.156 0 0 1-.115-.048.157.157 0 0 1-.048-.115v-.652c.026-.498.182-.942.468-1.332a2.745 2.745 0 0 1 1.146-.881A4.01 4.01 0 0 1 57.86 86c.656 0 1.226.125 1.71.374.49.243.865.572 1.126.987.261.421.392.885.392 1.39 0 .389-.096.788-.287 1.197-.197.409-.49.85-.878 1.323a19.89 19.89 0 0 1-.927 1.073c-.33.351-.824.86-1.48 1.524l-.21.21Zm6.522-7.925a.475.475 0 0 1 .21-.038h1.681c.045 0 .083.016.115.048s.047.07.047.115v9.4a.157.157 0 0 1-.047.116.156.156 0 0 1-.115.048h-1.623a.156.156 0 0 1-.115-.048.145.145 0 0 1-.057-.115V88.06a.104.104 0 0 0-.02-.057c-.018-.02-.037-.022-.057-.01l-1.375.374-.057.01c-.083 0-.124-.051-.124-.154l-.038-1.188c0-.096.041-.163.124-.201l1.451-.68Z" fill="#3D3D3D"/></svg>
