<svg xmlns="http://www.w3.org/2000/svg" width="106" height="129" fill="none" viewBox="0 0 106 129"><path stroke="url(#a)" stroke-width="1.5" d="M105.25 100.759 53 128.153.75 100.759V.75h104.5v100.009Z"/><path fill="#fff" d="m15 91 38 20 38-20V15H15v76Z"/><path fill="#F2F3F2" d="M91 15 15 91.5 53 111l38-20V15Z"/><path fill="#DCDEDC" d="m13 92 40 21 40-21V13H13v79Zm3-1.5V16h74v74.5L53 110 16 90.5Z"/><path fill="#FF492C" d="M53.048 16.74c.388 0 .775 0 1.163.095l-1.163 2.205c-1.743-.096-3.294 1.247-3.39 2.973-.097 1.725 1.259 3.26 3.003 3.355h.387c.775 0 1.55-.287 2.132-.767l1.26 2.11a5.915 5.915 0 0 1-3.392 1.054c-3.1.096-5.715-2.205-5.812-5.273-.097-3.068 2.228-5.657 5.328-5.753h.484Zm3.972 4.697 1.454 2.397-1.454 2.301-1.356-2.3h-2.81l1.454-2.398h2.712Zm-2.325-.863c0-.383.097-.767.29-1.054.195-.288.582-.576.873-.767l.194-.096c.387-.192.484-.288.484-.48 0-.191-.29-.383-.484-.383-.388 0-.679.192-.872.575l-.485-.48c.097-.191.29-.383.485-.575.29-.191.581-.191.872-.191.29 0 .678.096.871.287.194.192.388.48.388.767 0 .48-.29.863-.872 1.055l-.29.192c-.291.192-.485.287-.582.575h1.744v.671l-2.616-.096ZM53.048 32.56l9.204-5.177V13H43.748v14.286l9.3 5.273Z"/><path fill="#23CCA2" d="M94.997 66H11.1L8 73l3.1 7h83.897L98 73l-3.003-7Z"/><path fill="#252530" d="M24.508 58.34c-.045.02-.045.039 0 .058.672.345 1.008.917 1.008 1.716 0 .684-.236 1.202-.707 1.553-.465.346-1.079.518-1.841.518h-2.761a.12.12 0 0 1-.087-.038.119.119 0 0 1-.039-.086v-7.134c0-.032.013-.06.039-.086a.12.12 0 0 1 .087-.038h2.674c1.686 0 2.528.674 2.528 2.023 0 .703-.3 1.208-.9 1.515Zm-2.867-2.262c-.039 0-.058.02-.058.057v1.64c0 .038.019.057.058.057h1.24c.336 0 .597-.08.785-.24a.775.775 0 0 0 .27-.623c0-.274-.09-.492-.27-.651-.188-.16-.45-.24-.785-.24h-1.24Zm1.327 4.822c.33 0 .584-.083.765-.249.188-.166.281-.393.281-.68 0-.288-.093-.515-.28-.681-.182-.166-.44-.25-.776-.25h-1.317c-.039 0-.058.02-.058.058v1.745c0 .038.019.057.058.057h1.327Zm6.762-4.007c0-.038.01-.07.03-.096a.158.158 0 0 1 .096-.029h1.24c.039 0 .071.01.097.029a.13.13 0 0 1 .039.096v5.168c0 .032-.013.06-.039.086a.132.132 0 0 1-.097.038h-1.24a.132.132 0 0 1-.097-.038.139.139 0 0 1-.029-.086v-.365c0-.019-.01-.029-.029-.029-.013-.006-.026 0-.039.02-.284.383-.723.575-1.317.575-.543 0-.988-.163-1.337-.489-.349-.32-.523-.773-.523-1.362v-3.518c0-.038.013-.07.038-.096a.142.142 0 0 1 .088-.029h1.24c.032 0 .061.01.087.029a.13.13 0 0 1 .039.096v3.154c0 .281.077.508.232.68.149.18.359.27.63.27a.837.837 0 0 0 .6-.221.942.942 0 0 0 .291-.566v-3.317Zm4.796 5.369c-.478 0-.895-.067-1.25-.201-.355-.135-.63-.32-.824-.556-.2-.243-.3-.515-.3-.815v-.106a.13.13 0 0 1 .039-.096.159.159 0 0 1 .097-.029h1.182c.032 0 .061.01.087.03a.13.13 0 0 1 .039.095v.01c0 .153.087.284.261.393.175.108.39.163.65.163.245 0 .442-.048.59-.144.149-.096.223-.211.223-.345 0-.128-.065-.224-.194-.288a3.293 3.293 0 0 0-.63-.201 6.596 6.596 0 0 1-.784-.24c-.452-.16-.814-.351-1.085-.575-.272-.224-.407-.547-.407-.968 0-.518.203-.93.61-1.237.407-.307.95-.46 1.628-.46.452 0 .85.07 1.191.21.343.147.608.352.795.614.187.256.28.55.28.882 0 .038-.012.067-.038.086-.02.026-.048.039-.087.039h-1.143a.12.12 0 0 1-.088-.039c-.025-.019-.038-.047-.038-.086 0-.153-.081-.284-.242-.393-.156-.102-.365-.153-.63-.153-.233 0-.423.041-.572.124-.155.083-.232.198-.232.345 0 .141.074.247.222.317.15.07.391.147.727.23l.271.067.32.086c.504.147.901.336 1.192.566.29.236.436.575.436 1.016 0 .518-.207.924-.62 1.218-.42.294-.979.441-1.676.441Zm3.972-6.107a.8.8 0 0 1-.601-.24.803.803 0 0 1-.242-.594c0-.25.077-.451.232-.605.155-.153.359-.23.61-.23.246 0 .45.077.611.23a.812.812 0 0 1 .233.605c0 .236-.081.434-.243.594a.82.82 0 0 1-.6.24Zm-.64 6.03c-.038 0-.068-.013-.087-.038a.119.119 0 0 1-.039-.086v-5.178a.13.13 0 0 1 .039-.096c.02-.025.048-.038.087-.038h1.25c.032 0 .061.013.087.038a.13.13 0 0 1 .039.096v5.178c0 .032-.013.06-.039.086a.121.121 0 0 1-.087.038h-1.25Zm5.406-5.503c.568 0 1.024.172 1.366.518.349.345.523.811.523 1.4v3.46c0 .033-.01.061-.029.087a.132.132 0 0 1-.097.038h-1.25a.12.12 0 0 1-.087-.038.119.119 0 0 1-.038-.086v-3.155c0-.281-.078-.511-.233-.69a.835.835 0 0 0-.64-.259c-.264 0-.474.086-.63.259-.16.179-.241.409-.241.69v3.155c0 .032-.013.06-.039.086a.12.12 0 0 1-.087.038h-1.25c-.039 0-.068-.013-.087-.038a.119.119 0 0 1-.039-.086v-5.168a.13.13 0 0 1 .039-.096c.02-.02.048-.029.087-.029h1.25c.032 0 .061.01.087.029a.13.13 0 0 1 .039.096v.364c0 .026.006.042.02.048.012.007.022.003.028-.01.29-.409.727-.613 1.308-.613Zm7.79 2.234c.038.268.05.569.038.901-.007.083-.052.125-.136.125h-3.294c-.045 0-.061.016-.048.048.026.14.068.28.126.421.18.397.555.595 1.124.595.458-.006.817-.189 1.075-.547.032-.044.065-.067.097-.067.02 0 .045.013.077.039l.766.757c.038.032.058.06.058.086 0 .02-.016.048-.049.087a2.325 2.325 0 0 1-.9.67c-.375.16-.782.24-1.221.24-.607 0-1.124-.137-1.55-.412a2.322 2.322 0 0 1-.911-1.15c-.148-.352-.223-.812-.223-1.38 0-.39.055-.733.165-1.027.161-.498.446-.895.852-1.189.407-.294.892-.44 1.454-.44.71 0 1.282.204 1.714.613.427.403.688.946.785 1.63Zm-2.49-.959c-.446 0-.74.208-.882.623a3.89 3.89 0 0 0-.078.336c0 .038.02.057.058.057h1.841c.045 0 .061-.019.048-.057a8.932 8.932 0 0 0-.058-.297.903.903 0 0 0-.339-.49.964.964 0 0 0-.59-.172Zm5.57 4.305c-.478 0-.895-.067-1.25-.201-.355-.135-.63-.32-.823-.556-.2-.243-.3-.515-.3-.815v-.106a.13.13 0 0 1 .038-.096.159.159 0 0 1 .097-.029h1.182c.032 0 .061.01.087.03a.13.13 0 0 1 .039.095v.01c0 .153.087.284.261.393.175.108.391.163.65.163.245 0 .442-.048.59-.144.149-.096.223-.211.223-.345 0-.128-.064-.224-.194-.288a3.288 3.288 0 0 0-.63-.201 6.593 6.593 0 0 1-.784-.24c-.452-.16-.814-.351-1.085-.575-.271-.224-.407-.547-.407-.968 0-.518.203-.93.61-1.237.407-.307.95-.46 1.628-.46.452 0 .85.07 1.192.21.342.147.607.352.794.614.187.256.28.55.28.882 0 .038-.012.067-.038.086-.02.026-.048.039-.087.039h-1.143a.121.121 0 0 1-.087-.039c-.026-.019-.04-.047-.04-.086 0-.153-.08-.284-.241-.393-.155-.102-.365-.153-.63-.153-.233 0-.423.041-.572.124-.155.083-.232.198-.232.345 0 .141.074.247.223.317.148.07.39.147.726.23l.272.067.32.086c.503.147.9.336 1.19.566.291.236.437.575.437 1.016 0 .518-.207.924-.62 1.218-.42.294-.979.441-1.676.441Zm5.27 0c-.478 0-.895-.067-1.25-.201-.355-.135-.63-.32-.823-.556a1.274 1.274 0 0 1-.29-.815v-.106a.13.13 0 0 1 .038-.096.143.143 0 0 1 .087-.029h1.182c.039 0 .071.01.097.03.02.025.029.057.029.095v.01c0 .153.087.284.262.393.174.108.394.163.658.163.24 0 .433-.048.582-.144.155-.096.232-.211.232-.345 0-.128-.064-.224-.194-.288a3.293 3.293 0 0 0-.63-.201 6.467 6.467 0 0 1-.794-.24c-.452-.16-.814-.351-1.085-.575-.271-.224-.407-.547-.407-.968 0-.518.207-.93.62-1.237.407-.307.95-.46 1.628-.46.452 0 .85.07 1.192.21.335.147.6.352.794.614.187.256.28.55.28.882 0 .038-.012.067-.038.086a.121.121 0 0 1-.087.039h-1.143c-.039 0-.068-.013-.087-.039-.026-.019-.04-.047-.04-.086 0-.153-.08-.284-.241-.393-.162-.102-.372-.153-.63-.153-.24 0-.433.041-.581.124-.149.083-.223.198-.223.345 0 .141.074.247.223.317.142.07.384.147.726.23a18.552 18.552 0 0 1 .581.153c.504.147.905.336 1.202.566.29.236.436.575.436 1.016 0 .518-.21.924-.63 1.218-.413.294-.972.441-1.676.441Zm7.043-.077c-.078 0-.126-.035-.145-.105l-1.89-7.143-.01-.038c0-.064.04-.096.117-.096h1.327c.071 0 .117.035.136.105l1.008 4.295c.006.026.019.039.038.039.013 0 .023-.013.03-.038l.978-4.286c.02-.077.064-.115.135-.115h1.289c.084 0 .136.035.155.105l1.066 4.295c.006.02.016.032.029.039.013 0 .022-.013.029-.038l.988-4.286c.02-.077.064-.115.135-.115h1.26c.097 0 .136.044.116.134l-1.753 7.143c-.02.07-.068.105-.146.105H70.07c-.07 0-.116-.035-.135-.105l-1.085-4.564c-.007-.032-.02-.048-.04-.048-.012 0-.022.016-.028.048l-1.008 4.554c-.02.077-.067.115-.145.115h-1.182Zm8.41-6.03a.82.82 0 0 1-.602-.24.803.803 0 0 1-.242-.594c0-.25.078-.451.233-.605a.851.851 0 0 1 .61-.23c.252 0 .455.077.61.23a.812.812 0 0 1 .233.605c0 .236-.08.434-.242.594a.82.82 0 0 1-.6.24Zm-.64 6.03a.12.12 0 0 1-.088-.038.119.119 0 0 1-.038-.086v-5.178a.13.13 0 0 1 .038-.096.12.12 0 0 1 .088-.038h1.25a.12.12 0 0 1 .087.038.13.13 0 0 1 .038.096v5.178c0 .032-.013.06-.038.086a.12.12 0 0 1-.088.038h-1.25Zm5.686-4.353c0 .032-.01.061-.029.087a.132.132 0 0 1-.096.038H78.76c-.038 0-.058.016-.058.048v2.243c0 .23.049.403.145.518.097.109.252.163.466.163h.348c.039 0 .071.013.097.039a.14.14 0 0 1 .03.086v1.007c0 .076-.043.121-.127.134-.297.013-.51.019-.64.019-.587 0-1.026-.096-1.317-.288-.29-.191-.439-.556-.445-1.093v-2.828c0-.032-.02-.048-.058-.048h-.61a.12.12 0 0 1-.088-.038.119.119 0 0 1-.039-.087v-.94a.13.13 0 0 1 .039-.095.142.142 0 0 1 .087-.029h.61c.04 0 .059-.019.059-.057v-1.256c0-.032.01-.061.029-.087a.132.132 0 0 1 .097-.038h1.191a.12.12 0 0 1 .087.038.119.119 0 0 1 .04.087v1.256c0 .038.019.057.057.057h1.017c.04 0 .072.01.097.029.02.026.03.058.03.096v.94Zm3.769-1.15c.568 0 1.027.172 1.376.518.348.345.523.811.523 1.4v3.46c0 .033-.013.061-.039.087a.132.132 0 0 1-.097.038h-1.24a.132.132 0 0 1-.097-.038.139.139 0 0 1-.029-.086v-3.155c0-.281-.08-.511-.242-.69a.834.834 0 0 0-.64-.259.823.823 0 0 0-.63.259c-.16.179-.241.409-.241.69v3.155c0 .032-.013.06-.039.086a.121.121 0 0 1-.087.038h-1.25a.12.12 0 0 1-.087-.038.118.118 0 0 1-.039-.086v-7.134c0-.032.013-.06.039-.086a.12.12 0 0 1 .087-.038h1.25c.032 0 .061.013.087.038a.119.119 0 0 1 .039.086v2.33c0 .026.006.042.02.048.012.007.025.003.038-.01.29-.409.723-.613 1.298-.613ZM26.978 45.406c0 .032-.013.061-.038.087a.133.133 0 0 1-.097.038h-3.488c-.039 0-.058.02-.058.058v1.63c0 .038.02.057.058.057h2.287c.038 0 .07.01.096.029.02.025.03.057.03.096v1.025a.14.14 0 0 1-.03.087.132.132 0 0 1-.096.038h-2.287c-.039 0-.058.016-.058.048v1.707c0 .038.02.057.058.057h3.488c.038 0 .07.013.097.039a.119.119 0 0 1 .038.086v1.026c0 .032-.013.06-.038.086a.133.133 0 0 1-.097.038H21.92a.121.121 0 0 1-.087-.038.119.119 0 0 1-.039-.086V44.38c0-.032.013-.06.04-.086a.12.12 0 0 1 .086-.038h4.922c.038 0 .07.013.097.038a.119.119 0 0 1 .038.087v1.025Zm3.13.729c.465 0 .878.08 1.24.24.361.153.642.367.843.642.2.275.3.582.3.92v3.577a.14.14 0 0 1-.03.086.132.132 0 0 1-.096.038h-1.24a.132.132 0 0 1-.097-.038.119.119 0 0 1-.039-.086v-.345c0-.026-.006-.042-.02-.048-.012-.007-.025 0-.038.019-.297.39-.778.585-1.443.585-.556 0-1.002-.135-1.337-.403-.343-.269-.514-.662-.514-1.18 0-.543.19-.965.572-1.265.387-.294.936-.44 1.647-.44h1.085c.032 0 .048-.02.048-.058v-.23c0-.23-.07-.413-.213-.547-.142-.128-.355-.192-.64-.192-.219 0-.4.039-.542.115a.517.517 0 0 0-.28.326c-.027.077-.075.112-.146.106l-1.289-.163c-.084-.02-.122-.051-.116-.096.026-.3.145-.569.359-.806.206-.236.484-.421.833-.556a3.136 3.136 0 0 1 1.153-.201Zm-.214 4.477c.304 0 .562-.08.776-.24a.744.744 0 0 0 .32-.622v-.374c0-.039-.017-.058-.05-.058h-.765c-.323 0-.574.06-.755.182a.565.565 0 0 0-.272.508c0 .186.068.333.204.441.136.11.316.163.542.163Zm5.842 1.103c-.478 0-.894-.067-1.25-.201-.355-.135-.63-.32-.823-.556a1.275 1.275 0 0 1-.29-.815v-.106a.13.13 0 0 1 .038-.096c.02-.019.049-.028.087-.028h1.182c.032 0 .062.01.087.028a.129.129 0 0 1 .04.096v.01c0 .153.086.284.26.393.175.109.395.163.66.163.239 0 .432-.048.58-.144.15-.096.224-.21.224-.345 0-.128-.062-.224-.184-.288a3.282 3.282 0 0 0-.63-.201 6.482 6.482 0 0 1-.795-.24c-.452-.16-.813-.351-1.085-.575-.27-.224-.407-.547-.407-.968 0-.518.207-.93.62-1.237.407-.307.947-.46 1.618-.46.459 0 .856.07 1.192.21.342.148.607.352.794.614.194.256.291.55.291.882 0 .039-.013.067-.039.087a.132.132 0 0 1-.097.038h-1.133a.132.132 0 0 1-.097-.038c-.026-.02-.039-.048-.039-.087 0-.153-.077-.284-.232-.393-.162-.102-.375-.153-.64-.153-.232 0-.423.041-.571.124-.149.084-.223.198-.223.346 0 .14.071.246.213.316.149.07.394.147.736.23a17.667 17.667 0 0 1 .582.153c.503.148.9.336 1.191.566.29.237.436.575.436 1.016 0 .518-.206.924-.62 1.218-.413.294-.972.441-1.676.441Zm3.972-6.107a.82.82 0 0 1-.6-.24.803.803 0 0 1-.243-.594c0-.25.078-.451.233-.604a.85.85 0 0 1 .61-.23c.252 0 .456.076.61.23a.812.812 0 0 1 .233.604c0 .236-.08.434-.242.594a.8.8 0 0 1-.6.24Zm-.64 6.03a.121.121 0 0 1-.086-.038.119.119 0 0 1-.04-.086v-5.178a.13.13 0 0 1 .04-.096.121.121 0 0 1 .087-.038h1.25a.12.12 0 0 1 .087.038.13.13 0 0 1 .038.096v5.178c0 .032-.012.06-.038.086a.121.121 0 0 1-.087.038h-1.25Zm7.402-3.269c.04.268.052.569.04.901-.007.083-.053.125-.136.125H43.08c-.046 0-.062.016-.049.048.026.14.065.281.116.422.188.396.566.594 1.134.594.452-.006.81-.188 1.075-.546.032-.045.065-.067.097-.067.02 0 .045.012.078.038l.765.757c.032.032.048.061.048.087 0 .019-.013.047-.038.086a2.326 2.326 0 0 1-.901.671c-.375.16-.782.24-1.221.24-.607 0-1.124-.138-1.55-.413a2.321 2.321 0 0 1-.91-1.15c-.15-.352-.223-.812-.223-1.38 0-.39.051-.733.155-1.027.167-.498.455-.895.862-1.189.407-.294.891-.44 1.453-.44.71 0 1.282.204 1.715.613.426.403.688.946.784 1.63Zm-2.49-.959c-.445 0-.739.208-.881.623a3.86 3.86 0 0 0-.077.336c0 .038.019.057.058.057h1.84c.045 0 .058-.019.039-.057a10.653 10.653 0 0 0-.048-.297.903.903 0 0 0-.34-.49.965.965 0 0 0-.59-.172Zm5.561 4.305a3.5 3.5 0 0 1-1.24-.201c-.355-.135-.63-.32-.823-.556a1.25 1.25 0 0 1-.3-.815v-.106a.13.13 0 0 1 .038-.096.142.142 0 0 1 .087-.028h1.192c.032 0 .061.01.087.028a.13.13 0 0 1 .039.096v.01c0 .153.087.284.262.393.174.109.39.163.649.163.245 0 .442-.048.59-.144.15-.096.224-.21.224-.345 0-.128-.065-.224-.194-.288a3.287 3.287 0 0 0-.63-.201 6.604 6.604 0 0 1-.785-.24c-.458-.16-.82-.351-1.085-.575-.271-.224-.407-.547-.407-.968 0-.518.204-.93.61-1.237.408-.307.95-.46 1.628-.46.452 0 .85.07 1.192.21.342.148.607.352.794.614.188.256.281.55.281.882 0 .039-.013.067-.039.087a.12.12 0 0 1-.087.038h-1.143a.12.12 0 0 1-.087-.038c-.026-.02-.039-.048-.039-.087 0-.153-.08-.284-.242-.393-.155-.102-.365-.153-.63-.153a1.22 1.22 0 0 0-.581.124c-.149.084-.223.198-.223.346 0 .14.074.246.223.316.142.07.384.147.727.23l.27.067.32.086c.504.148.901.336 1.192.566.29.237.436.575.436 1.016 0 .518-.207.924-.62 1.218-.42.294-.982.441-1.686.441Zm6.307-4.43c0 .033-.013.061-.039.087a.132.132 0 0 1-.096.038h-1.018c-.038 0-.058.016-.058.048v2.244c0 .23.049.402.145.517.097.11.252.163.466.163h.348c.039 0 .071.013.097.039a.119.119 0 0 1 .039.086v1.007c0 .076-.045.121-.136.134-.297.013-.51.02-.64.02-.587 0-1.026-.097-1.317-.288-.29-.192-.439-.557-.445-1.094v-2.828c0-.032-.02-.048-.058-.048h-.61a.121.121 0 0 1-.088-.038.119.119 0 0 1-.039-.086v-.94a.13.13 0 0 1 .039-.096.143.143 0 0 1 .087-.029h.61c.04 0 .059-.019.059-.057v-1.256c0-.032.013-.06.038-.087.02-.025.049-.038.088-.038h1.191c.039 0 .068.013.087.038a.119.119 0 0 1 .04.087v1.256c0 .038.019.057.057.057h1.017c.04 0 .072.01.097.03a.13.13 0 0 1 .04.095v.94Zm8.274-3.03c.038 0 .07.014.096.04a.118.118 0 0 1 .04.085v1.036c0 .038-.014.067-.04.086a.132.132 0 0 1-.096.039h-1.909c-.032 0-.048.019-.048.057v5.916c0 .032-.013.06-.04.086a.121.121 0 0 1-.086.038h-1.25a.121.121 0 0 1-.087-.038.119.119 0 0 1-.039-.086v-5.916c0-.038-.02-.057-.058-.057h-1.85c-.04 0-.068-.013-.088-.039-.026-.019-.038-.048-.038-.086v-1.035c0-.032.013-.061.038-.087.02-.025.049-.038.087-.038h5.368Zm2.518 7.47c-.594 0-1.104-.157-1.53-.47a2.339 2.339 0 0 1-.882-1.266 3.76 3.76 0 0 1-.145-1.073c0-.416.048-.787.145-1.113.168-.524.465-.933.891-1.227.427-.294.937-.441 1.531-.441.581 0 1.079.144 1.492.431.413.294.704.704.872 1.228.116.351.174.719.174 1.102 0 .377-.051.732-.155 1.065-.155.55-.442.98-.862 1.294-.426.313-.936.47-1.53.47Zm0-1.276c.233 0 .433-.07.601-.21.162-.141.278-.336.349-.585.058-.224.087-.47.087-.739 0-.294-.03-.543-.087-.747a1.147 1.147 0 0 0-.368-.556.894.894 0 0 0-.591-.202c-.246 0-.446.067-.6.202a1.12 1.12 0 0 0-.35.556c-.058.172-.087.422-.087.748 0 .32.026.565.078.738.07.249.19.444.358.585.168.14.371.21.61.21Zm5.871 1.19a.121.121 0 0 1-.087-.039.119.119 0 0 1-.039-.086V44.38c0-.032.013-.06.039-.086a.121.121 0 0 1 .087-.038h2.664c.537 0 1.005.093 1.405.278.4.185.71.447.93.786.22.339.33.729.33 1.17v2.914c0 .441-.11.831-.33 1.17-.22.339-.53.601-.93.786-.4.186-.868.278-1.405.278h-2.664Zm1.376-1.333c0 .038.016.057.048.057h1.299c.322 0 .584-.108.784-.326.207-.217.314-.508.32-.872v-2.426c0-.37-.1-.665-.3-.882-.207-.217-.482-.326-.824-.326h-1.279c-.032 0-.048.02-.048.058v4.717Zm7.401 1.419c-.594 0-1.104-.157-1.53-.47a2.29 2.29 0 0 1-.872-1.266 3.54 3.54 0 0 1-.155-1.073c0-.416.052-.787.155-1.113.161-.524.455-.933.881-1.227.427-.294.94-.441 1.54-.441.582 0 1.08.144 1.493.431.407.294.697.704.872 1.228.11.351.164.719.164 1.102 0 .377-.048.732-.145 1.065-.155.55-.446.98-.872 1.294-.42.313-.93.47-1.53.47Zm0-1.276c.24 0 .44-.07.601-.21.162-.141.278-.336.349-.585a2.93 2.93 0 0 0 .087-.739c0-.294-.029-.543-.087-.747a1.18 1.18 0 0 0-.359-.556.908.908 0 0 0-.6-.202.908.908 0 0 0-.6.202 1.12 1.12 0 0 0-.35.556c-.051.172-.077.422-.077.748 0 .32.022.565.068.738.07.249.19.444.358.585a.92.92 0 0 0 .61.21Z"/><path fill="#242530" d="M37.49 76.865c-.504 0-.943-.08-1.318-.24a2.017 2.017 0 0 1-.872-.671c-.2-.288-.3-.626-.3-1.016v-.24c0-.032.013-.06.039-.086a.105.105 0 0 1 .077-.03h.862c.033 0 .062.01.088.03a.14.14 0 0 1 .029.086v.182c0 .294.132.537.397.729.265.198.626.297 1.085.297.394 0 .691-.083.891-.25.2-.165.3-.38.3-.642a.683.683 0 0 0-.164-.46 1.603 1.603 0 0 0-.465-.335c-.207-.103-.514-.23-.92-.384a9.643 9.643 0 0 1-1.115-.47 2.009 2.009 0 0 1-.707-.604c-.194-.249-.29-.562-.29-.94 0-.562.206-1.006.62-1.332.413-.326.965-.489 1.656-.489.485 0 .914.083 1.289.25.368.165.655.399.862.7.207.293.31.635.31 1.025v.163c0 .032-.013.06-.039.086a.106.106 0 0 1-.077.03h-.872a.105.105 0 0 1-.078-.03.119.119 0 0 1-.038-.086v-.105c0-.3-.123-.553-.369-.758-.252-.21-.597-.316-1.036-.316-.355 0-.63.073-.824.22-.2.147-.3.355-.3.623a.7.7 0 0 0 .155.47c.103.122.258.23.465.326.207.103.526.23.96.384.458.172.826.329 1.104.47a2.2 2.2 0 0 1 .707.584c.194.256.29.573.29.95 0 .575-.216 1.032-.649 1.37-.426.34-1.01.509-1.753.509Zm5.91 0c-.479 0-.902-.093-1.27-.278a2.021 2.021 0 0 1-.852-.786 2.27 2.27 0 0 1-.31-1.19v-4.42a.09.09 0 0 1 .038-.076.092.092 0 0 1 .078-.038h.891a.12.12 0 0 1 .087.038c.02.02.03.045.03.077v4.439c0 .377.119.684.358.92.239.237.555.355.95.355.393 0 .71-.118.949-.355.239-.236.358-.543.358-.92v-4.44a.09.09 0 0 1 .039-.076.092.092 0 0 1 .078-.038h.89a.12.12 0 0 1 .088.038c.02.02.029.045.029.077v4.42c0 .447-.1.843-.3 1.189-.2.338-.485.6-.853.786-.368.185-.794.278-1.279.278Zm8.157-6.712a.152.152 0 0 1 .135-.076h.891a.12.12 0 0 1 .088.038c.019.02.029.045.029.077v6.481c0 .032-.01.058-.03.077a.121.121 0 0 1-.087.038h-.89a.121.121 0 0 1-.088-.038.103.103 0 0 1-.03-.077V72.1c0-.02-.009-.032-.028-.039-.013-.006-.023 0-.03.02l-1.21 1.84a.152.152 0 0 1-.136.077h-.446a.152.152 0 0 1-.135-.077l-1.22-1.83c-.007-.02-.02-.026-.04-.02-.012.006-.019.02-.019.038v4.564c0 .032-.01.058-.029.077a.121.121 0 0 1-.087.038h-.891a.093.093 0 0 1-.078-.038.09.09 0 0 1-.039-.077v-6.481a.09.09 0 0 1 .039-.077.093.093 0 0 1 .078-.038h.89c.059 0 .104.025.136.076l1.58 2.369c.013.012.025.019.038.019.013 0 .023-.007.03-.02l1.578-2.368Zm6.926 0a.152.152 0 0 1 .136-.076h.891c.032 0 .058.013.078.038a.09.09 0 0 1 .038.077v6.481a.09.09 0 0 1-.038.077.092.092 0 0 1-.078.038h-.891a.093.093 0 0 1-.078-.038.09.09 0 0 1-.038-.077V72.1c0-.02-.007-.032-.02-.039-.02-.006-.032 0-.038.02l-1.211 1.84a.152.152 0 0 1-.136.077h-.446a.152.152 0 0 1-.135-.077l-1.221-1.83c-.006-.02-.016-.026-.029-.02-.02.006-.03.02-.03.038v4.564c0 .032-.009.058-.028.077a.121.121 0 0 1-.087.038h-.892a.092.092 0 0 1-.077-.038.09.09 0 0 1-.039-.077v-6.481a.09.09 0 0 1 .039-.077.092.092 0 0 1 .077-.038h.892c.058 0 .103.025.135.076l1.58 2.369c.012.012.025.019.038.019.013 0 .023-.007.03-.02l1.578-2.368Zm7.15.767c0 .032-.01.058-.03.077a.121.121 0 0 1-.086.038h-3.304c-.032 0-.048.017-.048.048v1.793c0 .032.016.048.048.048h2.219c.032 0 .061.01.087.029a.14.14 0 0 1 .029.086v.729a.14.14 0 0 1-.03.086.143.143 0 0 1-.086.029h-2.219c-.032 0-.048.016-.048.048v1.85c0 .032.016.048.048.048h3.304c.032 0 .061.013.087.039.02.019.029.044.029.076v.73c0 .031-.01.057-.03.076a.121.121 0 0 1-.086.038h-4.36a.092.092 0 0 1-.077-.038.09.09 0 0 1-.04-.077v-6.481a.09.09 0 0 1 .04-.077.092.092 0 0 1 .077-.038h4.36c.032 0 .061.013.087.038.02.02.029.045.029.077v.728Zm4.95 5.868a.137.137 0 0 1-.135-.086l-1.279-2.761c-.013-.026-.032-.039-.058-.039h-1.163c-.032 0-.048.016-.048.048v2.723a.09.09 0 0 1-.039.077.092.092 0 0 1-.077.038h-.892a.092.092 0 0 1-.077-.038.09.09 0 0 1-.039-.077v-6.481a.09.09 0 0 1 .039-.077.092.092 0 0 1 .077-.038h2.665c.394 0 .742.08 1.046.24.303.166.54.396.707.69.168.3.252.642.252 1.026 0 .44-.116.815-.349 1.121-.226.314-.542.53-.95.652-.012 0-.022.007-.028.02a.04.04 0 0 0 0 .038l1.366 2.79c.013.025.019.045.019.057 0 .052-.035.077-.107.077h-.93Zm-2.635-5.752c-.032 0-.048.016-.048.047v1.908c0 .032.016.048.048.048h1.454c.31 0 .558-.092.745-.278.194-.179.291-.418.291-.719 0-.3-.097-.543-.29-.728-.188-.186-.436-.278-.746-.278h-1.454Z"/><path fill="#252530" d="M41.927 94.266c-.02.02-.026.038-.02.058.014.019.033.028.059.028h3.807a.16.16 0 0 1 .116.048c.04.032.058.07.058.115v1.352c0 .045-.019.083-.058.115a.16.16 0 0 1-.116.048h-6.316a.172.172 0 0 1-.126-.048.156.156 0 0 1-.049-.115v-1.285c0-.083.03-.153.087-.21a30.85 30.85 0 0 0 1.405-1.448c.478-.524.778-.85.901-.978.259-.307.523-.601.794-.882.853-.933 1.28-1.627 1.28-2.08a1.04 1.04 0 0 0-.35-.806c-.232-.205-.535-.307-.91-.307s-.678.102-.91.307c-.24.21-.36.489-.36.834v.345a.156.156 0 0 1-.048.115.16.16 0 0 1-.116.048h-1.657a.16.16 0 0 1-.116-.048.145.145 0 0 1-.058-.115v-.652c.032-.498.194-.943.485-1.332a2.79 2.79 0 0 1 1.152-.883 4.146 4.146 0 0 1 1.628-.306c.665 0 1.243.124 1.734.374.49.242.869.572 1.133.987.272.422.407.885.407 1.39 0 .39-.1.79-.3 1.199-.194.409-.488.85-.882 1.323-.29.358-.603.716-.94 1.074-.335.351-.836.86-1.5 1.524l-.214.211Zm8.584 1.918c-1.034 0-1.848-.285-2.442-.854-.6-.569-.9-1.345-.9-2.33v-3.672c0-.965.3-1.729.9-2.291.594-.569 1.408-.853 2.441-.853 1.027 0 1.844.284 2.452.853.6.562.9 1.326.9 2.291V93c0 .985-.3 1.761-.9 2.33-.608.57-1.425.854-2.452.854Zm0-1.678c.42 0 .752-.128.997-.384.252-.255.378-.597.378-1.026v-3.825c0-.422-.126-.76-.378-1.017-.245-.255-.578-.383-.998-.383-.413 0-.742.128-.988.383-.252.256-.377.595-.377 1.017v3.825c0 .429.125.77.377 1.026.246.256.575.384.989.384Zm7.285-.24c-.02.02-.023.038-.01.058.006.019.026.028.058.028h3.807a.16.16 0 0 1 .117.048c.032.032.048.07.048.115v1.352a.156.156 0 0 1-.048.115.16.16 0 0 1-.117.048h-6.326a.16.16 0 0 1-.116-.048.156.156 0 0 1-.048-.115v-1.285c0-.083.025-.153.077-.21a25.49 25.49 0 0 0 1.405-1.448c.478-.524.778-.85.9-.978.266-.307.534-.601.805-.882.852-.933 1.279-1.627 1.279-2.08a1.04 1.04 0 0 0-.35-.806c-.238-.205-.545-.307-.92-.307-.374 0-.678.102-.91.307-.233.21-.349.489-.349.834v.345a.156.156 0 0 1-.048.115.171.171 0 0 1-.126.048h-1.657a.16.16 0 0 1-.116-.048.156.156 0 0 1-.049-.115v-.652c.026-.498.185-.943.475-1.332a2.78 2.78 0 0 1 1.163-.883 4.12 4.12 0 0 1 1.618-.306c.665 0 1.243.124 1.734.374.497.242.878.572 1.143.987.265.422.397.885.397 1.39 0 .39-.097.79-.29 1.199-.2.409-.498.85-.892 1.323a20 20 0 0 1-.94 1.074c-.335.351-.836.86-1.501 1.524l-.213.211Zm6.616-7.929a.487.487 0 0 1 .214-.038h1.705c.045 0 .084.016.116.048s.048.07.048.115v9.405a.156.156 0 0 1-.048.115.16.16 0 0 1-.116.048h-1.647a.16.16 0 0 1-.117-.048.145.145 0 0 1-.058-.115v-7.622a.103.103 0 0 0-.019-.058c-.02-.019-.039-.022-.058-.01l-1.395.375-.058.01c-.084 0-.126-.052-.126-.154l-.039-1.189c0-.096.042-.163.126-.201l1.472-.681Z"/><defs><linearGradient id="a" x1="53" x2="53" y1="0" y2="129" gradientUnits="userSpaceOnUse"><stop stop-color="#BDD4E7"/><stop offset="1" stop-color="#8693AB"/></linearGradient></defs></svg>