<svg xmlns="http://www.w3.org/2000/svg" width="277" height="220" fill="none" viewBox="0 0 277 220"><path fill="url(#a)" d="m185.303 73.533 87.895 51.805c5.032 2.965 5.032 10.273 0 13.239L142.66 215.483a30.437 30.437 0 0 1-30.925 0l-87.896-51.805c-5.031-2.965-5.031-10.273 0-13.239l130.539-76.906a30.436 30.436 0 0 1 30.925 0Z" opacity=".5"/><path fill="url(#b)" d="m185.331 62.958 87.895 51.804c5.032 2.966 5.032 10.274 0 13.24l-130.538 76.906a30.437 30.437 0 0 1-30.925 0l-87.896-51.805c-5.031-2.965-5.031-10.273 0-13.239l130.539-76.906a30.436 30.436 0 0 1 30.925 0Z" opacity=".5"/><path stroke="url(#c)" stroke-linejoin="round" stroke-width=".908" d="m229.336 135.135-95.726 55.698a13.616 13.616 0 0 1-13.724-.015l-68.044-39.795"/><path stroke="url(#d)" stroke-linejoin="round" stroke-width=".908" d="m98.144 135.135 68.044 39.795a13.616 13.616 0 0 0 13.724.016l71.667-41.7"/><g clip-path="url(#e)"><path fill="url(#f)" d="M77.263 152.416V77.552a24.74 24.74 0 0 1 12.103-21.269l67.952-40.376a7.455 7.455 0 0 1 7.398-.166l6.306 2.702a7.499 7.499 0 0 1 5.202 7.164v80.232a17.213 17.213 0 0 1-8.393 14.78l-71.65 42.748a7.443 7.443 0 0 1-7.084.338l-.001.001c-2.48-1.505-4.915-2.979-7.53-4.484v-.002a7.478 7.478 0 0 1-4.303-6.804Z"/><path fill="url(#g)" d="M77.263 87.215v-9.663a24.74 24.74 0 0 1 12.103-21.269l67.952-40.376a7.455 7.455 0 0 1 7.398-.166l6.306 2.702a7.499 7.499 0 0 1 5.202 7.164v11.93L84.526 90.193l-7.263-2.979Z"/><path fill="url(#h)" d="M84.526 157.114v-66.92l91.698-52.658v68.527c0 2.979-.776 5.906-2.251 8.497a17.236 17.236 0 0 1-6.166 6.28l-71.86 42.738a7.563 7.563 0 0 1-7.598.082 7.54 7.54 0 0 1-2.797-2.759 7.51 7.51 0 0 1-1.026-3.787Z"/><path fill="url(#i)" d="M84.526 90.194V81.01c0-4.28 1.12-8.485 3.247-12.204a24.742 24.742 0 0 1 8.891-9.01l68.151-40.272a7.583 7.583 0 0 1 7.592-.07 7.529 7.529 0 0 1 2.793 2.751 7.473 7.473 0 0 1 1.024 3.776v11.555L84.526 90.195Z"/><path stroke="url(#j)" stroke-width=".472" d="M143.54 56.148 84.98 89.74v-8.625c0-4.28 1.05-8.537 3.178-12.257 2.128-3.719 4.926-6.893 8.625-9.079l19.52-11.348"/><path fill="#C478FC" d="M165.146 31.067c-.752 1.388-.616 2.964.304 3.52.919.557 2.273-.118 3.025-1.506.752-1.388.615-2.964-.304-3.52-.919-.557-2.274.118-3.025 1.506ZM158.693 34.492c-.751 1.388-.615 2.964.304 3.52.919.557 2.274-.118 3.026-1.506.751-1.388.615-2.964-.304-3.52-.919-.557-2.274.118-3.026 1.506ZM152.196 38.36c-.752 1.388-.616 2.964.304 3.52.919.557 2.273-.118 3.025-1.506.752-1.388.616-2.964-.304-3.52-.919-.557-2.274.118-3.025 1.506Z"/><g filter="url(#k)"><path fill="url(#l)" d="m94.513 93.826 42.217-24.514v4.54L94.513 98.365v-4.54Z"/><path fill="url(#m)" d="m110.401 104.72 29.053-17.25v4.54l-29.053 17.25v-4.54Z"/><path fill="url(#n)" d="m139.454 106.99 23.151-13.618v4.54l-23.151 13.618v-4.54Z"/><path fill="url(#o)" d="m148.533 72.49-45.849 26.648v4.54l45.849-26.648v-4.54Z"/><path fill="url(#p)" d="m102.684 119.247 52.204-30.869v4.54l-52.204 30.868v-4.539Z"/><path fill="url(#q)" d="m166.691 101.089-17.25 10.441v4.539l17.25-10.441v-4.539Z"/><path fill="url(#r)" d="m161.697 64.773-8.625 5.011v4.54l8.625-5.012v-4.54Z"/><path fill="url(#s)" d="m140.362 67.043 26.329-15.435v4.54l-26.329 15.434v-4.54Z"/></g></g><g opacity=".8"><path fill="url(#t)" d="m206.855 112.712 19.837-11.571v14.546l-19.837 11.571v-14.546Z"/><path fill="url(#u)" d="M206.855 112.709c-4.953-3.009-7.787-7.03-7.929-11.238h-.005v14.216l.001.135c.058 4.279 2.903 8.378 7.933 11.434v-14.547Z"/><path fill="url(#v)" d="M207.055 127.374c3.906 2.326 8.889 3.905 14.312 4.535 5.422.631 11.037.284 16.127-.995 5.09-1.279 9.423-3.433 12.445-6.186 3.022-2.753 4.596-5.979 4.521-9.268-.075-3.288-1.797-6.488-4.944-9.191-3.147-2.703-7.577-4.785-12.724-5.981-5.146-1.197-10.775-1.452-16.166-.733-5.392.718-10.301 2.377-14.099 4.765l20.165 11.366-19.637 11.688Z"/><path fill="url(#w)" d="M207.055 117.125c3.907 2.326 8.89 3.904 14.312 4.535 5.422.631 11.037.284 16.127-.995 5.09-1.279 9.423-3.433 12.445-6.186 3.022-2.753 4.596-5.98 4.521-9.268-.075-3.288-1.797-6.488-4.944-9.191-3.147-2.703-7.577-4.785-12.724-5.982-5.146-1.196-10.775-1.45-16.166-.733-5.392.719-10.3 2.378-14.099 4.766l20.165 11.366-19.637 11.688Z"/><path fill="url(#x)" d="M206.744 127.355c5.028 3.003 12.262 4.861 19.948 4.861 14.589 0 26.639-6.697 27.77-15.208v-10.579h-.049c-.861 8.667-12.943 15.538-27.721 15.538-7.686 0-14.92-1.778-19.948-4.782v10.17Z"/><path fill="url(#y)" d="M206.596 89.73c-4.98 3.109-7.733 7.25-7.674 11.544.059 4.296 2.924 8.409 7.99 11.469l19.78-11.603-20.096-11.41Z"/><path stroke="url(#z)" stroke-width=".235" d="M207.055 117.126c3.906 2.325 8.889 3.904 14.312 4.535 5.422.63 11.037.284 16.127-.995 5.089-1.279 9.423-3.433 12.445-6.186 3.022-2.753 4.596-5.98 4.521-9.268"/><g filter="url(#A)"><path fill="url(#B)" d="M245.682 83.127c-5.266-2.937-12.246-4.54-19.461-4.466-7.215.073-14.1 1.814-19.195 4.856l19.666 11.672 18.99-12.062Z" shape-rendering="crispEdges"/></g><path fill="url(#C)" d="M245.682 69.242c-5.265-2.937-12.245-4.539-19.461-4.466-7.215.073-14.099 1.815-19.195 4.856l19.667 11.672 18.989-12.062Z"/><path fill="url(#D)" d="m226.692 81.303 19.01-12.067v13.886l-19.01 12.067V81.303Z"/><path fill="url(#E)" d="m207.021 69.566 19.671 11.737v13.885l-19.671-11.736V69.566Z"/><path stroke="url(#F)" stroke-width=".235" d="M226.692 81.201v12.517"/><path stroke="url(#G)" stroke-width=".235" d="m239.785 72.987-13.094 8.317-14.013-8.317"/></g><g opacity=".6"><path fill="url(#H)" d="M219.417 35.834a.772.772 0 0 1 .386.668v28.192c0 .55-.294 1.058-.772 1.335l-8.554 4.96a3.13 3.13 0 0 1-3.138 0l-8.554-4.96a1.544 1.544 0 0 1-.772-1.335V36.502c0-.275.147-.529.386-.668l8.94-5.182a3.131 3.131 0 0 1 3.138 0l8.94 5.182Z"/><path fill="url(#I)" d="m207.331 30.658-8.954 5.218a.77.77 0 0 0 0 1.333l8.954 5.217a3.13 3.13 0 0 0 3.15 0l8.954-5.217a.77.77 0 0 0 0-1.333l-8.954-5.218a3.13 3.13 0 0 0-3.15 0Z"/></g><path fill="url(#J)" fill-rule="evenodd" d="m.998 75.227.04 6.31 4.989 3.07-1.919 3.07 5.373 3.07c2.685-4.545 3.453-3.838 3.453-3.838l8.443 4.605 4.605-8.442c-4.555-4.226-.388-7.938 4.322-5.831l4.347-6.808c-5.737-2.568-1.216-7.188 3.227-9.883l4.99-2.806-4.99-3.837 1.535-2.303-4.605-3.07-4.605-1.919-2.686 4.221-4.989-3.07-.016.01v-.052l-6.147 3.439v4.996a29.245 29.245 0 0 0-4.278 4.181l-3.513-1.57-4.466 7.033 3.316 2.04a23.94 23.94 0 0 0-1.462 4.608L.998 75.227Zm5.037 3.689-.008-.03v.031l.008-.001Zm19.55-14.349c0 3.417-2.752 7.727-6.147 9.626-3.394 1.899-6.146.668-6.146-2.75 0-3.416 2.752-7.726 6.146-9.625 3.395-1.899 6.147-.668 6.147 2.749Z" clip-rule="evenodd"/><path fill="url(#K)" d="m6.027 84.606-.04-6.194 4.963-2.777a23.948 23.948 0 0 1 1.777-5.302l-3.513-1.57 4.349-6.809 3.513 1.57a29.25 29.25 0 0 1 4.278-4.18v-4.997L27.5 50.91v4.996a11.07 11.07 0 0 1 4.28-.604l3.513-5.501 4.347 1.942-3.514 5.504a7.343 7.343 0 0 1 1.778 3.312l4.963-2.777v6.187l-4.963 2.777a23.94 23.94 0 0 1-1.777 5.3l3.513 1.573-4.347 6.807-3.513-1.57a29.348 29.348 0 0 1-4.28 4.181v4.997l-6.146 3.438v-4.996c-1.371.48-2.826.686-4.278.605l-3.513 5.501-4.346-1.945 3.511-5.5a7.35 7.35 0 0 1-1.776-3.314l-4.925 2.784Zm18.4-7.229c3.395-1.898 6.147-6.209 6.147-9.625 0-3.417-2.752-4.648-6.147-2.75-3.395 1.9-6.147 6.21-6.147 9.627 0 3.416 2.752 4.647 6.147 2.748Z"/><path stroke="url(#L)" stroke-width=".327" d="M21.518 86.475v4.717l5.82-3.255v-4.98l.061-.049a29.183 29.183 0 0 0 4.256-4.158l.08-.096.112.051 3.384 1.513 4.17-6.529-3.34-1.495-.152-.068.07-.15a23.775 23.775 0 0 0 1.765-5.265l.015-.072.065-.037 4.88-2.73V58.06l-4.72 2.64-.189.106-.05-.21a7.181 7.181 0 0 0-1.738-3.239l-.087-.092.068-.107 3.413-5.344-4.046-1.807-3.437 5.382-.051.08-.096-.005a10.906 10.906 0 0 0-4.216.596l-.218.076v-4.948l-5.82 3.255v4.98l-.061.049a29.086 29.086 0 0 0-4.254 4.158l-.08.095-.113-.05-3.384-1.514-4.17 6.53 3.339 1.493.152.068-.07.151a23.79 23.79 0 0 0-1.765 5.266l-.015.073-.065.036-4.88 2.73.038 5.819 4.683-2.648.19-.107.05.212a7.188 7.188 0 0 0 1.736 3.24l.087.093-.068.107-3.41 5.34 4.044 1.81 3.437-5.382.052-.08.095.005c1.431.08 2.864-.123 4.215-.597l.218-.076v.23Zm9.22-18.723c0 1.749-.703 3.71-1.826 5.47-1.124 1.76-2.68 3.333-4.405 4.298-1.722.963-3.315 1.152-4.493.626-1.187-.531-1.897-1.765-1.897-3.517 0-1.75.703-3.712 1.826-5.47 1.124-1.761 2.68-3.334 4.405-4.299 1.722-.963 3.315-1.152 4.493-.626 1.187.532 1.897 1.765 1.897 3.518Z"/><g opacity=".6"><path fill="url(#M)" d="M42.13 91.255c.457.261.74.74.74 1.258v53.107a2.899 2.899 0 0 1-1.48 2.514l-16.395 9.341a6.091 6.091 0 0 1-6.015 0l-16.395-9.341a2.899 2.899 0 0 1-1.479-2.514V92.513c0-.518.282-.997.74-1.258l17.134-9.762a6.092 6.092 0 0 1 6.015 0l17.134 9.763Z"/><path fill="url(#N)" d="M18.969 81.51 1.808 91.337a1.439 1.439 0 0 0 0 2.512l17.16 9.828a6.095 6.095 0 0 0 6.039 0l17.161-9.828a1.439 1.439 0 0 0 0-2.512L25.007 81.51a6.092 6.092 0 0 0-6.038 0Z"/><path fill="url(#O)" d="M42.13 91.255c.459.261.74.74.74 1.258v5.896a2.9 2.9 0 0 1-1.48 2.515l-16.394 9.341a6.096 6.096 0 0 1-6.015 0l-16.395-9.341a2.9 2.9 0 0 1-1.48-2.515v-5.896c0-.518.283-.997.74-1.258l17.135-9.762a6.092 6.092 0 0 1 6.015 0l17.134 9.763Z"/><path fill="url(#P)" d="M18.97 81.51 1.807 91.337a1.439 1.439 0 0 0 0 2.512l17.161 9.828a6.095 6.095 0 0 0 6.038 0l17.162-9.828a1.439 1.439 0 0 0 0-2.512L25.007 81.51a6.092 6.092 0 0 0-6.038 0Z"/><g opacity=".5"><path fill="url(#Q)" d="M42.13 103.057c.457.261.74.74.74 1.258v5.896a2.9 2.9 0 0 1-1.48 2.515l-16.395 9.34a6.091 6.091 0 0 1-6.015 0l-16.395-9.34a2.9 2.9 0 0 1-1.479-2.515v-5.896c0-.518.282-.997.74-1.258l17.134-9.762a6.093 6.093 0 0 1 6.015 0l17.134 9.762Z"/><path fill="url(#R)" d="m18.968 93.311-17.16 9.828a1.439 1.439 0 0 0 0 2.512l17.16 9.827a6.09 6.09 0 0 0 6.038 0l17.162-9.827a1.439 1.439 0 0 0 0-2.512l-17.162-9.828a6.092 6.092 0 0 0-6.038 0Z"/></g></g><g opacity=".6"><path fill="url(#S)" d="M82.325 24.032a.772.772 0 0 1 .385.667v28.193c0 .55-.293 1.058-.771 1.335l-8.554 4.958a3.132 3.132 0 0 1-3.139 0l-8.553-4.958a1.544 1.544 0 0 1-.772-1.335V24.699c0-.275.147-.529.386-.667l8.94-5.183a3.131 3.131 0 0 1 3.138 0l8.94 5.183Z"/><path fill="url(#T)" d="m70.239 18.856-8.954 5.217a.77.77 0 0 0 0 1.333l8.954 5.217a3.131 3.131 0 0 0 3.15 0l8.953-5.217a.77.77 0 0 0 0-1.333l-8.953-5.217a3.131 3.131 0 0 0-3.15 0Z"/></g><g clip-path="url(#U)"><path fill="url(#V)" d="M150.218 132.857c-.156-5.522-2.256-9.411-5.678-11.433h-.078c-.078-.078-6.844-3.656-6.844-3.656-4.434-2.333-10.889-1.555-17.967 2.8-12.833 7.934-23.022 24.656-22.711 37.412.155 4.511 1.555 7.855 3.889 10.033l-26.29 38.734v.233l5.445 4.433 7.467 2.8.233-.155 27.3-39.745c3.656 0 7.934-1.244 12.445-4.044 12.911-7.856 23.178-24.656 22.789-37.412Zm-29.323 28.545c-3.655 2.256-7.155 3.267-10.033 3.111-1.167-1.633-1.789-3.811-1.867-6.455-.233-9.723 7.545-22.634 17.423-28.623 3.655-2.255 7.155-3.267 10.033-3.111 1.167 1.633 1.789 3.811 1.867 6.456.233 9.8-7.623 22.633-17.423 28.622Z"/><path fill="url(#W)" d="M144.695 136.203c-.155-6.067-3.422-9.567-8.322-9.878 1.167 1.634 1.789 3.811 1.867 6.456.233 9.722-7.545 22.633-17.422 28.622-3.656 2.256-7.156 3.267-10.034 3.111 3.034 4.278 9.334 4.667 16.489.311 9.878-5.988 17.734-18.822 17.422-28.622Z"/><path fill="url(#X)" d="M107.284 171.435c-2.333-2.178-3.733-5.523-3.889-10.034-.311-12.755 9.878-29.555 22.789-37.411 6.922-4.2 13.145-5.056 17.578-2.956-1.789-.933-6.067-3.188-6.067-3.188-4.433-2.334-10.889-1.556-17.966 2.8-12.912 7.855-23.1 24.577-22.79 37.333.156 4.511 1.556 7.856 3.889 10.033l6.456 3.423Z"/><path fill="url(#Y)" d="m107.284 171.436-27.3 39.745v.233l-5.444-4.433v-.234l26.289-38.733 6.455 3.422Z"/><path fill="url(#Z)" d="M114.984 174.314c3.656 0 7.933-1.245 12.445-4.045 12.911-7.855 23.178-24.655 22.789-37.411-.311-12.834-11.123-16.8-24.034-8.867-12.911 7.856-23.1 24.656-22.789 37.412.156 4.511 1.556 7.855 3.889 10.033l-27.3 39.745v.233l7.467 2.8.233-.156 27.3-39.744Zm11.356-44.878c9.878-5.989 18.122-2.956 18.355 6.766.234 9.723-7.544 22.634-17.422 28.623-9.878 5.989-18.122 2.955-18.356-6.767-.233-9.8 7.545-22.633 17.423-28.622Z"/><path fill="url(#aa)" d="M126.34 129.435c9.878-5.989 18.122-2.955 18.356 6.767.233 9.722-7.545 22.633-17.423 28.622-9.877 5.989-18.122 2.956-18.355-6.766-.234-9.8 7.544-22.634 17.422-28.623Z"/><g filter="url(#ab)"><path fill="#BD67FF" d="M128.423 194.77a1.066 1.066 0 0 1-1.507.011l-1.703-1.677a1.067 1.067 0 0 1-.011-1.508l1.678-1.702a1.066 1.066 0 0 1 1.507-.011l1.702 1.677c.42.414.425 1.088.012 1.508l-1.678 1.702Z"/></g></g><g filter="url(#ac)"><path fill="#BD67FF" d="M188.208 172.551a.876.876 0 0 1-1.241.009l-1.403-1.381a.88.88 0 0 1-.009-1.242l1.382-1.402a.878.878 0 0 1 1.241-.009l1.402 1.382c.346.34.35.896.01 1.241l-1.382 1.402Z"/></g><path stroke="url(#ad)" stroke-linejoin="round" stroke-width=".908" d="M60.467 62.05v73.993"/><g filter="url(#ae)"><rect width="3.851" height="3.851" x="57.776" y="59.812" fill="#A84FEA" rx=".908" transform="rotate(-45 57.776 59.812)"/></g><path stroke="url(#af)" stroke-linejoin="round" stroke-width=".908" d="M188.48 8.483v73.994"/><g filter="url(#ag)"><rect width="3.851" height="3.851" x="185.789" y="6.246" fill="#A84FEA" rx=".908" transform="rotate(-45 185.789 6.246)"/></g><path stroke="url(#ah)" stroke-linejoin="round" stroke-width=".908" d="M252.941 41.168v73.993"/><g filter="url(#ai)"><rect width="3.851" height="3.851" x="250.25" y="38.931" fill="#A84FEA" rx=".908" transform="rotate(-45 250.25 38.93)"/></g><defs><linearGradient id="a" x1="129.489" x2="130.186" y1="300.018" y2="112.488" gradientUnits="userSpaceOnUse"><stop stop-color="#B24BFF" stop-opacity=".52"/><stop offset="1" stop-color="#B655FF" stop-opacity="0"/></linearGradient><linearGradient id="b" x1="129.517" x2="130.214" y1="289.442" y2="101.912" gradientUnits="userSpaceOnUse"><stop stop-color="#B24BFF" stop-opacity=".52"/><stop offset="1" stop-color="#B655FF" stop-opacity="0"/></linearGradient><linearGradient id="c" x1="223.888" x2="61.829" y1="139.675" y2="174.175" gradientUnits="userSpaceOnUse"><stop stop-color="#A850EB" stop-opacity="0"/><stop offset=".455" stop-color="#A850EB"/><stop offset="1" stop-color="#A850EB" stop-opacity="0"/></linearGradient><linearGradient id="f" x1="64.789" x2="185.709" y1="-22.734" y2="115.42" gradientUnits="userSpaceOnUse"><stop stop-color="#C475FF" stop-opacity=".85"/><stop offset="1" stop-color="#A653E4" stop-opacity="0"/></linearGradient><linearGradient id="g" x1="67.276" x2="133.986" y1="26.642" y2="67.558" gradientUnits="userSpaceOnUse"><stop stop-color="#C475FF" stop-opacity=".85"/><stop offset="1" stop-color="#A653E4" stop-opacity="0"/></linearGradient><linearGradient id="h" x1="184.873" x2="93.876" y1="-75.686" y2="195.433" gradientUnits="userSpaceOnUse"><stop stop-color="#C475FF" stop-opacity=".85"/><stop offset="1" stop-color="#A653E4" stop-opacity="0"/></linearGradient><linearGradient id="i" x1="81.526" x2="196.918" y1="18.863" y2="147.177" gradientUnits="userSpaceOnUse"><stop stop-color="#C475FF" stop-opacity=".85"/><stop offset="1" stop-color="#A653E4" stop-opacity="0"/></linearGradient><linearGradient id="j" x1="55.474" x2="137.797" y1="81.569" y2="52.513" gradientUnits="userSpaceOnUse"><stop stop-color="#DBAAFF" stop-opacity=".85"/><stop offset="1" stop-color="#A653E4" stop-opacity="0"/></linearGradient><linearGradient id="l" x1="168.961" x2="41.401" y1="77.937" y2="149.207" gradientUnits="userSpaceOnUse"><stop stop-color="#CE8DFF"/><stop offset="1" stop-color="#A653E4" stop-opacity="0"/></linearGradient><linearGradient id="m" x1="168.961" x2="41.401" y1="77.937" y2="149.207" gradientUnits="userSpaceOnUse"><stop stop-color="#CE8DFF"/><stop offset="1" stop-color="#A653E4" stop-opacity="0"/></linearGradient><linearGradient id="n" x1="168.961" x2="41.401" y1="77.937" y2="149.207" gradientUnits="userSpaceOnUse"><stop stop-color="#CE8DFF"/><stop offset="1" stop-color="#A653E4" stop-opacity="0"/></linearGradient><linearGradient id="o" x1="168.961" x2="41.401" y1="77.937" y2="149.207" gradientUnits="userSpaceOnUse"><stop stop-color="#CE8DFF"/><stop offset="1" stop-color="#A653E4" stop-opacity="0"/></linearGradient><linearGradient id="p" x1="168.961" x2="41.401" y1="77.937" y2="149.207" gradientUnits="userSpaceOnUse"><stop stop-color="#CE8DFF"/><stop offset="1" stop-color="#A653E4" stop-opacity="0"/></linearGradient><linearGradient id="q" x1="168.961" x2="41.401" y1="77.937" y2="149.207" gradientUnits="userSpaceOnUse"><stop stop-color="#CE8DFF"/><stop offset="1" stop-color="#A653E4" stop-opacity="0"/></linearGradient><linearGradient id="r" x1="168.961" x2="41.401" y1="77.937" y2="149.207" gradientUnits="userSpaceOnUse"><stop stop-color="#CE8DFF"/><stop offset="1" stop-color="#A653E4" stop-opacity="0"/></linearGradient><linearGradient id="s" x1="168.961" x2="41.401" y1="77.937" y2="149.207" gradientUnits="userSpaceOnUse"><stop stop-color="#CE8DFF"/><stop offset="1" stop-color="#A653E4" stop-opacity="0"/></linearGradient><linearGradient id="t" x1="215.299" x2="225.364" y1="106.87" y2="127.703" gradientUnits="userSpaceOnUse"><stop stop-color="#CA84FF"/><stop offset="1" stop-color="#A653E4" stop-opacity="0"/></linearGradient><linearGradient id="u" x1="211.171" x2="197.25" y1="115.526" y2="115.526" gradientUnits="userSpaceOnUse"><stop stop-color="#A653E4"/><stop offset="1" stop-color="#A653E4" stop-opacity="0"/></linearGradient><linearGradient id="v" x1="202.441" x2="248.883" y1="129.311" y2="101.756" gradientUnits="userSpaceOnUse"><stop stop-color="#A653E4" stop-opacity=".52"/><stop offset="1" stop-color="#A653E4" stop-opacity="0"/></linearGradient><linearGradient id="w" x1="218.087" x2="262.017" y1="111.318" y2="94.355" gradientUnits="userSpaceOnUse"><stop stop-color="#C16FFF" stop-opacity=".87"/><stop offset="1" stop-color="#A653E4" stop-opacity="0"/></linearGradient><linearGradient id="x" x1="204.903" x2="262.716" y1="125.053" y2="99.237" gradientUnits="userSpaceOnUse"><stop stop-color="#A653E4"/><stop offset="1" stop-color="#A653E4" stop-opacity="0"/></linearGradient><linearGradient id="y" x1="200.243" x2="241.679" y1="97.725" y2="97.725" gradientUnits="userSpaceOnUse"><stop stop-color="#B464F0" stop-opacity=".94"/><stop offset="1" stop-color="#6D2DA4"/></linearGradient><linearGradient id="z" x1="206.744" x2="222.732" y1="139.09" y2="109.334" gradientUnits="userSpaceOnUse"><stop stop-color="#EBD1FF"/><stop offset="1" stop-color="#fff" stop-opacity="0"/></linearGradient><linearGradient id="B" x1="224.636" x2="224.373" y1="140.316" y2="72.047" gradientUnits="userSpaceOnUse"><stop stop-color="#A653E4" stop-opacity=".52"/><stop offset="1" stop-color="#A653E4" stop-opacity="0"/></linearGradient><linearGradient id="C" x1="224.131" x2="226.798" y1="78.879" y2="59.938" gradientUnits="userSpaceOnUse"><stop stop-color="#A653E4" stop-opacity=".94"/><stop offset="1" stop-color="#A653E4" stop-opacity="0"/></linearGradient><linearGradient id="D" x1="228.24" x2="252.019" y1="77.536" y2="68.376" gradientUnits="userSpaceOnUse"><stop stop-color="#C475FF" stop-opacity=".85"/><stop offset="1" stop-color="#A653E4" stop-opacity="0"/></linearGradient><linearGradient id="E" x1="230.995" x2="200.495" y1="81.201" y2="85.566" gradientUnits="userSpaceOnUse"><stop stop-color="#A653E4"/><stop offset="1" stop-color="#A653E4" stop-opacity="0"/></linearGradient><linearGradient id="F" x1="226.692" x2="226.692" y1="81.201" y2="93.718" gradientUnits="userSpaceOnUse"><stop stop-color="#E3BDFF"/><stop offset="1" stop-color="#E3BDFF" stop-opacity="0"/></linearGradient><linearGradient id="G" x1="224.986" x2="225.471" y1="81.465" y2="74.683" gradientUnits="userSpaceOnUse"><stop stop-color="#E3BDFF"/><stop offset="1" stop-color="#E3BDFF" stop-opacity="0"/></linearGradient><linearGradient id="H" x1="204.635" x2="204.867" y1="33.031" y2="61.248" gradientUnits="userSpaceOnUse"><stop stop-color="#B654FF" stop-opacity=".4"/><stop offset="1" stop-color="#A653E4" stop-opacity="0"/></linearGradient><linearGradient id="I" x1="208.556" x2="208.5" y1="47.7" y2="32.712" gradientUnits="userSpaceOnUse"><stop stop-color="#C67AFF" stop-opacity=".52"/><stop offset="1" stop-color="#A653E4" stop-opacity="0"/></linearGradient><linearGradient id="J" x1="40.579" x2="2.771" y1="37.456" y2="109.452" gradientUnits="userSpaceOnUse"><stop stop-color="#C475FF" stop-opacity=".85"/><stop offset="1" stop-color="#A653E4" stop-opacity="0"/></linearGradient><linearGradient id="K" x1="31.747" x2="61.44" y1="61.334" y2="119.43" gradientUnits="userSpaceOnUse"><stop stop-color="#C475FF"/><stop offset="1" stop-color="#A653E4" stop-opacity="0"/></linearGradient><linearGradient id="L" x1="-26.478" x2="28.476" y1="17.502" y2="71.475" gradientUnits="userSpaceOnUse"><stop stop-color="#fff"/><stop offset="1" stop-color="#fff" stop-opacity="0"/></linearGradient><linearGradient id="M" x1="13.799" x2="14.273" y1="85.975" y2="144.783" gradientUnits="userSpaceOnUse"><stop stop-color="#B654FF" stop-opacity=".4"/><stop offset="1" stop-color="#A653E4" stop-opacity="0"/></linearGradient><linearGradient id="N" x1="21.54" x2="21.46" y1="108.925" y2="80.78" gradientUnits="userSpaceOnUse"><stop stop-color="#C67AFF" stop-opacity=".52"/><stop offset=".317" stop-color="#B662F4" stop-opacity=".52"/><stop offset="1" stop-color="#A653E4" stop-opacity="0"/></linearGradient><linearGradient id="O" x1="13.8" x2="14.228" y1="85.975" y2="139.128" gradientUnits="userSpaceOnUse"><stop stop-color="#B654FF" stop-opacity=".4"/><stop offset="1" stop-color="#A653E4" stop-opacity="0"/></linearGradient><linearGradient id="P" x1="21.541" x2="21.46" y1="108.925" y2="80.78" gradientUnits="userSpaceOnUse"><stop stop-color="#C67AFF" stop-opacity=".52"/><stop offset=".317" stop-color="#B662F4" stop-opacity=".52"/><stop offset="1" stop-color="#A653E4" stop-opacity="0"/></linearGradient><linearGradient id="Q" x1="13.799" x2="14.3" y1="110.74" y2="172.926" gradientUnits="userSpaceOnUse"><stop stop-color="#B654FF" stop-opacity=".4"/><stop offset="1" stop-color="#A653E4" stop-opacity="0"/></linearGradient><linearGradient id="R" x1="22.441" x2="22.381" y1="122.088" y2="101.207" gradientUnits="userSpaceOnUse"><stop stop-color="#C67AFF" stop-opacity=".52"/><stop offset="1" stop-color="#A653E4" stop-opacity="0"/></linearGradient><linearGradient id="S" x1="67.543" x2="67.775" y1="21.229" y2="49.446" gradientUnits="userSpaceOnUse"><stop stop-color="#B654FF" stop-opacity=".4"/><stop offset="1" stop-color="#A653E4" stop-opacity="0"/></linearGradient><linearGradient id="T" x1="71.463" x2="71.407" y1="35.898" y2="20.91" gradientUnits="userSpaceOnUse"><stop stop-color="#C67AFF" stop-opacity=".52"/><stop offset="1" stop-color="#A653E4" stop-opacity="0"/></linearGradient><linearGradient id="V" x1="78.677" x2="168.988" y1="96.543" y2="239.369" gradientUnits="userSpaceOnUse"><stop stop-color="#C475FF" stop-opacity=".85"/><stop offset="1" stop-color="#A653E4" stop-opacity="0"/></linearGradient><linearGradient id="W" x1="103.706" x2="137.929" y1="184.97" y2="132.469" gradientUnits="userSpaceOnUse"><stop stop-color="#BC63FF"/><stop offset="1" stop-color="#A653E4" stop-opacity="0"/></linearGradient><linearGradient id="X" x1="79.595" x2="130.54" y1="184.968" y2="112.245" gradientUnits="userSpaceOnUse"><stop stop-color="#BC63FF"/><stop offset="1" stop-color="#A653E4" stop-opacity="0"/></linearGradient><linearGradient id="Y" x1="43.217" x2="89.974" y1="237.727" y2="170.543" gradientUnits="userSpaceOnUse"><stop stop-color="#BC63FF"/><stop offset="1" stop-color="#A653E4" stop-opacity="0"/></linearGradient><linearGradient id="Z" x1="101.164" x2="30.382" y1="145.331" y2="264.986" gradientUnits="userSpaceOnUse"><stop stop-color="#C475FF"/><stop offset="1" stop-color="#A653E4" stop-opacity="0"/></linearGradient><linearGradient id="aa" x1="144.448" x2="106.899" y1="112.438" y2="170.467" gradientUnits="userSpaceOnUse"><stop stop-color="#C475FF"/><stop offset="1" stop-color="#A653E4" stop-opacity="0"/></linearGradient><linearGradient id="ad" x1="59.467" x2="59.467" y1="47.069" y2="94.28" gradientUnits="userSpaceOnUse"><stop stop-color="#A850EB"/><stop offset="1" stop-color="#A850EB" stop-opacity="0"/></linearGradient><linearGradient id="af" x1="187.48" x2="187.48" y1="-6.497" y2="40.714" gradientUnits="userSpaceOnUse"><stop stop-color="#A850EB"/><stop offset="1" stop-color="#A850EB" stop-opacity="0"/></linearGradient><linearGradient id="ah" x1="251.941" x2="251.941" y1="26.188" y2="73.398" gradientUnits="userSpaceOnUse"><stop stop-color="#A850EB"/><stop offset="1" stop-color="#A850EB" stop-opacity="0"/></linearGradient><filter id="k" width="79.441" height="79.441" x="90.882" y="47.069" color-interpolation-filters="sRGB" filterUnits="userSpaceOnUse"><feFlood flood-opacity="0" result="BackgroundImageFix"/><feColorMatrix in="SourceAlpha" result="hardAlpha" values="0 0 0 0 0 0 0 0 0 0 0 0 0 0 0 0 0 0 127 0"/><feOffset dy="-.908"/><feGaussianBlur stdDeviation="1.816"/><feColorMatrix values="0 0 0 0 0.32549 0 0 0 0 0.105882 0 0 0 0 0.517647 0 0 0 0.5 0"/><feBlend in2="BackgroundImageFix" result="effect1_dropShadow_1_424"/><feBlend in="SourceGraphic" in2="effect1_dropShadow_1_424" result="shape"/></filter><filter id="A" width="54.301" height="32.176" x="199.203" y="78.658" color-interpolation-filters="sRGB" filterUnits="userSpaceOnUse"><feFlood flood-opacity="0" result="BackgroundImageFix"/><feColorMatrix in="SourceAlpha" result="hardAlpha" values="0 0 0 0 0 0 0 0 0 0 0 0 0 0 0 0 0 0 127 0"/><feOffset dy="7.823"/><feGaussianBlur stdDeviation="3.911"/><feComposite in2="hardAlpha" operator="out"/><feColorMatrix values="0 0 0 0 0 0 0 0 0 0 0 0 0 0 0 0 0 0 0.3 0"/><feBlend in2="BackgroundImageFix" result="effect1_dropShadow_1_424"/><feBlend in="SourceGraphic" in2="effect1_dropShadow_1_424" result="shape"/></filter><filter id="ab" width="12.775" height="12.775" x="121.264" y="185.945" color-interpolation-filters="sRGB" filterUnits="userSpaceOnUse"><feFlood flood-opacity="0" result="BackgroundImageFix"/><feColorMatrix in="SourceAlpha" result="hardAlpha" values="0 0 0 0 0 0 0 0 0 0 0 0 0 0 0 0 0 0 127 0"/><feOffset/><feGaussianBlur stdDeviation="1.816"/><feColorMatrix values="0 0 0 0 0.658824 0 0 0 0 0.313726 0 0 0 0 0.921569 0 0 0 1 0"/><feBlend in2="BackgroundImageFix" result="effect1_dropShadow_1_424"/><feBlend in="SourceGraphic" in2="effect1_dropShadow_1_424" result="shape"/></filter><filter id="ac" width="11.803" height="11.803" x="181.671" y="164.642" color-interpolation-filters="sRGB" filterUnits="userSpaceOnUse"><feFlood flood-opacity="0" result="BackgroundImageFix"/><feColorMatrix in="SourceAlpha" result="hardAlpha" values="0 0 0 0 0 0 0 0 0 0 0 0 0 0 0 0 0 0 127 0"/><feOffset/><feGaussianBlur stdDeviation="1.816"/><feColorMatrix values="0 0 0 0 0.658824 0 0 0 0 0.313726 0 0 0 0 0.921569 0 0 0 1 0"/><feBlend in2="BackgroundImageFix" result="effect1_dropShadow_1_424"/><feBlend in="SourceGraphic" in2="effect1_dropShadow_1_424" result="shape"/></filter><filter id="ae" width="11.958" height="11.957" x="54.52" y="53.833" color-interpolation-filters="sRGB" filterUnits="userSpaceOnUse"><feFlood flood-opacity="0" result="BackgroundImageFix"/><feColorMatrix in="SourceAlpha" result="hardAlpha" values="0 0 0 0 0 0 0 0 0 0 0 0 0 0 0 0 0 0 127 0"/><feOffset/><feGaussianBlur stdDeviation="1.816"/><feColorMatrix values="0 0 0 0 0.658824 0 0 0 0 0.313726 0 0 0 0 0.921569 0 0 0 1 0"/><feBlend in2="BackgroundImageFix" result="effect1_dropShadow_1_424"/><feBlend in="SourceGraphic" in2="effect1_dropShadow_1_424" result="shape"/></filter><filter id="ag" width="11.958" height="11.957" x="182.534" y=".267" color-interpolation-filters="sRGB" filterUnits="userSpaceOnUse"><feFlood flood-opacity="0" result="BackgroundImageFix"/><feColorMatrix in="SourceAlpha" result="hardAlpha" values="0 0 0 0 0 0 0 0 0 0 0 0 0 0 0 0 0 0 127 0"/><feOffset/><feGaussianBlur stdDeviation="1.816"/><feColorMatrix values="0 0 0 0 0.658824 0 0 0 0 0.313726 0 0 0 0 0.921569 0 0 0 1 0"/><feBlend in2="BackgroundImageFix" result="effect1_dropShadow_1_424"/><feBlend in="SourceGraphic" in2="effect1_dropShadow_1_424" result="shape"/></filter><filter id="ai" width="11.958" height="11.957" x="246.994" y="32.952" color-interpolation-filters="sRGB" filterUnits="userSpaceOnUse"><feFlood flood-opacity="0" result="BackgroundImageFix"/><feColorMatrix in="SourceAlpha" result="hardAlpha" values="0 0 0 0 0 0 0 0 0 0 0 0 0 0 0 0 0 0 127 0"/><feOffset/><feGaussianBlur stdDeviation="1.816"/><feColorMatrix values="0 0 0 0 0.658824 0 0 0 0 0.313726 0 0 0 0 0.921569 0 0 0 1 0"/><feBlend in2="BackgroundImageFix" result="effect1_dropShadow_1_424"/><feBlend in="SourceGraphic" in2="effect1_dropShadow_1_424" result="shape"/></filter><clipPath id="e"><path fill="#fff" d="M0 0h98.96v149.803H0z" transform="translate(77.263 14.839)"/></clipPath><clipPath id="U"><path fill="#fff" d="M0 0h76.263v98.053H0z" transform="translate(74.54 116.523)"/></clipPath><radialGradient id="d" cx="0" cy="0" r="1" gradientTransform="rotate(168.729 118.371 78.301) scale(127.753 26520.8)" gradientUnits="userSpaceOnUse"><stop offset=".086" stop-color="#A850EB" stop-opacity="0"/><stop offset=".577" stop-color="#A850EB"/><stop offset=".875" stop-color="#A850EB" stop-opacity="0"/></radialGradient></defs></svg>