<svg width="60" height="60" viewBox="0 0 60 60" fill="none" xmlns="http://www.w3.org/2000/svg"><path d="M18.382 28.2c-.88.72-1.34 1.733-1.38 3.04h2.74c.054-.44.24-.84.56-1.2.32-.36.8-.54 1.44-.54.64 0 1.134.16 1.48.48.347.32.52.753.52 1.3 0 1.266-.946 1.9-2.84 1.9h-.58v2.3h.58c1.08 0 1.867.173 2.36.52.507.333.76.853.76 1.56 0 .706-.186 1.253-.56 1.64-.36.373-.893.56-1.6.56-.706 0-1.273-.194-1.7-.58-.413-.4-.633-.927-.66-1.58h-2.72c.04 1.466.534 2.58 1.48 3.34.947.76 2.167 1.14 3.66 1.14 1.494 0 2.667-.38 3.52-1.14.854-.76 1.28-1.76 1.28-3 0-1.867-.8-3.074-2.4-3.62v-.08c.547-.187 1.04-.567 1.48-1.14.44-.587.66-1.307.66-2.16 0-1.107-.406-2.02-1.22-2.74-.813-.734-1.94-1.1-3.38-1.1-1.426 0-2.586.366-3.48 1.1Z" fill="#3D4046"/><path fill-rule="evenodd" clip-rule="evenodd" d="M34.295 27.46c-3.587 0-5.38 2.42-5.38 7.26 0 4.826 1.793 7.24 5.38 7.24 3.6 0 5.4-2.414 5.4-7.24 0-4.84-1.8-7.26-5.4-7.26Zm.02 2.6c.453 0 .847.086 1.18.26.333.173.587.393.76.66.187.266.333.62.44 1.06.107.426.173.84.2 1.24.04.4.06.873.06 1.42 0 .546-.02 1.02-.06 1.42-.027.4-.093.82-.2 1.26-.107.426-.253.78-.44 1.06a1.954 1.954 0 0 1-.76.66c-.333.173-.727.26-1.18.26-.453 0-.847-.087-1.18-.26a2.124 2.124 0 0 1-.78-.66 3.739 3.739 0 0 1-.42-1.06c-.107-.44-.18-.86-.22-1.26-.027-.4-.04-.874-.04-1.42 0-.547.013-1.02.04-1.42.04-.4.113-.814.22-1.24.107-.44.247-.794.42-1.06.187-.267.447-.487.78-.66.333-.174.727-.26 1.18-.26Z" fill="#3D4046"/><path fill-rule="evenodd" clip-rule="evenodd" d="M15 4.5V6h25V4.5a3.5 3.5 0 1 1 7 0V6h7v48H1V6h7V4.5a3.5 3.5 0 1 1 7 0ZM47 8v1.5a3.5 3.5 0 1 1-7 0V8H15v1.5a3.5 3.5 0 1 1-7 0V8H3v8h49V8h-5ZM11.5 3A1.5 1.5 0 0 0 10 4.5v5a1.5 1.5 0 0 0 3 0v-5A1.5 1.5 0 0 0 11.5 3ZM3 18h49v34H3V18ZM42 4.5a1.5 1.5 0 0 1 3 0v5a1.5 1.5 0 0 1-3 0v-5Z" fill="#3D4046"/><path d="M60 60V15h-2v43H7v2h53Z" fill="#3D4046"/></svg>
