<svg width="60" height="60" viewBox="0 0 60 60" fill="none" xmlns="http://www.w3.org/2000/svg"><g clip-path="url(#a)" fill="#3D4046"><path d="M30.667 20.333a2.333 2.333 0 1 1-4.667 0 2.333 2.333 0 0 1 4.667 0ZM40 20.333a2.333 2.333 0 1 1-4.667 0 2.333 2.333 0 0 1 4.667 0ZM47 22.667A2.333 2.333 0 1 0 47 18a2.333 2.333 0 0 0 0 4.667Z"/><path fill-rule="evenodd" clip-rule="evenodd" d="M37.538 0a19.326 19.326 0 0 0-12.906 4.925 19.902 19.902 0 0 0-6.472 12.348 20.051 20.051 0 0 0 3.174 13.61c2.653 3.995 6.651 6.873 11.247 8.09a19.225 19.225 0 0 0 13.32-1.292l10.949 3.902-2.975-11.022a20.055 20.055 0 0 0 2.974-13.212 19.906 19.906 0 0 0-6.425-12.374A19.328 19.328 0 0 0 37.538 0ZM25.964 6.417A17.326 17.326 0 0 1 37.534 2a17.328 17.328 0 0 1 11.553 4.462 17.905 17.905 0 0 1 5.777 11.131 18.05 18.05 0 0 1-2.902 12.24l-.253.378 2.215 8.206-8.16-2.908-.385.198a17.228 17.228 0 0 1-12.286 1.333c-4.118-1.09-7.707-3.671-10.093-7.264a18.052 18.052 0 0 1-2.856-12.25 17.902 17.902 0 0 1 5.82-11.109Z"/><path d="M15.078 23H4v28h5v9.21L19.486 51H49v-9h-2v7H18.733L11 55.79V49H6V25h9.078v-2Z"/><path d="M17 32h-6v-2h6v2ZM11 38h10v-2H11v2ZM28.998 44.03l-18-.03.004-2 18 .03-.003 2Z"/></g><defs><clipPath id="a"><path fill="#fff" d="M0 0h60v60H0z"/></clipPath></defs></svg>
