<svg width="60" height="60" viewBox="0 0 60 60" fill="none" xmlns="http://www.w3.org/2000/svg"><path fill-rule="evenodd" clip-rule="evenodd" d="M15.242 8.394a4.255 4.255 0 0 0-3.017 1.257 4.31 4.31 0 0 0-.922 4.668 4.282 4.282 0 0 0 1.568 1.925 4.247 4.247 0 0 0 4.743 0 4.283 4.283 0 0 0 1.569-1.925 4.31 4.31 0 0 0-.923-4.668 4.255 4.255 0 0 0-3.018-1.257Zm-1.599 2.667a2.255 2.255 0 0 1 3.198 0 2.31 2.31 0 0 1 .491 2.497 2.282 2.282 0 0 1-.835 1.026 2.247 2.247 0 0 1-2.51 0 2.281 2.281 0 0 1-.835-1.026 2.31 2.31 0 0 1 .491-2.497ZM33.98 19.572a3.705 3.705 0 0 0-5.266-.001 3.768 3.768 0 0 0 .001 5.302 3.705 3.705 0 0 0 5.265 0 3.768 3.768 0 0 0 0-5.302Zm-3.857 1.418c.675-.68 1.77-.68 2.447 0a1.75 1.75 0 0 1 0 2.465c-.674.68-1.77.68-2.446-.001a1.751 1.751 0 0 1 0-2.464Z" fill="#fff"/><path d="m21.663 30.039 18.237-.224-.024-2.007-18.237.224.024 2.007Z" fill="#fff"/><path fill-rule="evenodd" clip-rule="evenodd" d="M34.306 33.16a3.705 3.705 0 0 0-5.265-.001 3.768 3.768 0 0 0 0 5.302 3.705 3.705 0 0 0 5.266.001 3.768 3.768 0 0 0 0-5.302Zm-3.856 1.418c.675-.68 1.77-.68 2.447.001a1.75 1.75 0 0 1 0 2.464c-.674.68-1.77.68-2.446-.001a1.751 1.751 0 0 1 0-2.464Z" fill="#fff"/><path fill-rule="evenodd" clip-rule="evenodd" d="M25.161 0H3v22.393l31.478 31.695 22.265-22.41L25.161 0ZM5 21.569V2h19.33l29.591 29.68L34.48 51.25 5 21.57Z" fill="#fff"/><path d="m5.588 28.024-1.42 1.41 30.325 30.523 20.883-21.02-1.419-1.41-19.464 19.592L5.588 28.024Z" fill="#fff"/></svg>
