<svg xmlns="http://www.w3.org/2000/svg" width="540" height="339" fill="none"><path fill="url(#a)" d="M506.048 40.27 273.286 174.745l-70.857-41.143L430.618.27l75.43 40Z" opacity=".15"/><path fill="url(#b)" d="M273.286 174.747 130.429 92.081v159.81l142.857 85.904V174.747Z" opacity=".25"/><path fill="url(#c)" d="m343.048 230.769 108 60.782V100.27l-108-65.76v196.259Z" opacity=".25"/><path fill="url(#d)" d="m394.429 244.664-61.715 36.75V181.218l61.715-34.661v98.107Z" opacity=".25"/><path fill="url(#e)" d="m273.286 196.278 159.238 91.803V121.032l-159.238-92.19v167.436Z" opacity=".25"/><path fill="url(#f)" d="m50.048 303.811 223.238-129.065 56.762 32.381-225.905 135.238-54.095-38.554Z" opacity=".25"/><path fill="url(#g)" d="m226.048 147.316-122.667 69.715v96l205.334-117.715-82.667-48Z" opacity=".15"/><path fill="url(#h)" d="m273.286 229.423-58.667 34.465V140.835l58.667-33.899v122.487Z" opacity=".25"/><path stroke="url(#i)" d="m74.81 59.699 183.238 106.286"/><path stroke="url(#j)" d="M505.672 307.317 317.862 200.65"/><path stroke="url(#k)" d="m69.095 292.461 157.726-91.036"/><path stroke="url(#l)" d="m273.436 126.484-.288-91.927"/><path stroke="url(#m)" stroke-width=".381" d="m232.905 142.748-55.238 31.999"/><path fill="#A653E4" d="M71.393 291.139v2.666l-2.286 1.334-2.286-1.334v-2.666l2.286-1.334 2.286 1.334Z"/><path stroke="url(#n)" d="M364.833 176.643 311.5 207.5"/><path stroke="url(#o)" stroke-miterlimit="10" stroke-width=".762" d="M242.809 169.043 189.095 199.9v91.429l-56.381 33.828"/><path fill="#A653E4" d="M131.952 325.602v-2.285l1.905-1.143 1.905 1.143v2.285l-1.905 1.143-1.905-1.143Z"/><path stroke="url(#p)" stroke-miterlimit="10" d="m409.667 84.474-62.096 35.809v68.191l-61.333 35.047"/><path fill="#A653E4" d="M411.19 83.52v1.715l-1.523.953-1.524-.953V83.52l1.524-.953 1.523.953ZM205.476 132.091v3.047l-2.667 1.524-2.666-1.524v-3.047l2.666-1.524 2.667 1.524Z"/><path fill="#A653E4" stroke="#2C2931" stroke-width=".762" d="m103.762 74.63 1.524.916v1.853l-1.524.915-1.524-.915v-1.853l1.524-.915Z" opacity=".5"/><path fill="#A653E4" d="M108.333 76.853v2.285l-1.905 1.143-1.905-1.143v-2.285l1.905-1.143 1.905 1.143Z"/><path fill="#9941DB" d="M346.428 215.128v1.715l-1.524.952-1.523-.952v-1.715l1.523-.953 1.524.953Z"/><path fill="#A653E4" d="M344.143 212.855v3.047l-2.667 1.524-2.667-1.524v-3.047l2.667-1.524 2.667 1.524ZM442.428 268.855v2.285l-1.905 1.143-1.904-1.143v-2.285l1.904-1.143 1.905 1.143Z"/><path stroke="url(#q)" stroke-width="1.5" d="m273.279 92.964 68.59 41.456v79.912l-68.971 41.082-70.101-40.146v-81.221l70.482-41.083Z"/><path fill="#A653E4" d="M487 51.318v-1.713l1.523-.953 1.524.953v1.713l-1.524.953-1.523-.953Z"/><path stroke="url(#r)" d="M296.524 161.412 487.762 50.765"/><path stroke="url(#s)" d="m176.523 230.375 96.744 56.371 94.495-57.874v-58.888l-12.191-7.262v-50.009l-82.304-48.444-96.744 54.492v111.614Z"/><path stroke="url(#t)" stroke-width="2" d="M356.596 106.555v-28.36l74.927 43.412v84.911l-57.92-34.158-1.508-.889v59.856l-98.822 60.349-101.083-58.839V116.282l101.085-56.954 81.814 48.089 1.507.886v-1.748Z"/><path fill="#881ADB" d="M321.286 146.93v55.619l-48 27.815-48-27.815V146.93l48-27.803 48 27.803Z"/><path fill="#A653E4" d="m273.286 119.128-48 27.803 48 27.815v-55.619.001Z"/><path fill="#5E11CE" d="m273.286 174.746-48 27.804 48 27.815v-55.618M321.286 146.932l-48 27.814 48 27.805v-55.619Z"/><path fill="#8736DB" d="M273.286 119.127v55.619l48-27.815-48-27.803"/><path fill="#3D0BBD" d="M273.286 174.746v55.618l48-27.815-48-27.803Z"/><path fill="#fff" d="M302.688 156.913h-6.898v14.374h-36.682l10.229-10.266-4.877-4.894-18.556 18.62 18.556 18.62 4.877-4.893-10.229-10.265h43.58v-21.296Z"/><g clip-path="url(#u)"><path fill="url(#v)" d="M111.762 132.842v86.333l76.952 45.095v-86.857c-25.66-15.094-51.236-29.57-76.952-44.571Z" opacity=".08"/></g><g clip-path="url(#w)"><path fill="url(#x)" d="M129.286 123.697v86.334l76.952 45.095v-86.857c-25.66-15.095-51.236-29.571-76.952-44.572Z" opacity=".08"/></g><g clip-path="url(#y)"><path fill="url(#z)" d="M92.714 143.508v86.333l76.952 45.095v-86.857c-25.66-15.094-51.236-29.57-76.952-44.571Z" opacity=".2"/></g><g clip-path="url(#A)"><path fill="url(#B)" d="M73.667 171.699v-16.761c25.716 15.001 51.292 29.477 76.952 44.571v17.143l-76.952-44.953Z" opacity=".5"/><path fill="#A653E4" d="M134.773 197.508c.631 1.165.517 2.488-.255 2.955-.771.467-1.908-.1-2.539-1.265-.631-1.165-.516-2.487.255-2.954.772-.467 1.908.099 2.539 1.264ZM140.188 201.144c.631 1.165.516 2.488-.255 2.955-.772.467-1.908-.1-2.539-1.264-.631-1.165-.516-2.488.255-2.955.771-.467 1.908.099 2.539 1.264ZM145.641 204.39c.63 1.165.516 2.488-.255 2.955-.772.467-1.908-.1-2.539-1.264-.631-1.165-.517-2.488.255-2.955.771-.467 1.908.099 2.539 1.264Z"/><path fill="url(#C)" d="M150.619 286.364V216.65l-76.952-44.953v69.572l76.952 45.095Z" opacity=".3"/></g><path stroke="url(#D)" stroke-width=".762" d="m102.619 171.697 48 27.81v57.524"/><g filter="url(#E)"><path fill="url(#F)" d="m108.714 201.397-28.19-16.747v3.81l28.19 16.747v-3.81Z"/><path fill="url(#G)" d="m113.286 204.113 5.714 3.395v3.809l-5.714-3.395v-3.809Z"/><path fill="url(#H)" d="m112.524 221.603-26.667-15.619v3.809l26.667 15.619v-3.809Z"/><path fill="url(#I)" d="m100.714 232.65-14.857-8.762v3.81l14.857 8.762v-3.81Z"/><path fill="url(#J)" d="m93.095 201.031 35.429 20.825v3.809l-35.429-20.824v-3.81Z"/><path fill="url(#K)" d="m143 230.365-10.667-6.27v3.809l10.667 6.27v-3.809Z"/><path fill="url(#L)" d="m116.333 232.784-30.476-17.657v3.809l30.476 17.657v-3.809Z"/><path fill="url(#M)" d="m120.143 235.003 3.809 2.219v3.809l-3.809-2.219v-3.809Z"/><path fill="url(#N)" d="m80.524 230.365 25.905 15.2v3.81l-25.905-15.201v-3.809Z"/><path fill="url(#O)" d="m121.286 254.365-11.048-6.565v3.81l11.048 6.564v-3.809Z"/></g><g clip-path="url(#P)"><path fill="url(#Q)" d="M393.667 54.365V140.7l76.952 45.095V98.937c-25.66-15.095-51.236-29.57-76.952-44.572Z" opacity=".08"/></g><g clip-path="url(#R)"><path fill="url(#S)" d="M411.19 45.223v86.333l76.953 45.095V89.794c-25.661-15.094-51.236-29.57-76.953-44.571Z" opacity=".08"/></g><g clip-path="url(#T)"><path fill="url(#U)" d="M374.619 65.033v86.334l76.952 45.095v-86.857c-25.66-15.095-51.236-29.57-76.952-44.572Z" opacity=".2"/></g><g clip-path="url(#V)"><path fill="url(#W)" d="M355.571 93.983V76.459c25.716 15.001 51.292 29.477 76.953 44.571v17.905l-76.953-44.952Z" opacity=".5"/><path fill="#A653E4" d="M415.915 119.03c.631 1.165.517 2.487-.255 2.954-.771.467-1.908-.099-2.539-1.264-.631-1.165-.516-2.488.255-2.955.772-.467 1.909.1 2.539 1.265ZM421.33 122.666c.631 1.165.516 2.487-.255 2.954-.771.468-1.908-.099-2.539-1.264-.631-1.165-.516-2.487.255-2.954.772-.467 1.908.099 2.539 1.264ZM426.783 125.912c.63 1.165.516 2.487-.255 2.954-.772.467-1.908-.099-2.539-1.264-.631-1.165-.517-2.487.255-2.954.771-.468 1.908.099 2.539 1.264Z"/><path fill="url(#X)" d="M432.524 207.889v-68.952l-76.953-44.953v68.81l76.953 45.095Z" opacity=".3"/></g><g filter="url(#Y)"><path fill="url(#Z)" d="m375.762 114.175-9.524-5.714v3.809l9.524 5.715v-3.81Z"/><path fill="url(#aa)" d="m379.19 116.08 22.476 13.333v3.81L379.19 119.89v-3.81Z"/><path fill="url(#ab)" d="m384.524 137.413-16.762-9.904v3.809l16.762 9.905v-3.81Z"/><path fill="url(#ac)" d="m402.428 165.985-34.666-20.572v3.81l34.666 20.571v-3.809Z"/><path fill="url(#ad)" d="m371.952 120.651 38.476 22.73v3.809l-38.476-22.729v-3.81Z"/><path fill="url(#ae)" d="m424.904 151.89-10.666-6.27v3.809l10.666 6.27v-3.809Z"/><path fill="url(#af)" d="m409.666 161.413-37.333-22.476v3.81l37.333 22.476v-3.81Z"/><path fill="url(#ag)" d="m413.476 163.632 3.809 2.22v3.809l-3.809-2.219v-3.81Z"/><path fill="url(#ah)" d="m372.333 157.223 16.381 9.507v3.81l-16.381-9.508v-3.809Z"/><path fill="url(#ai)" d="m408.904 178.578-16.38-9.612v3.809l16.38 9.612v-3.809Z"/></g><defs><linearGradient id="a" x1="85.476" x2="434.81" y1="237.222" y2="42.175" gradientUnits="userSpaceOnUse"><stop stop-color="#A653E4"/><stop offset="1" stop-color="#A653E4" stop-opacity="0"/></linearGradient><linearGradient id="b" x1="242.81" x2="147.985" y1="163.319" y2="216.409" gradientUnits="userSpaceOnUse"><stop stop-color="#A653E4" stop-opacity=".56"/><stop offset="1" stop-color="#A653E4" stop-opacity="0"/></linearGradient><linearGradient id="c" x1="451.548" x2="383.28" y1="77.529" y2="118.32" gradientUnits="userSpaceOnUse"><stop stop-color="#A653E4" stop-opacity=".56"/><stop offset="1" stop-color="#A653E4" stop-opacity="0"/></linearGradient><linearGradient id="d" x1="332.714" x2="382.313" y1="135.509" y2="156.283" gradientUnits="userSpaceOnUse"><stop stop-color="#A653E4" stop-opacity=".56"/><stop offset="1" stop-color="#A653E4" stop-opacity="0"/></linearGradient><linearGradient id="e" x1="260.352" x2="330.526" y1="207.147" y2="134.446" gradientUnits="userSpaceOnUse"><stop stop-color="#A653E4" stop-opacity=".56"/><stop offset="1" stop-color="#A653E4" stop-opacity="0"/></linearGradient><linearGradient id="f" x1="389.476" x2="76.714" y1="101.984" y2="268.461" gradientUnits="userSpaceOnUse"><stop stop-color="#A653E4"/><stop offset="1" stop-color="#A653E4" stop-opacity="0"/></linearGradient><linearGradient id="g" x1="467.572" x2="88.001" y1="87.888" y2="305.544" gradientUnits="userSpaceOnUse"><stop stop-color="#A653E4"/><stop offset="1" stop-color="#A653E4" stop-opacity="0"/></linearGradient><linearGradient id="h" x1="214.619" x2="264.218" y1="121.793" y2="142.567" gradientUnits="userSpaceOnUse"><stop stop-color="#A653E4" stop-opacity=".56"/><stop offset="1" stop-color="#A653E4" stop-opacity="0"/></linearGradient><linearGradient id="i" x1="369.675" x2="59.177" y1="219.711" y2="44.72" gradientUnits="userSpaceOnUse"><stop stop-color="#A653E4"/><stop offset=".963" stop-color="#A653E4" stop-opacity="0"/></linearGradient><linearGradient id="j" x1="279.006" x2="541.482" y1="174.745" y2="327.377" gradientUnits="userSpaceOnUse"><stop stop-color="#A653E4"/><stop offset=".664" stop-color="#A653E4" stop-opacity="0"/></linearGradient><linearGradient id="k" x1="252.333" x2="13.857" y1="191.508" y2="330.937" gradientUnits="userSpaceOnUse"><stop stop-color="#A653E4" stop-opacity="0"/><stop offset="1" stop-color="#A653E4"/></linearGradient><linearGradient id="l" x1="278.947" x2="278.947" y1="201.634" y2=".491" gradientUnits="userSpaceOnUse"><stop stop-color="#A653E4"/><stop offset=".843" stop-color="#A653E4" stop-opacity="0"/></linearGradient><linearGradient id="m" x1="334.581" x2="160.387" y1="90.862" y2="191.433" gradientUnits="userSpaceOnUse"><stop stop-color="#A653E4"/><stop offset=".843" stop-color="#A653E4" stop-opacity="0"/></linearGradient><linearGradient id="n" x1="286.238" x2="362.047" y1="216.665" y2="173.236" gradientUnits="userSpaceOnUse"><stop stop-color="#A653E4"/><stop offset="1" stop-color="#A653E4" stop-opacity="0"/></linearGradient><linearGradient id="o" x1="202.047" x2="111.046" y1="245.616" y2="246.866" gradientUnits="userSpaceOnUse"><stop stop-color="#A653E4" stop-opacity="0"/><stop offset="1" stop-color="#A653E4"/></linearGradient><linearGradient id="p" x1="340.714" x2="422.899" y1="104.652" y2="102.165" gradientUnits="userSpaceOnUse"><stop stop-color="#A653E4" stop-opacity="0"/><stop offset="1" stop-color="#A653E4"/></linearGradient><linearGradient id="q" x1="149.476" x2="334.635" y1="196.842" y2="98.252" gradientUnits="userSpaceOnUse"><stop stop-color="#A653E4"/><stop offset="1" stop-color="#A653E4" stop-opacity="0"/><stop offset="1" stop-color="#A653E4" stop-opacity="0"/></linearGradient><linearGradient id="r" x1="488.905" x2="318.619" y1="45.222" y2="143.507" gradientUnits="userSpaceOnUse"><stop stop-color="#A653E4"/><stop offset="1" stop-color="#A653E4" stop-opacity="0"/></linearGradient><linearGradient id="s" x1="272.142" x2="272.142" y1="79.889" y2="327.508" gradientUnits="userSpaceOnUse"><stop stop-color="#A653E4"/><stop offset="1" stop-color="#A653E4" stop-opacity="0"/></linearGradient><linearGradient id="t" x1="275.19" x2="275.19" y1="50.174" y2="335.888" gradientUnits="userSpaceOnUse"><stop stop-color="#A653E4"/><stop offset="1" stop-color="#A653E4" stop-opacity="0"/></linearGradient><linearGradient id="v" x1="163.191" x2="211.768" y1="113.412" y2="120.845" gradientUnits="userSpaceOnUse"><stop stop-color="#A653E4"/><stop offset="1" stop-color="#A653E4" stop-opacity="0"/></linearGradient><linearGradient id="x" x1="180.714" x2="229.292" y1="104.267" y2="111.7" gradientUnits="userSpaceOnUse"><stop stop-color="#A653E4"/><stop offset="1" stop-color="#A653E4" stop-opacity="0"/></linearGradient><linearGradient id="z" x1="107.571" x2="174.026" y1="121.032" y2="115.683" gradientUnits="userSpaceOnUse"><stop stop-color="#A653E4"/><stop offset="1" stop-color="#A653E4" stop-opacity="0"/></linearGradient><linearGradient id="B" x1="152.143" x2="-129" y1="199.89" y2="31.89" gradientUnits="userSpaceOnUse"><stop offset=".014" stop-color="#A653E4"/><stop offset="1" stop-color="#A653E4" stop-opacity="0"/></linearGradient><linearGradient id="C" x1="121.667" x2="161.917" y1="193.032" y2="192.007" gradientUnits="userSpaceOnUse"><stop stop-color="#A653E4"/><stop offset="1" stop-color="#A653E4" stop-opacity="0"/></linearGradient><linearGradient id="D" x1="153.286" x2="127" y1="197.602" y2="211.697" gradientUnits="userSpaceOnUse"><stop stop-color="#A653E4"/><stop offset="1" stop-color="#A653E4" stop-opacity="0"/></linearGradient><linearGradient id="F" x1="80.524" x2="187.572" y1="208.65" y2="268.46" gradientUnits="userSpaceOnUse"><stop stop-color="#CE8DFF"/><stop offset="1" stop-color="#A653E4" stop-opacity="0"/></linearGradient><linearGradient id="G" x1="80.524" x2="187.572" y1="208.65" y2="268.46" gradientUnits="userSpaceOnUse"><stop stop-color="#CE8DFF"/><stop offset="1" stop-color="#A653E4" stop-opacity="0"/></linearGradient><linearGradient id="H" x1="80.524" x2="187.572" y1="208.65" y2="268.46" gradientUnits="userSpaceOnUse"><stop stop-color="#CE8DFF"/><stop offset="1" stop-color="#A653E4" stop-opacity="0"/></linearGradient><linearGradient id="I" x1="80.524" x2="187.572" y1="208.65" y2="268.46" gradientUnits="userSpaceOnUse"><stop stop-color="#CE8DFF"/><stop offset="1" stop-color="#A653E4" stop-opacity="0"/></linearGradient><linearGradient id="J" x1="80.524" x2="187.572" y1="208.65" y2="268.46" gradientUnits="userSpaceOnUse"><stop stop-color="#CE8DFF"/><stop offset="1" stop-color="#A653E4" stop-opacity="0"/></linearGradient><linearGradient id="K" x1="80.524" x2="187.572" y1="208.65" y2="268.46" gradientUnits="userSpaceOnUse"><stop stop-color="#CE8DFF"/><stop offset="1" stop-color="#A653E4" stop-opacity="0"/></linearGradient><linearGradient id="L" x1="80.524" x2="187.572" y1="208.65" y2="268.46" gradientUnits="userSpaceOnUse"><stop stop-color="#CE8DFF"/><stop offset="1" stop-color="#A653E4" stop-opacity="0"/></linearGradient><linearGradient id="M" x1="80.524" x2="187.572" y1="208.65" y2="268.46" gradientUnits="userSpaceOnUse"><stop stop-color="#CE8DFF"/><stop offset="1" stop-color="#A653E4" stop-opacity="0"/></linearGradient><linearGradient id="N" x1="80.524" x2="187.572" y1="208.65" y2="268.46" gradientUnits="userSpaceOnUse"><stop stop-color="#CE8DFF"/><stop offset="1" stop-color="#A653E4" stop-opacity="0"/></linearGradient><linearGradient id="O" x1="80.524" x2="187.572" y1="208.65" y2="268.46" gradientUnits="userSpaceOnUse"><stop stop-color="#CE8DFF"/><stop offset="1" stop-color="#A653E4" stop-opacity="0"/></linearGradient><linearGradient id="Q" x1="445.096" x2="493.673" y1="34.935" y2="42.368" gradientUnits="userSpaceOnUse"><stop stop-color="#A653E4"/><stop offset="1" stop-color="#A653E4" stop-opacity="0"/></linearGradient><linearGradient id="S" x1="462.619" x2="511.196" y1="25.793" y2="33.226" gradientUnits="userSpaceOnUse"><stop stop-color="#A653E4"/><stop offset="1" stop-color="#A653E4" stop-opacity="0"/></linearGradient><linearGradient id="U" x1="389.476" x2="455.931" y1="42.558" y2="37.208" gradientUnits="userSpaceOnUse"><stop stop-color="#A653E4"/><stop offset="1" stop-color="#A653E4" stop-opacity="0"/></linearGradient><linearGradient id="W" x1="434.047" x2="232.143" y1="121.411" y2="101.602" gradientUnits="userSpaceOnUse"><stop stop-color="#A653E4"/><stop offset="1" stop-color="#A653E4" stop-opacity="0"/></linearGradient><linearGradient id="X" x1="403.571" x2="443.821" y1="114.557" y2="113.532" gradientUnits="userSpaceOnUse"><stop stop-color="#A653E4"/><stop offset="1" stop-color="#A653E4" stop-opacity="0"/></linearGradient><linearGradient id="Z" x1="362.428" x2="469.476" y1="130.937" y2="190.747" gradientUnits="userSpaceOnUse"><stop stop-color="#CE8DFF"/><stop offset="1" stop-color="#A653E4" stop-opacity="0"/></linearGradient><linearGradient id="aa" x1="362.428" x2="469.476" y1="130.937" y2="190.747" gradientUnits="userSpaceOnUse"><stop stop-color="#CE8DFF"/><stop offset="1" stop-color="#A653E4" stop-opacity="0"/></linearGradient><linearGradient id="ab" x1="362.428" x2="469.476" y1="130.937" y2="190.747" gradientUnits="userSpaceOnUse"><stop stop-color="#CE8DFF"/><stop offset="1" stop-color="#A653E4" stop-opacity="0"/></linearGradient><linearGradient id="ac" x1="362.428" x2="469.476" y1="130.937" y2="190.747" gradientUnits="userSpaceOnUse"><stop stop-color="#CE8DFF"/><stop offset="1" stop-color="#A653E4" stop-opacity="0"/></linearGradient><linearGradient id="ad" x1="362.428" x2="469.476" y1="130.937" y2="190.747" gradientUnits="userSpaceOnUse"><stop stop-color="#CE8DFF"/><stop offset="1" stop-color="#A653E4" stop-opacity="0"/></linearGradient><linearGradient id="ae" x1="362.428" x2="469.476" y1="130.937" y2="190.747" gradientUnits="userSpaceOnUse"><stop stop-color="#CE8DFF"/><stop offset="1" stop-color="#A653E4" stop-opacity="0"/></linearGradient><linearGradient id="af" x1="362.428" x2="469.476" y1="130.937" y2="190.747" gradientUnits="userSpaceOnUse"><stop stop-color="#CE8DFF"/><stop offset="1" stop-color="#A653E4" stop-opacity="0"/></linearGradient><linearGradient id="ag" x1="362.428" x2="469.476" y1="130.937" y2="190.747" gradientUnits="userSpaceOnUse"><stop stop-color="#CE8DFF"/><stop offset="1" stop-color="#A653E4" stop-opacity="0"/></linearGradient><linearGradient id="ah" x1="362.428" x2="469.476" y1="130.937" y2="190.747" gradientUnits="userSpaceOnUse"><stop stop-color="#CE8DFF"/><stop offset="1" stop-color="#A653E4" stop-opacity="0"/></linearGradient><linearGradient id="ai" x1="362.428" x2="469.476" y1="130.937" y2="190.747" gradientUnits="userSpaceOnUse"><stop stop-color="#CE8DFF"/><stop offset="1" stop-color="#A653E4" stop-opacity="0"/></linearGradient><clipPath id="u"><path fill="#fff" d="M0 0h76.952v131.81H0z" transform="matrix(-1 0 0 1 188.714 133.602)"/></clipPath><clipPath id="w"><path fill="#fff" d="M0 0h76.952v131.81H0z" transform="matrix(-1 0 0 1 207.762 124.461)"/></clipPath><clipPath id="y"><path fill="#fff" d="M0 0h76.952v131.81H0z" transform="matrix(-1 0 0 1 169.667 143.508)"/></clipPath><clipPath id="A"><path fill="#fff" d="M0 0h76.952v131.81H0z" transform="matrix(-1 0 0 1 150.619 154.938)"/></clipPath><clipPath id="P"><path fill="#fff" d="M0 0h76.952v131.81H0z" transform="matrix(-1 0 0 1 470.619 55.127)"/></clipPath><clipPath id="R"><path fill="#fff" d="M0 0h76.952v131.81H0z" transform="matrix(-1 0 0 1 489.667 45.984)"/></clipPath><clipPath id="T"><path fill="#fff" d="M0 0h76.952v131.81H0z" transform="matrix(-1 0 0 1 451.571 65.033)"/></clipPath><clipPath id="V"><path fill="#fff" d="M0 0h76.952v131.81H0z" transform="matrix(-1 0 0 1 432.523 76.459)"/></clipPath><filter id="E" width="68.571" height="79.619" x="77.476" y="180.841" color-interpolation-filters="sRGB" filterUnits="userSpaceOnUse"><feFlood flood-opacity="0" result="BackgroundImageFix"/><feColorMatrix in="SourceAlpha" result="hardAlpha" values="0 0 0 0 0 0 0 0 0 0 0 0 0 0 0 0 0 0 127 0"/><feOffset dy="-.762"/><feGaussianBlur stdDeviation="1.524"/><feColorMatrix values="0 0 0 0 0.32549 0 0 0 0 0.105882 0 0 0 0 0.517647 0 0 0 0.5 0"/><feBlend in2="BackgroundImageFix" result="effect1_dropShadow_1_907"/><feBlend in="SourceGraphic" in2="effect1_dropShadow_1_907" result="shape"/></filter><filter id="Y" width="64.762" height="80.022" x="363.19" y="104.651" color-interpolation-filters="sRGB" filterUnits="userSpaceOnUse"><feFlood flood-opacity="0" result="BackgroundImageFix"/><feColorMatrix in="SourceAlpha" result="hardAlpha" values="0 0 0 0 0 0 0 0 0 0 0 0 0 0 0 0 0 0 127 0"/><feOffset dy="-.762"/><feGaussianBlur stdDeviation="1.524"/><feColorMatrix values="0 0 0 0 0.32549 0 0 0 0 0.105882 0 0 0 0 0.517647 0 0 0 0.5 0"/><feBlend in2="BackgroundImageFix" result="effect1_dropShadow_1_907"/><feBlend in="SourceGraphic" in2="effect1_dropShadow_1_907" result="shape"/></filter></defs></svg>