<svg width="540" height="339" fill="none" xmlns="http://www.w3.org/2000/svg"><path opacity=".15" d="M506.048 40.27 273.286 174.745l-70.857-41.143L430.618.27l75.43 40Z" fill="url(#a)"/><path opacity=".25" d="M273.286 174.747 130.429 92.081v159.81l142.857 85.904V174.747Z" fill="url(#b)"/><path opacity=".25" d="m343.048 230.769 108 60.782V100.27l-108-65.76v196.259Z" fill="url(#c)"/><path opacity=".25" d="m394.429 244.664-61.715 36.75V181.218l61.715-34.661v98.107Z" fill="url(#d)"/><path opacity=".25" d="m273.286 196.278 159.238 91.803V121.032l-159.238-92.19v167.436Z" fill="url(#e)"/><path opacity=".25" d="m50.048 303.811 223.238-129.065 56.762 32.381-225.905 135.238-54.095-38.554Z" fill="url(#f)"/><path opacity=".15" d="m226.048 147.316-122.667 69.715v96l205.334-117.715-82.667-48Z" fill="url(#g)"/><path opacity=".25" d="m273.286 229.423-58.667 34.465V140.835l58.667-33.899v122.487Z" fill="url(#h)"/><path d="m74.81 59.699 183.238 106.286" stroke="url(#i)"/><path d="M505.672 307.317 317.862 200.65" stroke="url(#j)"/><path d="m69.095 292.461 157.726-91.036" stroke="url(#k)"/><path d="m273.436 126.484-.288-91.927" stroke="url(#l)"/><path d="m232.905 142.748-55.238 31.999" stroke="url(#m)" stroke-width=".381"/><path d="M71.393 291.139v2.666l-2.286 1.334-2.286-1.334v-2.666l2.286-1.334 2.286 1.334Z" fill="#A653E4"/><path d="M364.833 176.643 311.5 207.5" stroke="url(#n)"/><path d="M242.809 169.043 189.095 199.9v91.429l-56.381 33.828" stroke="url(#o)" stroke-width=".762" stroke-miterlimit="10"/><path d="M131.952 325.602v-2.285l1.905-1.143 1.905 1.143v2.285l-1.905 1.143-1.905-1.143Z" fill="#A653E4"/><path d="m409.667 84.474-62.096 35.809v68.191l-61.333 35.047" stroke="url(#p)" stroke-miterlimit="10"/><path d="M411.19 83.52v1.715l-1.523.953-1.524-.953V83.52l1.524-.953 1.523.953ZM205.476 132.091v3.047l-2.667 1.524-2.666-1.524v-3.047l2.666-1.524 2.667 1.524Z" fill="#A653E4"/><path opacity=".5" d="m103.762 74.63 1.524.916v1.853l-1.524.915-1.524-.915v-1.853l1.524-.915Z" fill="#A653E4" stroke="#2C2931" stroke-width=".762"/><path d="M108.333 76.853v2.285l-1.905 1.143-1.905-1.143v-2.285l1.905-1.143 1.905 1.143Z" fill="#A653E4"/><path d="M346.428 215.128v1.715l-1.524.952-1.523-.952v-1.715l1.523-.953 1.524.953Z" fill="#9941DB"/><path d="M344.143 212.855v3.047l-2.667 1.524-2.667-1.524v-3.047l2.667-1.524 2.667 1.524ZM442.428 268.855v2.285l-1.905 1.143-1.904-1.143v-2.285l1.904-1.143 1.905 1.143Z" fill="#A653E4"/><path d="m273.279 92.964 68.59 41.456v79.912l-68.971 41.082-70.101-40.146v-81.221l70.482-41.083Z" stroke="url(#q)" stroke-width="1.5"/><path d="M487 51.318v-1.713l1.523-.953 1.524.953v1.713l-1.524.953-1.523-.953Z" fill="#A653E4"/><path d="M296.524 161.412 487.762 50.765" stroke="url(#r)"/><path d="m176.523 230.375 96.744 56.371 94.495-57.874v-58.888l-12.191-7.262v-50.009l-82.304-48.444-96.744 54.492v111.614Z" stroke="url(#s)"/><path d="M356.596 106.555v-28.36l74.927 43.412v84.911l-57.92-34.158-1.508-.889v59.856l-98.822 60.349-101.083-58.839V116.282l101.085-56.954 81.814 48.089 1.507.886v-1.748Z" stroke="url(#t)" stroke-width="2"/><path d="M321.286 146.93v55.619l-48 27.815-48-27.815V146.93l48-27.803 48 27.803Z" fill="#881ADB"/><path d="m273.286 119.128-48 27.803 48 27.815v-55.619.001Z" fill="#A653E4"/><path d="m273.286 174.746-48 27.804 48 27.815v-55.618M321.286 146.932l-48 27.814 48 27.805v-55.619Z" fill="#5E11CE"/><path d="M273.286 119.127v55.619l48-27.815-48-27.803" fill="#8736DB"/><path d="M273.286 174.746v55.618l48-27.815-48-27.803Z" fill="#3D0BBD"/><path d="M302.688 156.913h-6.898v14.374h-36.682l10.229-10.266-4.877-4.894-18.556 18.62 18.556 18.62 4.877-4.893-10.229-10.265h43.58v-21.296Z" fill="#fff"/><g clip-path="url(#u)"><path opacity=".08" d="M111.762 132.842v86.333l76.952 45.095v-86.857c-25.66-15.094-51.236-29.57-76.952-44.571Z" fill="url(#v)"/></g><g clip-path="url(#w)"><path opacity=".08" d="M129.286 123.697v86.334l76.952 45.095v-86.857c-25.66-15.095-51.236-29.571-76.952-44.572Z" fill="url(#x)"/></g><g clip-path="url(#y)"><path opacity=".2" d="M92.714 143.508v86.333l76.952 45.095v-86.857c-25.66-15.094-51.236-29.57-76.952-44.571Z" fill="url(#z)"/></g><g clip-path="url(#A)"><path opacity=".5" d="M73.667 171.699v-16.761c25.716 15.001 51.292 29.477 76.952 44.571v17.143l-76.952-44.953Z" fill="url(#B)"/><path d="M134.773 197.508c.631 1.165.517 2.488-.255 2.955-.771.467-1.908-.1-2.539-1.265-.631-1.165-.516-2.487.255-2.954.772-.467 1.908.099 2.539 1.264ZM140.188 201.144c.631 1.165.516 2.488-.255 2.955-.772.467-1.908-.1-2.539-1.264-.631-1.165-.516-2.488.255-2.955.771-.467 1.908.099 2.539 1.264ZM145.641 204.39c.63 1.165.516 2.488-.255 2.955-.772.467-1.908-.1-2.539-1.264-.631-1.165-.517-2.488.255-2.955.771-.467 1.908.099 2.539 1.264Z" fill="#A653E4"/><path opacity=".3" d="M150.619 286.364V216.65l-76.952-44.953v69.572l76.952 45.095Z" fill="url(#C)"/></g><path d="m102.619 171.697 48 27.81v57.524" stroke="url(#D)" stroke-width=".762"/><g filter="url(#E)"><path d="m108.714 201.397-28.19-16.747v3.81l28.19 16.747v-3.81Z" fill="url(#F)"/><path d="m113.286 204.113 5.714 3.395v3.809l-5.714-3.395v-3.809Z" fill="url(#G)"/><path d="m112.524 221.603-26.667-15.619v3.809l26.667 15.619v-3.809Z" fill="url(#H)"/><path d="m100.714 232.65-14.857-8.762v3.81l14.857 8.762v-3.81Z" fill="url(#I)"/><path d="m93.095 201.031 35.429 20.825v3.809l-35.429-20.824v-3.81Z" fill="url(#J)"/><path d="m143 230.365-10.667-6.27v3.809l10.667 6.27v-3.809Z" fill="url(#K)"/><path d="m116.333 232.784-30.476-17.657v3.809l30.476 17.657v-3.809Z" fill="url(#L)"/><path d="m120.143 235.003 3.809 2.219v3.809l-3.809-2.219v-3.809Z" fill="url(#M)"/><path d="m80.524 230.365 25.905 15.2v3.81l-25.905-15.201v-3.809Z" fill="url(#N)"/><path d="m121.286 254.365-11.048-6.565v3.81l11.048 6.564v-3.809Z" fill="url(#O)"/></g><g clip-path="url(#P)"><path opacity=".08" d="M393.667 54.365V140.7l76.952 45.095V98.937c-25.66-15.095-51.236-29.57-76.952-44.572Z" fill="url(#Q)"/></g><g clip-path="url(#R)"><path opacity=".08" d="M411.19 45.223v86.333l76.953 45.095V89.794c-25.661-15.094-51.236-29.57-76.953-44.571Z" fill="url(#S)"/></g><g clip-path="url(#T)"><path opacity=".2" d="M374.619 65.033v86.334l76.952 45.095v-86.857c-25.66-15.095-51.236-29.57-76.952-44.572Z" fill="url(#U)"/></g><g clip-path="url(#V)"><path opacity=".5" d="M355.571 93.983V76.459c25.716 15.001 51.292 29.477 76.953 44.571v17.905l-76.953-44.952Z" fill="url(#W)"/><path d="M415.915 119.03c.631 1.165.517 2.487-.255 2.954-.771.467-1.908-.099-2.539-1.264-.631-1.165-.516-2.488.255-2.955.772-.467 1.909.1 2.539 1.265ZM421.33 122.666c.631 1.165.516 2.487-.255 2.954-.771.468-1.908-.099-2.539-1.264-.631-1.165-.516-2.487.255-2.954.772-.467 1.908.099 2.539 1.264ZM426.783 125.912c.63 1.165.516 2.487-.255 2.954-.772.467-1.908-.099-2.539-1.264-.631-1.165-.517-2.487.255-2.954.771-.468 1.908.099 2.539 1.264Z" fill="#A653E4"/><path opacity=".3" d="M432.524 207.889v-68.952l-76.953-44.953v68.81l76.953 45.095Z" fill="url(#X)"/></g><g filter="url(#Y)"><path d="m375.762 114.175-9.524-5.714v3.809l9.524 5.715v-3.81Z" fill="url(#Z)"/><path d="m379.19 116.08 22.476 13.333v3.81L379.19 119.89v-3.81Z" fill="url(#aa)"/><path d="m384.524 137.413-16.762-9.904v3.809l16.762 9.905v-3.81Z" fill="url(#ab)"/><path d="m402.428 165.985-34.666-20.572v3.81l34.666 20.571v-3.809Z" fill="url(#ac)"/><path d="m371.952 120.651 38.476 22.73v3.809l-38.476-22.729v-3.81Z" fill="url(#ad)"/><path d="m424.904 151.89-10.666-6.27v3.809l10.666 6.27v-3.809Z" fill="url(#ae)"/><path d="m409.666 161.413-37.333-22.476v3.81l37.333 22.476v-3.81Z" fill="url(#af)"/><path d="m413.476 163.632 3.809 2.22v3.809l-3.809-2.219v-3.81Z" fill="url(#ag)"/><path d="m372.333 157.223 16.381 9.507v3.81l-16.381-9.508v-3.809Z" fill="url(#ah)"/><path d="m408.904 178.578-16.38-9.612v3.809l16.38 9.612v-3.809Z" fill="url(#ai)"/></g><defs><linearGradient id="a" x1="85.476" y1="237.222" x2="434.81" y2="42.175" gradientUnits="userSpaceOnUse"><stop stop-color="#A653E4"/><stop offset="1" stop-color="#A653E4" stop-opacity="0"/></linearGradient><linearGradient id="b" x1="242.81" y1="163.319" x2="147.985" y2="216.409" gradientUnits="userSpaceOnUse"><stop stop-color="#A653E4" stop-opacity=".56"/><stop offset="1" stop-color="#A653E4" stop-opacity="0"/></linearGradient><linearGradient id="c" x1="451.548" y1="77.529" x2="383.28" y2="118.32" gradientUnits="userSpaceOnUse"><stop stop-color="#A653E4" stop-opacity=".56"/><stop offset="1" stop-color="#A653E4" stop-opacity="0"/></linearGradient><linearGradient id="d" x1="332.714" y1="135.509" x2="382.313" y2="156.283" gradientUnits="userSpaceOnUse"><stop stop-color="#A653E4" stop-opacity=".56"/><stop offset="1" stop-color="#A653E4" stop-opacity="0"/></linearGradient><linearGradient id="e" x1="260.352" y1="207.147" x2="330.526" y2="134.446" gradientUnits="userSpaceOnUse"><stop stop-color="#A653E4" stop-opacity=".56"/><stop offset="1" stop-color="#A653E4" stop-opacity="0"/></linearGradient><linearGradient id="f" x1="389.476" y1="101.984" x2="76.714" y2="268.461" gradientUnits="userSpaceOnUse"><stop stop-color="#A653E4"/><stop offset="1" stop-color="#A653E4" stop-opacity="0"/></linearGradient><linearGradient id="g" x1="467.572" y1="87.888" x2="88.001" y2="305.544" gradientUnits="userSpaceOnUse"><stop stop-color="#A653E4"/><stop offset="1" stop-color="#A653E4" stop-opacity="0"/></linearGradient><linearGradient id="h" x1="214.619" y1="121.793" x2="264.218" y2="142.567" gradientUnits="userSpaceOnUse"><stop stop-color="#A653E4" stop-opacity=".56"/><stop offset="1" stop-color="#A653E4" stop-opacity="0"/></linearGradient><linearGradient id="i" x1="369.675" y1="219.711" x2="59.177" y2="44.72" gradientUnits="userSpaceOnUse"><stop stop-color="#A653E4"/><stop offset=".963" stop-color="#A653E4" stop-opacity="0"/></linearGradient><linearGradient id="j" x1="279.006" y1="174.745" x2="541.482" y2="327.377" gradientUnits="userSpaceOnUse"><stop stop-color="#A653E4"/><stop offset=".664" stop-color="#A653E4" stop-opacity="0"/></linearGradient><linearGradient id="k" x1="252.333" y1="191.508" x2="13.857" y2="330.937" gradientUnits="userSpaceOnUse"><stop stop-color="#A653E4" stop-opacity="0"/><stop offset="1" stop-color="#A653E4"/></linearGradient><linearGradient id="l" x1="278.947" y1="201.634" x2="278.947" y2=".491" gradientUnits="userSpaceOnUse"><stop stop-color="#A653E4"/><stop offset=".843" stop-color="#A653E4" stop-opacity="0"/></linearGradient><linearGradient id="m" x1="334.581" y1="90.862" x2="160.387" y2="191.433" gradientUnits="userSpaceOnUse"><stop stop-color="#A653E4"/><stop offset=".843" stop-color="#A653E4" stop-opacity="0"/></linearGradient><linearGradient id="n" x1="286.238" y1="216.665" x2="362.047" y2="173.236" gradientUnits="userSpaceOnUse"><stop stop-color="#A653E4"/><stop offset="1" stop-color="#A653E4" stop-opacity="0"/></linearGradient><linearGradient id="o" x1="202.047" y1="245.616" x2="111.046" y2="246.866" gradientUnits="userSpaceOnUse"><stop stop-color="#A653E4" stop-opacity="0"/><stop offset="1" stop-color="#A653E4"/></linearGradient><linearGradient id="p" x1="340.714" y1="104.652" x2="422.899" y2="102.165" gradientUnits="userSpaceOnUse"><stop stop-color="#A653E4" stop-opacity="0"/><stop offset="1" stop-color="#A653E4"/></linearGradient><linearGradient id="q" x1="149.476" y1="196.842" x2="334.635" y2="98.252" gradientUnits="userSpaceOnUse"><stop stop-color="#A653E4"/><stop offset="1" stop-color="#A653E4" stop-opacity="0"/><stop offset="1" stop-color="#A653E4" stop-opacity="0"/></linearGradient><linearGradient id="r" x1="488.905" y1="45.222" x2="318.619" y2="143.507" gradientUnits="userSpaceOnUse"><stop stop-color="#A653E4"/><stop offset="1" stop-color="#A653E4" stop-opacity="0"/></linearGradient><linearGradient id="s" x1="272.142" y1="79.889" x2="272.142" y2="327.508" gradientUnits="userSpaceOnUse"><stop stop-color="#A653E4"/><stop offset="1" stop-color="#A653E4" stop-opacity="0"/></linearGradient><linearGradient id="t" x1="275.19" y1="50.174" x2="275.19" y2="335.888" gradientUnits="userSpaceOnUse"><stop stop-color="#A653E4"/><stop offset="1" stop-color="#A653E4" stop-opacity="0"/></linearGradient><linearGradient id="v" x1="163.191" y1="113.412" x2="211.768" y2="120.845" gradientUnits="userSpaceOnUse"><stop stop-color="#A653E4"/><stop offset="1" stop-color="#A653E4" stop-opacity="0"/></linearGradient><linearGradient id="x" x1="180.714" y1="104.267" x2="229.292" y2="111.7" gradientUnits="userSpaceOnUse"><stop stop-color="#A653E4"/><stop offset="1" stop-color="#A653E4" stop-opacity="0"/></linearGradient><linearGradient id="z" x1="107.571" y1="121.032" x2="174.026" y2="115.683" gradientUnits="userSpaceOnUse"><stop stop-color="#A653E4"/><stop offset="1" stop-color="#A653E4" stop-opacity="0"/></linearGradient><linearGradient id="B" x1="152.143" y1="199.89" x2="-129" y2="31.89" gradientUnits="userSpaceOnUse"><stop offset=".014" stop-color="#A653E4"/><stop offset="1" stop-color="#A653E4" stop-opacity="0"/></linearGradient><linearGradient id="C" x1="121.667" y1="193.032" x2="161.917" y2="192.007" gradientUnits="userSpaceOnUse"><stop stop-color="#A653E4"/><stop offset="1" stop-color="#A653E4" stop-opacity="0"/></linearGradient><linearGradient id="D" x1="153.286" y1="197.602" x2="127" y2="211.697" gradientUnits="userSpaceOnUse"><stop stop-color="#A653E4"/><stop offset="1" stop-color="#A653E4" stop-opacity="0"/></linearGradient><linearGradient id="F" x1="80.524" y1="208.65" x2="187.572" y2="268.46" gradientUnits="userSpaceOnUse"><stop stop-color="#CE8DFF"/><stop offset="1" stop-color="#A653E4" stop-opacity="0"/></linearGradient><linearGradient id="G" x1="80.524" y1="208.65" x2="187.572" y2="268.46" gradientUnits="userSpaceOnUse"><stop stop-color="#CE8DFF"/><stop offset="1" stop-color="#A653E4" stop-opacity="0"/></linearGradient><linearGradient id="H" x1="80.524" y1="208.65" x2="187.572" y2="268.46" gradientUnits="userSpaceOnUse"><stop stop-color="#CE8DFF"/><stop offset="1" stop-color="#A653E4" stop-opacity="0"/></linearGradient><linearGradient id="I" x1="80.524" y1="208.65" x2="187.572" y2="268.46" gradientUnits="userSpaceOnUse"><stop stop-color="#CE8DFF"/><stop offset="1" stop-color="#A653E4" stop-opacity="0"/></linearGradient><linearGradient id="J" x1="80.524" y1="208.65" x2="187.572" y2="268.46" gradientUnits="userSpaceOnUse"><stop stop-color="#CE8DFF"/><stop offset="1" stop-color="#A653E4" stop-opacity="0"/></linearGradient><linearGradient id="K" x1="80.524" y1="208.65" x2="187.572" y2="268.46" gradientUnits="userSpaceOnUse"><stop stop-color="#CE8DFF"/><stop offset="1" stop-color="#A653E4" stop-opacity="0"/></linearGradient><linearGradient id="L" x1="80.524" y1="208.65" x2="187.572" y2="268.46" gradientUnits="userSpaceOnUse"><stop stop-color="#CE8DFF"/><stop offset="1" stop-color="#A653E4" stop-opacity="0"/></linearGradient><linearGradient id="M" x1="80.524" y1="208.65" x2="187.572" y2="268.46" gradientUnits="userSpaceOnUse"><stop stop-color="#CE8DFF"/><stop offset="1" stop-color="#A653E4" stop-opacity="0"/></linearGradient><linearGradient id="N" x1="80.524" y1="208.65" x2="187.572" y2="268.46" gradientUnits="userSpaceOnUse"><stop stop-color="#CE8DFF"/><stop offset="1" stop-color="#A653E4" stop-opacity="0"/></linearGradient><linearGradient id="O" x1="80.524" y1="208.65" x2="187.572" y2="268.46" gradientUnits="userSpaceOnUse"><stop stop-color="#CE8DFF"/><stop offset="1" stop-color="#A653E4" stop-opacity="0"/></linearGradient><linearGradient id="Q" x1="445.096" y1="34.935" x2="493.673" y2="42.368" gradientUnits="userSpaceOnUse"><stop stop-color="#A653E4"/><stop offset="1" stop-color="#A653E4" stop-opacity="0"/></linearGradient><linearGradient id="S" x1="462.619" y1="25.793" x2="511.196" y2="33.226" gradientUnits="userSpaceOnUse"><stop stop-color="#A653E4"/><stop offset="1" stop-color="#A653E4" stop-opacity="0"/></linearGradient><linearGradient id="U" x1="389.476" y1="42.558" x2="455.931" y2="37.208" gradientUnits="userSpaceOnUse"><stop stop-color="#A653E4"/><stop offset="1" stop-color="#A653E4" stop-opacity="0"/></linearGradient><linearGradient id="W" x1="434.047" y1="121.411" x2="232.143" y2="101.602" gradientUnits="userSpaceOnUse"><stop stop-color="#A653E4"/><stop offset="1" stop-color="#A653E4" stop-opacity="0"/></linearGradient><linearGradient id="X" x1="403.571" y1="114.557" x2="443.821" y2="113.532" gradientUnits="userSpaceOnUse"><stop stop-color="#A653E4"/><stop offset="1" stop-color="#A653E4" stop-opacity="0"/></linearGradient><linearGradient id="Z" x1="362.428" y1="130.937" x2="469.476" y2="190.747" gradientUnits="userSpaceOnUse"><stop stop-color="#CE8DFF"/><stop offset="1" stop-color="#A653E4" stop-opacity="0"/></linearGradient><linearGradient id="aa" x1="362.428" y1="130.937" x2="469.476" y2="190.747" gradientUnits="userSpaceOnUse"><stop stop-color="#CE8DFF"/><stop offset="1" stop-color="#A653E4" stop-opacity="0"/></linearGradient><linearGradient id="ab" x1="362.428" y1="130.937" x2="469.476" y2="190.747" gradientUnits="userSpaceOnUse"><stop stop-color="#CE8DFF"/><stop offset="1" stop-color="#A653E4" stop-opacity="0"/></linearGradient><linearGradient id="ac" x1="362.428" y1="130.937" x2="469.476" y2="190.747" gradientUnits="userSpaceOnUse"><stop stop-color="#CE8DFF"/><stop offset="1" stop-color="#A653E4" stop-opacity="0"/></linearGradient><linearGradient id="ad" x1="362.428" y1="130.937" x2="469.476" y2="190.747" gradientUnits="userSpaceOnUse"><stop stop-color="#CE8DFF"/><stop offset="1" stop-color="#A653E4" stop-opacity="0"/></linearGradient><linearGradient id="ae" x1="362.428" y1="130.937" x2="469.476" y2="190.747" gradientUnits="userSpaceOnUse"><stop stop-color="#CE8DFF"/><stop offset="1" stop-color="#A653E4" stop-opacity="0"/></linearGradient><linearGradient id="af" x1="362.428" y1="130.937" x2="469.476" y2="190.747" gradientUnits="userSpaceOnUse"><stop stop-color="#CE8DFF"/><stop offset="1" stop-color="#A653E4" stop-opacity="0"/></linearGradient><linearGradient id="ag" x1="362.428" y1="130.937" x2="469.476" y2="190.747" gradientUnits="userSpaceOnUse"><stop stop-color="#CE8DFF"/><stop offset="1" stop-color="#A653E4" stop-opacity="0"/></linearGradient><linearGradient id="ah" x1="362.428" y1="130.937" x2="469.476" y2="190.747" gradientUnits="userSpaceOnUse"><stop stop-color="#CE8DFF"/><stop offset="1" stop-color="#A653E4" stop-opacity="0"/></linearGradient><linearGradient id="ai" x1="362.428" y1="130.937" x2="469.476" y2="190.747" gradientUnits="userSpaceOnUse"><stop stop-color="#CE8DFF"/><stop offset="1" stop-color="#A653E4" stop-opacity="0"/></linearGradient><clipPath id="u"><path fill="#fff" transform="matrix(-1 0 0 1 188.714 133.602)" d="M0 0h76.952v131.81H0z"/></clipPath><clipPath id="w"><path fill="#fff" transform="matrix(-1 0 0 1 207.762 124.461)" d="M0 0h76.952v131.81H0z"/></clipPath><clipPath id="y"><path fill="#fff" transform="matrix(-1 0 0 1 169.667 143.508)" d="M0 0h76.952v131.81H0z"/></clipPath><clipPath id="A"><path fill="#fff" transform="matrix(-1 0 0 1 150.619 154.938)" d="M0 0h76.952v131.81H0z"/></clipPath><clipPath id="P"><path fill="#fff" transform="matrix(-1 0 0 1 470.619 55.127)" d="M0 0h76.952v131.81H0z"/></clipPath><clipPath id="R"><path fill="#fff" transform="matrix(-1 0 0 1 489.667 45.984)" d="M0 0h76.952v131.81H0z"/></clipPath><clipPath id="T"><path fill="#fff" transform="matrix(-1 0 0 1 451.571 65.033)" d="M0 0h76.952v131.81H0z"/></clipPath><clipPath id="V"><path fill="#fff" transform="matrix(-1 0 0 1 432.523 76.459)" d="M0 0h76.952v131.81H0z"/></clipPath><filter id="E" x="77.476" y="180.841" width="68.571" height="79.619" filterUnits="userSpaceOnUse" color-interpolation-filters="sRGB"><feFlood flood-opacity="0" result="BackgroundImageFix"/><feColorMatrix in="SourceAlpha" values="0 0 0 0 0 0 0 0 0 0 0 0 0 0 0 0 0 0 127 0" result="hardAlpha"/><feOffset dy="-.762"/><feGaussianBlur stdDeviation="1.524"/><feColorMatrix values="0 0 0 0 0.32549 0 0 0 0 0.105882 0 0 0 0 0.517647 0 0 0 0.5 0"/><feBlend in2="BackgroundImageFix" result="effect1_dropShadow_1_907"/><feBlend in="SourceGraphic" in2="effect1_dropShadow_1_907" result="shape"/></filter><filter id="Y" x="363.19" y="104.651" width="64.762" height="80.022" filterUnits="userSpaceOnUse" color-interpolation-filters="sRGB"><feFlood flood-opacity="0" result="BackgroundImageFix"/><feColorMatrix in="SourceAlpha" values="0 0 0 0 0 0 0 0 0 0 0 0 0 0 0 0 0 0 127 0" result="hardAlpha"/><feOffset dy="-.762"/><feGaussianBlur stdDeviation="1.524"/><feColorMatrix values="0 0 0 0 0.32549 0 0 0 0 0.105882 0 0 0 0 0.517647 0 0 0 0.5 0"/><feBlend in2="BackgroundImageFix" result="effect1_dropShadow_1_907"/><feBlend in="SourceGraphic" in2="effect1_dropShadow_1_907" result="shape"/></filter></defs></svg>
