<svg width="257" height="54" viewBox="0 0 257 54" fill="none" xmlns="http://www.w3.org/2000/svg"><path fill-rule="evenodd" clip-rule="evenodd" d="M55.452 25.957c0 4.608 2.362 7.44 6.761 7.44a7.942 7.942 0 0 0 6.448-2.717l3.406 3.135a12.466 12.466 0 0 1-9.958 4.18c-6.657 0-11.955-3.511-11.955-13.585 0-8.653 4.451-13.585 11.265-13.585 7.127 0 11.265 5.141 11.265 12.895v2.258l-17.232-.021Zm11.213-7.315a5.81 5.81 0 0 0-10.534 0 8.246 8.246 0 0 0-.68 3.615h11.956a9.04 9.04 0 0 0-.742-3.647v.032Zm18.684 19.05c-5.089 0-7.315-3.407-7.315-7.315V.375h5.35v29.668c0 2.09.732 3.135 2.885 3.135h2.382v4.556l-3.302-.042Zm11.694-11.735c0 4.608 2.362 7.44 6.761 7.44a7.939 7.939 0 0 0 6.448-2.717l3.406 3.135a12.461 12.461 0 0 1-9.958 4.18c-6.657 0-11.955-3.511-11.955-13.585 0-8.653 4.451-13.585 11.265-13.585 7.127 0 11.265 5.141 11.265 12.895v2.258l-17.232-.021Zm11.213-7.315a5.809 5.809 0 0 0-8.39-2.447 5.81 5.81 0 0 0-2.144 2.447 8.246 8.246 0 0 0-.68 3.615h11.956a9.055 9.055 0 0 0-.742-3.647v.032Zm44.046 19.05V21.494c0-4.18-2.361-5.925-5.35-5.925a5.229 5.229 0 0 0-5.227 3.492 5.238 5.238 0 0 0-.27 2.214v16.417h-5.35V21.494c0-4.18-2.362-5.925-5.35-5.925-2.989 0-5.508 1.84-5.508 5.925v16.198h-5.35V11.118h5.225v2.675a9.615 9.615 0 0 1 7.106-2.968 8.488 8.488 0 0 1 7.545 3.877 10.094 10.094 0 0 1 8.36-3.877 9.614 9.614 0 0 1 6.667 2.393 9.865 9.865 0 0 1 2.832 7.493v16.981h-5.33Zm16.083-11.735c0 4.608 2.362 7.44 6.761 7.44a7.942 7.942 0 0 0 6.5-2.717l3.407 3.135a12.478 12.478 0 0 1-9.959 4.18c-6.709 0-11.934-3.5-11.934-13.585 0-8.653 4.452-13.585 11.265-13.585 7.127 0 11.265 5.141 11.265 12.895v2.258l-17.305-.021Zm11.213-7.315a5.809 5.809 0 0 0-8.39-2.447 5.809 5.809 0 0 0-2.144 2.447 8.269 8.269 0 0 0-.679 3.615h11.955a9.03 9.03 0 0 0-.69-3.647l-.052.032Zm27.901 19.05V21.494c0-4.18-2.361-5.925-5.35-5.925-2.989 0-5.549 1.84-5.549 5.925v16.198h-5.35V11.118h5.225v2.675a9.506 9.506 0 0 1 7.147-2.968 9.217 9.217 0 0 1 6.563 2.393c2.09 1.996 2.675 4.504 2.675 7.493v16.981h-5.361Zm19.855 0c-4.984 0-7.315-3.563-7.315-7.388v-15.1h-3.041v-4.086h3.041V3.51h5.351v7.597h5.131v4.086h-5.131v14.85c0 1.943.94 3.135 2.936 3.135h2.205v4.556l-3.177-.042Zm18.257.303c-4.348 0-8.016-.731-11.161-3.825l3.501-3.49a10.307 10.307 0 0 0 7.649 2.78c3.302 0 5.821-1.15 5.821-3.668 0-1.84-1.045-2.884-3.564-3.135l-4.232-.387c-5.026-.47-7.858-2.675-7.858-7.315 0-5.225 4.451-8.12 10.011-8.12 4.033 0 7.388.836 9.854 2.99l-3.354 3.406a10.045 10.045 0 0 0-6.563-1.975c-3.25 0-4.817 1.358-4.817 3.407 0 1.839 1.045 2.78 3.668 3.04l3.72.314c5.507.47 8.36 2.884 8.36 7.545.021 5.56-4.661 8.433-11.035 8.433Zm-143.939 5.884v3.803h4.525v.983h-4.525v4.556h-1.097V42.896h6.416v.983h-5.319Zm11.599 9.342V42.896h1.098v10.335l-1.098-.01Zm14.693 0-5.486-8.287v8.287h-1.118V42.896h1.045l5.486 8.256v-8.256h1.108v10.335l-1.035-.01Zm14.515 0-.825-2.34h-4.515l-.825 2.34h-1.171l3.804-10.335h.93l3.783 10.335h-1.181Zm-3.062-8.747-1.943 5.455h3.856l-1.913-5.455Zm16.95 8.747-5.486-8.287v8.287h-1.097V42.896h1.045l5.486 8.256v-8.256h1.108v10.335l-1.056-.01Zm11.38.094a3.54 3.54 0 0 1-2.581-1.045c-.972-.972-1.045-1.87-1.045-4.232s.052-3.26 1.045-4.232a3.537 3.537 0 0 1 2.581-1.045 3.5 3.5 0 0 1 3.585 3.072h-1.129a2.424 2.424 0 0 0-2.456-2.09 2.455 2.455 0 0 0-1.787.72c-.648.67-.721 1.422-.721 3.543 0 2.122.073 2.874.721 3.543a2.53 2.53 0 0 0 4.264-1.358h1.097a3.5 3.5 0 0 1-3.574 3.124Zm10.095-.094V42.896h1.097v10.335l-1.097-.01Zm14.578 0-.826-2.34h-4.514l-.826 2.34h-1.149l3.803-10.335h.931l3.782 10.335h-1.201Zm-3.135-8.747-1.944 5.455h3.856l-1.912-5.455Zm10.45 8.747V42.896h1.045v9.343h5.277v.982h-6.322ZM21.186 25.704H.161l10.502 18.214H31.7L21.186 25.704ZM10.653 4.281H31.49L21.166 22.496H.14L10.653 4.28ZM34.48 5.894h-.188L23.966 24.097 34.48 42.313l10.513-18.214L34.479 5.893Z" fill="#fff"/></svg>
