<svg width="299" height="53" viewBox="0 0 299 53" fill="none" xmlns="http://www.w3.org/2000/svg"><g clip-path="url(#a)"><path fill-rule="evenodd" clip-rule="evenodd" d="M10.824 49.405H.142L8.717.493l10.65-.006-5.132 28.275s3.757-6.775 11.582-7.616c7.006-.765 10.386.668 11.207 1.016.063.027.11.047.144.06 4.556 1.914 5.254 5.847 5.339 7.944 9.003 1.835 13.506 7.96 13.506 18.363v.877H45.55c.695-5.21-1.069-8.386-4.039-9.993-.79 4.81-1.755 9.983-1.755 9.983H29.148s1.135-5.546 1.514-10.67c-6.308 1.507-12.607 5.621-14.438 10.68h-.096c.058-8.163 6.387-15.486 13.836-18.437-.191-.301-.422-.519-.696-.636-1.327-.93-5.177-1.09-7.222-.717-8.91 1.343-10.563 14.566-11.102 18.876-.047.378-.086.687-.12.913ZM80.393 30.97V16.656h-2.715v5.842h-6.711v-5.842H68.25V30.97h2.717v-6.186h6.711v6.186h2.715Zm7.135-10.176c-1.533 0-2.43.198-2.688.591-.258.393-.387 1.756-.387 4.087 0 1.726.152 2.766.454 3.118.302.352 1.193.529 2.672.529 1.416 0 2.265-.2 2.547-.595.282-.396.422-1.599.422-3.607 0-2.015-.133-3.204-.4-3.572-.266-.367-1.14-.551-2.62-.551Zm.176-1.955c2.185 0 3.59.363 4.22 1.09.627.723.941 2.346.941 4.866 0 2.753-.315 4.488-.947 5.204-.63.717-2.159 1.076-4.585 1.076-2.184 0-3.597-.354-4.236-1.063-.64-.706-.96-2.265-.96-4.671 0-2.866.314-4.666.942-5.401.628-.734 2.17-1.101 4.625-1.101Zm16.095 7.84h-2.221l.017.538c0 .799-.165 1.315-.492 1.55-.328.235-1.041.352-2.14.352-1.355 0-2.158-.212-2.405-.634-.248-.423-.372-1.785-.372-4.088 0-1.708.138-2.737.414-3.082.277-.346 1.102-.521 2.475-.521 1.024 0 1.68.112 1.968.33.289.221.432.725.432 1.512v.307h2.221l-.008-.273c0-1.526-.279-2.546-.837-3.06-.559-.514-1.669-.771-3.332-.771-2.285 0-3.786.313-4.504.938-.716.625-1.076 1.93-1.076 3.916 0 3.37.265 5.444.795 6.218.53.775 1.945 1.164 4.247 1.164 2.027 0 3.337-.245 3.929-.736.594-.49.889-1.572.889-3.246v-.414Zm11.288-7.73v12.023h-2.214v-5.196h-5.469v5.196h-2.212V18.948h2.212v4.905h5.469v-4.905h2.214Zm8.543 3.501h2.162v-.457c0-1.245-.304-2.082-.914-2.51-.611-.43-1.792-.644-3.546-.644-1.851 0-3.086.233-3.705.701-.617.467-.927 1.401-.927 2.806 0 1.373.258 2.269.769 2.685.513.419 1.692.681 3.537.794l1.224.079c.687.04 1.136.157 1.345.347.208.192.311.578.311 1.159 0 .787-.137 1.29-.41 1.507-.273.216-.905.324-1.897.325-1.271 0-2.047-.095-2.332-.281-.284-.19-.428-.703-.428-1.543l-.007-.254h-2.154l.01.44c0 1.398.3 2.325.901 2.783.6.459 1.817.688 3.652.688 2.04 0 3.358-.234 3.957-.702.596-.465.896-1.497.896-3.096 0-1.297-.255-2.152-.764-2.562-.511-.411-1.635-.668-3.371-.767-1.469-.082-2.336-.2-2.599-.352-.261-.152-.392-.608-.392-1.365 0-.64.16-1.06.483-1.26.322-.2 1.006-.299 2.055-.299.888 0 1.451.086 1.691.26.239.173.385.596.435 1.272 0 .054.007.136.018.246Zm11.186 4.23h2.22v.413c0 1.674-.296 2.755-.888 3.246-.592.49-1.903.736-3.93.736-2.301 0-3.716-.389-4.246-1.164-.53-.774-.796-2.848-.796-6.218 0-1.986.359-3.29 1.077-3.916.718-.625 2.219-.938 4.503-.938 1.663 0 2.774.257 3.332.771.558.514.838 1.534.838 3.06l.008.273h-2.221v-.307c0-.787-.143-1.29-.432-1.512-.288-.218-.944-.33-1.969-.33-1.372 0-2.197.175-2.474.52-.276.346-.414 1.375-.414 3.083 0 2.303.124 3.665.372 4.088.247.422 1.049.634 2.406.634 1.098 0 1.811-.117 2.139-.352.327-.235.492-.751.492-1.55l-.017-.538Zm13.508 4.292V18.948h-2.213v4.905h-5.469v-4.905h-2.213v12.023h2.213v-5.196h5.469v5.196h2.213Zm9.552-12.023h2.213v7.997c0 1.675-.312 2.781-.936 3.321-.624.54-1.897.811-3.823.811-2.033 0-3.368-.256-3.999-.766-.633-.51-.948-1.588-.948-3.233v-8.13h2.213v8.13c0 .887.152 1.449.461 1.687.308.238 1.031.356 2.171.356 1.168 0 1.9-.12 2.199-.36.3-.241.449-.832.449-1.771v-8.042Zm6.468 9.98v-9.98h-2.214v12.023h7.683v-2.043h-5.469Zm8.57-8.06v3.1h5.468v1.683h-5.468v3.4h5.818v1.92H170.7V18.948h7.981v1.92h-5.767Zm23.332 10.101V16.656h-2.335V24.9l.017 1.845.027.923.028.924h-.082l-.468-1.177-.47-1.162c-.372-.916-.7-1.697-.982-2.34l-3.202-7.256h-3.959V30.97h2.336v-8.21l-.019-1.877-.027-.933-.036-.944h.091l.388 1.028.396 1.027c.373.98.647 1.664.821 2.055l3.517 7.854h3.959Zm6.956-10.176c-1.532 0-2.429.198-2.687.591-.258.393-.386 1.756-.386 4.087 0 1.726.15 2.766.453 3.118.301.352 1.193.529 2.674.529 1.414 0 2.263-.2 2.545-.595.281-.396.422-1.599.422-3.607 0-2.015-.133-3.204-.4-3.572-.267-.367-1.141-.551-2.621-.551Zm.176-1.955c2.185 0 3.591.363 4.22 1.09.627.723.941 2.346.941 4.866 0 2.753-.315 4.488-.946 5.204-.631.717-2.16 1.076-4.584 1.076-2.185 0-3.597-.354-4.238-1.063-.64-.706-.96-2.265-.96-4.671.001-2.866.315-4.666.942-5.401.628-.734 2.17-1.101 4.625-1.101Zm11.936 6.161h-3.275v-4.131h3.434c.747 0 1.231.124 1.45.374.22.25.329.803.329 1.661 0 .84-.127 1.398-.382 1.678-.256.279-.773.418-1.556.418Zm-5.557-6.05V30.97h2.282v-4.052h3.285c1.221 0 1.832.62 1.832 1.86v2.192h2.282V28.32c0-1.474-.666-2.252-2-2.334v-.08c.864-.17 1.434-.479 1.713-.925.279-.447.417-1.277.417-2.492 0-1.34-.279-2.264-.835-2.775-.558-.51-1.575-.766-3.049-.766h-5.927Zm13.584 10.102h3.251c1.09 0 1.797-.25 2.116-.754.323-.502.482-1.609.482-3.325 0-1.772-.145-2.901-.431-3.381-.289-.483-.964-.724-2.026-.724h-3.392v8.184Zm-2.28 1.92V18.948h5.909c1.679 0 2.856.366 3.528 1.101.672.734 1.01 2.02 1.01 3.858 0 3.001-.272 4.928-.812 5.782-.542.856-1.759 1.282-3.655 1.282h-5.98Zm21.987 0V18.948h-2.282v4.905h-5.639v-4.905h-2.28v12.023h2.28v-5.196h5.639v5.196h2.282Zm8.534-3.99-2.077-6.263-2.044 6.263h4.121Zm.531 1.682h-5.191l-.746 2.308h-2.415l3.998-12.023h3.428l4.06 12.023h-2.369l-.765-2.308Zm13.868-9.715h-2.285v8.042c0 .94-.152 1.53-.46 1.77-.31.241-1.064.361-2.269.361-1.175 0-1.921-.118-2.239-.356-.315-.238-.475-.8-.475-1.688v-8.129h-2.281v8.13c0 1.645.327 2.723.979 3.233.651.51 2.025.766 4.12.766 1.986 0 3.301-.27 3.943-.81.643-.54.967-1.647.967-3.322v-7.997Zm10.701 3.501h-2.229a2.382 2.382 0 0 1-.016-.246c-.054-.676-.203-1.1-.449-1.272-.248-.174-.831-.26-1.745-.26-1.081 0-1.786.1-2.119.299-.332.2-.498.62-.498 1.26 0 .757.136 1.212.405 1.365.27.152 1.162.27 2.678.352 1.792.1 2.949.356 3.474.767.528.41.79 1.265.79 2.562 0 1.599-.308 2.63-.926 3.096-.615.468-1.976.702-4.078.702-1.89 0-3.146-.23-3.766-.688-.621-.458-.929-1.385-.929-2.784l-.008-.44h2.219l.01.255c0 .84.145 1.353.439 1.543.293.186 1.094.281 2.405.281 1.021 0 1.675-.109 1.957-.325.281-.218.421-.72.421-1.507.001-.581-.106-.967-.321-1.159-.216-.19-.678-.306-1.387-.347l-1.26-.079c-1.902-.113-3.118-.375-3.646-.794-.529-.416-.795-1.312-.795-2.685 0-1.405.32-2.34.956-2.806.639-.468 1.91-.701 3.819-.701 1.81 0 3.029.214 3.657.643.628.428.942 1.266.942 2.511v.457Zm3.596 1.52v-3.102h5.944v-1.919h-8.227v12.023h8.281v-1.92h-5.998v-3.4h5.636v-1.683h-5.636Zm18.532-5.02V30.97h-3.866l-3.435-6.597c-.172-.33-.44-.905-.802-1.726l-.389-.864-.377-.863h-.088l.034.792.028.785.017 1.576v6.897h-2.282V18.948h3.865l3.129 6.095c.274.54.597 1.195.959 1.963l.458.98.46.985h.077l-.026-.775-.026-.775-.017-1.55v-6.923h2.281ZM76.93 39.673h-1.902v6.702c0 .782-.128 1.275-.385 1.475-.258.2-.888.3-1.89.3-.979 0-1.601-.099-1.865-.297-.264-.197-.396-.665-.396-1.405v-6.775h-1.901v6.775c0 1.37.27 2.269.815 2.694.542.427 1.687.64 3.435.64 1.653 0 2.749-.226 3.284-.677.537-.45.804-1.372.804-2.767v-6.665Zm2.004 3.003H80.6l-.067 1.182.036.007c.328-.846 1.063-1.27 2.203-1.27 1.659 0 2.489.774 2.489 2.32v4.78h-1.682V45.201l-.037-.492c-.077-.523-.49-.785-1.233-.785-1.13 0-1.695.536-1.695 1.608v4.162h-1.68v-7.018Zm10.449 7.017v-7.018H87.7v7.018h1.682Zm0-8.618v-1.402H87.7v1.402h1.682Zm8.297 1.599-2.01 7.018h-2.628l-2.114-7.018h1.784l.925 3.237c.127.45.245.886.352 1.306l.169.654.17.653h.035l.155-.653.155-.647c.117-.489.227-.924.33-1.306l.866-3.244h1.811Zm6.083 2.504.008.28h-3.061c0-.676.094-1.114.282-1.314.187-.2.596-.3 1.222-.3.645 0 1.066.082 1.258.248.195.167.291.53.291 1.086Zm1.681 2.269h-1.688c0 .446-.093.734-.279.87-.186.135-.588.201-1.205.201-.635 0-1.06-.115-1.273-.345-.212-.23-.319-.69-.319-1.38 0-.048.006-.15.015-.308h4.749v-.513c0-1.341-.212-2.24-.639-2.699-.425-.457-1.265-.685-2.517-.685-1.307 0-2.185.234-2.636.704-.45.47-.675 1.388-.675 2.752 0 1.537.215 2.544.646 3.018.43.475 1.343.712 2.738.712 2.054 0 3.083-.685 3.083-2.056v-.271Zm2.243-4.772h1.68l-.102.984.036.007c.402-.734 1.033-1.102 1.894-1.102 1.234 0 1.851.78 1.851 2.336v.492h-1.586c.019-.191.03-.317.03-.374 0-.75-.292-1.124-.874-1.124-.832 0-1.249.554-1.249 1.665v4.134h-1.68v-7.018Zm11.301 1.93h1.643c0-.796-.201-1.333-.604-1.606-.403-.274-1.192-.411-2.36-.411-1.24 0-2.076.142-2.511.425-.435.284-.653.828-.653 1.63 0 .895.239 1.486.716 1.769.477.285 1.466.425 2.969.425.665 0 .997.297.997.89 0 .616-.53.923-1.592.923-1.027 0-1.508-.31-1.439-.932.006-.058.02-.137.044-.235h-1.746v.177c0 .818.219 1.374.66 1.673.441.299 1.26.449 2.459.449 1.248 0 2.112-.167 2.595-.497.482-.33.723-.922.723-1.78 0-.801-.18-1.333-.542-1.592-.363-.26-1.144-.418-2.343-.478-.89-.042-1.413-.102-1.567-.175-.154-.075-.231-.304-.231-.691 0-.567.438-.85 1.313-.85.612 0 .998.04 1.157.125.158.082.256.293.289.63l.007.039v.002l.006.03.01.06Zm5.7-1.93v7.018h-1.682v-7.018h1.682Zm0-3.002v1.402h-1.682v-1.402h1.682Zm6.977 4.28v-1.278h-2.702v-1.572h-1.681v1.572h-.909v1.278h.909v3.764c0 1.377.75 2.064 2.246 2.064 1.503 0 2.301-.537 2.395-1.608.019-.23.029-.506.029-.83v-.352h-1.433v.28c0 .787-.27 1.181-.814 1.181-.495 0-.742-.325-.742-.976v-3.523h2.702Zm7.785-1.28-1.841 7.458c-.261 1.057-.582 1.768-.967 2.133-.385.364-.999.547-1.845.547-.192 0-.39-.011-.595-.029v-1.241c.147.01.268.014.367.014.714 0 1.167-.621 1.357-1.863h-.858l-2.297-7.018h1.806l.88 2.973.44 1.49c.025.098.094.347.206.748l.213.741h.037l.153-.74.046-.225.051-.245.057-.279.346-1.49.676-2.973h1.768Zm7.345 1.63c.19-.253.635-.38 1.335-.38.691 0 1.13.126 1.321.375.191.25.286.823.286 1.718 0 1.063-.091 1.733-.275 2.012-.183.278-.626.418-1.325.418-.724 0-1.177-.132-1.357-.397-.182-.264-.272-.925-.272-1.981 0-.925.095-1.513.287-1.766Zm4.014-1.057c-.422-.435-1.309-.65-2.664-.65-1.395 0-2.301.22-2.716.659-.417.442-.625 1.398-.625 2.87 0 1.534.212 2.524.635 2.974.423.45 1.354.676 2.787.676 1.321 0 2.186-.243 2.598-.728.411-.484.617-1.505.617-3.06 0-1.396-.21-2.31-.632-2.741Zm3.161 6.447v-5.74h-.991v-1.278h.991v-.749c0-.89.191-1.506.576-1.846.383-.34 1.079-.51 2.088-.51.172 0 .409.008.712.022v1.314a2.73 2.73 0 0 0-.587-.08c-.739 0-1.11.366-1.11 1.101l.002.748h1.747v1.278h-1.747v5.74h-1.681Zm13.616-8.545 1.732 5.22h-3.435l1.703-5.22Zm-2.151 6.622h4.325l.637 1.923h1.976l-3.385-10.02h-2.856l-3.332 10.02h2.012l.623-1.923Zm11.844-3.854c-.641 0-1.061.145-1.255.433-.196.289-.294.901-.294 1.836 0 .91.105 1.514.316 1.812.21.299.637.448 1.284.448.656 0 1.082-.142 1.276-.427.197-.282.294-.891.294-1.826 0-.96-.098-1.578-.297-1.857-.198-.279-.639-.42-1.324-.42Zm-3.311-1.24h1.71l-.067 1.042.038.006c.406-.757 1.162-1.136 2.268-1.136 1.023 0 1.726.253 2.112.76.383.505.575 1.43.575 2.77 0 1.4-.191 2.36-.573 2.878-.381.519-1.09.778-2.122.778-1.101 0-1.82-.367-2.157-1.102h-.03v4.03h-1.754V42.677Zm10.875 1.673c.197-.288.614-.433 1.256-.433.684 0 1.126.14 1.325.419.197.279.297.897.297 1.857 0 .935-.099 1.544-.293 1.826-.197.285-.622.427-1.279.427-.645 0-1.074-.15-1.284-.448-.21-.298-.315-.903-.315-1.812 0-.935.097-1.547.293-1.836Zm-.345-1.673h-1.709v10.026h1.754v-4.03h.029c.338.735 1.057 1.102 2.159 1.102 1.032 0 1.738-.26 2.12-.778.382-.518.572-1.478.572-2.877 0-1.34-.191-2.266-.575-2.771-.385-.507-1.088-.76-2.112-.76-1.104 0-1.861.379-2.268 1.136l-.035-.006.065-1.042Zm8.789-3.003v10.02h-1.68v-10.02h1.68Zm4.115 10.02v-7.018h-1.68v7.018h1.68Zm0-8.618v-1.402h-1.68v1.402h1.68Zm6.97 4.382-.008-.279c0-.557-.096-.919-.289-1.086-.194-.166-.614-.248-1.259-.248-.627 0-1.034.1-1.223.3-.188.2-.283.638-.283 1.313h3.062Zm-.016 1.99h1.69v.27c0 1.372-1.029 2.057-3.083 2.057-1.394 0-2.308-.237-2.738-.712-.431-.474-.647-1.481-.647-3.018 0-1.364.225-2.282.675-2.752.451-.47 1.329-.704 2.635-.704 1.254 0 2.093.228 2.518.685.427.459.64 1.358.64 2.7v.512h-4.75c-.01.157-.014.26-.014.309 0 .69.106 1.149.318 1.38.213.23.638.344 1.274.344.616 0 1.018-.066 1.203-.201.187-.136.279-.424.279-.87Zm5.606-3.123c.185-.267.591-.401 1.218-.401.655 0 1.088.135 1.296.405.207.268.313.834.313 1.694 0 1.042-.097 1.708-.284 1.996-.187.29-.62.434-1.295.434-.646 0-1.062-.147-1.248-.44-.186-.295-.279-.95-.279-1.968 0-.881.093-1.455.279-1.72Zm4.514 5.37V39.673h-1.681v4l-.029.008c-.284-.724-.999-1.086-2.145-1.086-.986 0-1.674.243-2.061.73s-.58 1.355-.58 2.61c0 1.55.179 2.579.539 3.085.36.508 1.096.761 2.206.761 1.101 0 1.817-.41 2.144-1.226l.029.007-.058 1.131h1.636Zm14.461-7.101h-1.857a1.867 1.867 0 0 1-.015-.205c-.044-.564-.17-.918-.375-1.062-.205-.144-.689-.217-1.453-.217-.9 0-1.488.085-1.766.25-.276.166-.412.517-.412 1.05 0 .63.111 1.01.336 1.138.224.127.969.225 2.231.294 1.493.083 2.457.295 2.897.638.436.342.655 1.055.655 2.136 0 1.33-.257 2.19-.77 2.58-.513.388-1.647.584-3.397.584-1.579 0-2.624-.191-3.139-.572-.518-.382-.775-1.156-.775-2.32l-.008-.368h1.85l.007.213c0 .7.123 1.129.367 1.284.246.157.915.236 2.005.236.851 0 1.393-.09 1.629-.272.235-.18.353-.6.353-1.256 0-.484-.09-.805-.269-.965-.18-.157-.564-.255-1.154-.29l-1.051-.065c-1.587-.093-2.598-.313-3.04-.66-.439-.348-.658-1.094-.658-2.24 0-1.168.264-1.949.794-2.338.532-.39 1.591-.583 3.184-.583 1.505 0 2.522.179 3.044.536.526.358.787 1.055.787 2.092v.382Zm8.438 4.421h-1.674c0 .607-.082.997-.246 1.171-.165.174-.535.26-1.113.26-.732 0-1.195-.126-1.384-.377-.187-.252-.281-.867-.281-1.847 0-1.012.086-1.65.255-1.909.172-.259.594-.388 1.265-.388.943 0 1.415.408 1.415 1.226h1.668c0-.993-.217-1.667-.647-2.022-.432-.354-1.252-.532-2.467-.532-1.257 0-2.105.245-2.539.733-.437.49-.654 1.44-.654 2.849 0 1.443.217 2.404.654 2.88.434.478 1.315.717 2.634.717 1.802 0 2.804-.485 3.01-1.454l.104-1.064v-.243Zm3.694-4.339v7.018h-1.68v-7.018h1.68Zm0-3.002v1.402h-1.68v-1.402h1.68Zm6.963 5.505.007.28h-3.062c0-.676.096-1.114.284-1.314.19-.2.595-.3 1.223-.3.646 0 1.064.082 1.26.248.192.167.288.53.288 1.086Zm1.68 2.269h-1.687c0 .446-.094.734-.279.87-.187.135-.587.201-1.203.201-.638 0-1.062-.115-1.274-.345-.213-.23-.321-.69-.321-1.38 0-.048.006-.15.015-.308h4.749v-.513c0-1.341-.212-2.24-.637-2.699-.427-.457-1.266-.685-2.518-.685-1.308 0-2.185.234-2.637.704-.448.47-.674 1.388-.674 2.752 0 1.537.216 2.544.645 3.018.431.475 1.344.712 2.737.712 2.057 0 3.084-.685 3.084-2.056v-.271Zm2.186-4.77h1.665l-.067 1.18.039.008c.327-.846 1.062-1.27 2.199-1.27 1.662 0 2.49.774 2.49 2.32v4.78h-1.68V45.201l-.035-.492c-.08-.523-.492-.785-1.234-.785-1.131 0-1.697.536-1.697 1.608v4.162h-1.68v-7.018Zm14.897 4.337h-1.674c0 .607-.082.997-.246 1.171-.163.174-.535.26-1.113.26-.732 0-1.196-.126-1.383-.377-.19-.252-.282-.867-.282-1.847 0-1.012.086-1.65.257-1.909.17-.259.592-.388 1.263-.388.945 0 1.416.408 1.416 1.226h1.667c0-.993-.218-1.667-.647-2.022-.43-.354-1.253-.532-2.467-.532-1.257 0-2.102.245-2.538.733-.436.49-.654 1.44-.654 2.849 0 1.443.218 2.404.654 2.88.436.478 1.313.717 2.634.717 1.801 0 2.805-.485 3.011-1.454l.102-1.064v-.243Zm6.552-1.557-.007-.279c0-.557-.098-.919-.289-1.086-.196-.166-.614-.248-1.26-.248-.628 0-1.033.1-1.223.3-.188.2-.283.638-.283 1.313h3.062Zm-.015 1.99h1.687v.27c0 1.372-1.025 2.057-3.083 2.057-1.394 0-2.304-.237-2.737-.712-.43-.474-.647-1.481-.647-3.018 0-1.364.227-2.282.675-2.752.451-.47 1.33-.704 2.638-.704 1.252 0 2.09.228 2.517.685.425.459.637 1.358.637 2.7v.512h-4.749c-.009.157-.015.26-.015.309.002.69.108 1.149.321 1.38.212.23.637.344 1.274.344.616 0 1.017-.066 1.203-.201.186-.136.279-.424.279-.87Zm8.084-2.842h1.644c0-.796-.2-1.333-.604-1.606-.406-.274-1.191-.411-2.36-.411-1.238 0-2.076.142-2.51.425-.437.284-.654.828-.654 1.63 0 .895.238 1.486.715 1.769.478.285 1.468.425 2.969.425.666 0 .998.297.998.89 0 .616-.53.923-1.592.923-1.029 0-1.508-.31-1.439-.932.005-.058.019-.137.044-.235h-1.747v.177c0 .818.221 1.374.66 1.673.441.299 1.261.449 2.461.449 1.248 0 2.111-.167 2.593-.497.483-.33.723-.922.723-1.78 0-.801-.182-1.333-.541-1.592-.364-.26-1.143-.418-2.344-.478-.889-.042-1.413-.102-1.566-.175-.154-.075-.23-.304-.231-.691 0-.567.438-.85 1.313-.85.611 0 .997.04 1.157.125.158.082.255.293.289.63l.011.065.011.066Z" fill="#fff"/></g><defs><clipPath id="a"><path fill="#fff" transform="translate(.349 .488)" d="M0 0h298.256v52.326H0z"/></clipPath></defs></svg>
