<svg xmlns="http://www.w3.org/2000/svg" width="32" height="32" fill="none" viewBox="0 0 32 32"><path fill="#881ADB" d="M25.366 10.591v10.816L16 26.815l-9.366-5.408V10.59L16 5.186l9.366 5.407Z"/><path fill="#A653E4" d="m16 5.185-9.366 5.407L16 16V5.185Z"/><path fill="#5E11CE" d="m16 16-9.366 5.406L16 26.816V16M25.366 10.591 16 16.001l9.366 5.405V10.591Z"/><path fill="#8736DB" d="M16 5.185V16l9.366-5.409L16 5.186"/><path fill="#3D0BBD" d="M16 16v10.815l9.366-5.409L16 16"/><path fill="#fff" d="M21.737 12.532h-1.346v2.795h-7.157l1.996-1.996-.952-.952L10.658 16l3.62 3.62.952-.95-1.996-1.997h8.503v-4.14Z"/></svg>