<svg width="32" height="32" viewBox="0 0 32 32" fill="none" xmlns="http://www.w3.org/2000/svg"><path d="M25.366 10.591v10.816L16 26.815l-9.366-5.408V10.59L16 5.186l9.366 5.407Z" fill="#881ADB"/><path d="m16 5.185-9.366 5.407L16 16V5.185Z" fill="#A653E4"/><path d="m16 16-9.366 5.406L16 26.816V16M25.366 10.591 16 16.001l9.366 5.405V10.591Z" fill="#5E11CE"/><path d="M16 5.185V16l9.366-5.409L16 5.186" fill="#8736DB"/><path d="M16 16v10.815l9.366-5.409L16 16" fill="#3D0BBD"/><path d="M18.842 20.01H11.49v-1.346h7.352a.995.995 0 1 0 0-1.99h-5.683a2.342 2.342 0 1 1 0-4.684h7.351v1.346h-7.352a.996.996 0 1 0 0 1.991h5.684a2.34 2.34 0 1 1 0 4.683Z" fill="#fff"/></svg>
